<svg width="90" height="90" viewBox="0 0 90 90" fill="none" xmlns="http://www.w3.org/2000/svg">
<rect x="50.2383" y="35.89" width="35.61" height="4.49116" transform="rotate(90.0023 50.2383 35.89)" fill="white" stroke="white"/>
<rect x="51.2373" y="35.8898" width="25.1074" height="4.4915" fill="white" stroke="white"/>
<rect x="51.2373" y="49.6185" width="25.1074" height="4.4915" fill="white" stroke="white"/>
<mask id="path-4-inside-1_120_31" fill="white">
<path d="M76.223 54.61C79.3553 54.61 82.3593 53.5975 84.5742 51.7953C86.7891 49.993 88.0334 47.5486 88.0334 44.9999C88.0334 42.4511 86.7891 40.0067 84.5742 38.2045C82.3593 36.4022 79.3553 35.3898 76.223 35.3898L76.223 40.8778C77.5665 40.8778 78.855 41.3121 79.8051 42.0852C80.7551 42.8582 81.2888 43.9066 81.2888 44.9999C81.2888 46.0931 80.7551 47.1416 79.8051 47.9146C78.855 48.6876 77.5665 49.1219 76.223 49.1219V54.61Z"/>
</mask>
<path d="M76.223 54.61C79.3553 54.61 82.3593 53.5975 84.5742 51.7953C86.7891 49.993 88.0334 47.5486 88.0334 44.9999C88.0334 42.4511 86.7891 40.0067 84.5742 38.2045C82.3593 36.4022 79.3553 35.3898 76.223 35.3898L76.223 40.8778C77.5665 40.8778 78.855 41.3121 79.8051 42.0852C80.7551 42.8582 81.2888 43.9066 81.2888 44.9999C81.2888 46.0931 80.7551 47.1416 79.8051 47.9146C78.855 48.6876 77.5665 49.1219 76.223 49.1219V54.61Z" stroke="white" stroke-width="12" mask="url(#path-4-inside-1_120_31)"/>
<rect x="50.2383" y="35.89" width="35.61" height="4.49116" transform="rotate(90.0023 50.2383 35.89)" fill="white" stroke="white"/>
<rect x="51.2373" y="35.8898" width="25.1074" height="4.4915" fill="white" stroke="white"/>
<rect x="51.2373" y="49.6185" width="25.1074" height="4.4915" fill="white" stroke="white"/>
<mask id="path-8-inside-2_120_31" fill="white">
<path d="M76.223 54.61C79.3553 54.61 82.3593 53.5975 84.5742 51.7953C86.7891 49.993 88.0334 47.5486 88.0334 44.9999C88.0334 42.4511 86.7891 40.0067 84.5742 38.2045C82.3593 36.4022 79.3553 35.3898 76.223 35.3898L76.223 40.8778C77.5665 40.8778 78.855 41.3121 79.8051 42.0852C80.7551 42.8582 81.2888 43.9066 81.2888 44.9999C81.2888 46.0931 80.7551 47.1416 79.8051 47.9146C78.855 48.6876 77.5665 49.1219 76.223 49.1219V54.61Z"/>
</mask>
<path d="M76.223 54.61C79.3553 54.61 82.3593 53.5975 84.5742 51.7953C86.7891 49.993 88.0334 47.5486 88.0334 44.9999C88.0334 42.4511 86.7891 40.0067 84.5742 38.2045C82.3593 36.4022 79.3553 35.3898 76.223 35.3898L76.223 40.8778C77.5665 40.8778 78.855 41.3121 79.8051 42.0852C80.7551 42.8582 81.2888 43.9066 81.2888 44.9999C81.2888 46.0931 80.7551 47.1416 79.8051 47.9146C78.855 48.6876 77.5665 49.1219 76.223 49.1219V54.61Z" stroke="white" stroke-width="12" mask="url(#path-8-inside-2_120_31)"/>
<rect x="39.7954" y="54.11" width="35.61" height="4.49116" transform="rotate(-89.9977 39.7954 54.11)" fill="white" stroke="white"/>
<rect x="38.7964" y="54.1102" width="25.1074" height="4.4915" transform="rotate(180 38.7964 54.1102)" fill="white" stroke="white"/>
<rect x="38.7964" y="40.3815" width="25.1074" height="4.4915" transform="rotate(180 38.7964 40.3815)" fill="white" stroke="white"/>
<mask id="path-12-inside-3_120_31" fill="white">
<path d="M13.8105 35.39C10.6781 35.39 7.6741 36.4025 5.45921 38.2047C3.24431 40.007 2 42.4514 2 45.0001C2 47.5489 3.24431 49.9933 5.45921 51.7955C7.6741 53.5978 10.6781 54.6102 13.8105 54.6102L13.8105 49.1222C12.4669 49.1222 11.1784 48.6879 10.2284 47.9148C9.27836 47.1418 8.74465 46.0934 8.74465 45.0001C8.74465 43.9069 9.27836 42.8584 10.2284 42.0854C11.1784 41.3124 12.4669 40.8781 13.8105 40.8781L13.8105 35.39Z"/>
</mask>
<path d="M13.8105 35.39C10.6781 35.39 7.6741 36.4025 5.45921 38.2047C3.24431 40.007 2 42.4514 2 45.0001C2 47.5489 3.24431 49.9933 5.45921 51.7955C7.6741 53.5978 10.6781 54.6102 13.8105 54.6102L13.8105 49.1222C12.4669 49.1222 11.1784 48.6879 10.2284 47.9148C9.27836 47.1418 8.74465 46.0934 8.74465 45.0001C8.74465 43.9069 9.27836 42.8584 10.2284 42.0854C11.1784 41.3124 12.4669 40.8781 13.8105 40.8781L13.8105 35.39Z" stroke="white" stroke-width="12" mask="url(#path-12-inside-3_120_31)"/>
<rect x="39.7954" y="54.11" width="35.61" height="4.49116" transform="rotate(-89.9977 39.7954 54.11)" fill="white" stroke="white"/>
<rect x="38.7964" y="54.1102" width="25.1074" height="4.4915" transform="rotate(180 38.7964 54.1102)" fill="white" stroke="white"/>
<rect x="38.7964" y="40.3815" width="25.1074" height="4.4915" transform="rotate(180 38.7964 40.3815)" fill="white" stroke="white"/>
<mask id="path-16-inside-4_120_31" fill="white">
<path d="M13.8105 35.39C10.6781 35.39 7.6741 36.4025 5.45921 38.2047C3.24431 40.007 2 42.4514 2 45.0001C2 47.5489 3.24431 49.9933 5.45921 51.7955C7.6741 53.5978 10.6781 54.6102 13.8105 54.6102L13.8105 49.1222C12.4669 49.1222 11.1784 48.6879 10.2284 47.9148C9.27836 47.1418 8.74465 46.0934 8.74465 45.0001C8.74465 43.9069 9.27836 42.8584 10.2284 42.0854C11.1784 41.3124 12.4669 40.8781 13.8105 40.8781L13.8105 35.39Z"/>
</mask>
<path d="M13.8105 35.39C10.6781 35.39 7.6741 36.4025 5.45921 38.2047C3.24431 40.007 2 42.4514 2 45.0001C2 47.5489 3.24431 49.9933 5.45921 51.7955C7.6741 53.5978 10.6781 54.6102 13.8105 54.6102L13.8105 49.1222C12.4669 49.1222 11.1784 48.6879 10.2284 47.9148C9.27836 47.1418 8.74465 46.0934 8.74465 45.0001C8.74465 43.9069 9.27836 42.8584 10.2284 42.0854C11.1784 41.3124 12.4669 40.8781 13.8105 40.8781L13.8105 35.39Z" stroke="white" stroke-width="12" mask="url(#path-16-inside-4_120_31)"/>
</svg>
