<svg width="1416" height="1020" viewBox="0 0 1416 1020" fill="none" xmlns="http://www.w3.org/2000/svg">
<g clip-path="url(#clip0_430_16919)">
<path d="M2.49956 51.1793L-27.5 68.5L31.1126 102.34L61.1122 85.0193L2.49956 51.1793Z" stroke="#DFDFDF" stroke-opacity="0.7"/>
<path d="M-56.1126 49.34L-56.1122 83.9808L2.50044 50.1408L2.5 15.5L-56.1126 49.34Z" stroke="#DFDFDF" stroke-opacity="0.7"/>
<path d="M2.5 50.18L32.5 67.5V-0.18L2.5 -17.5L2.5 50.18Z" stroke="#DFDFDF" stroke-opacity="0.7"/>
<path d="M91.4996 -0.820717L61.5 16.5L120.113 50.34L150.112 33.0193L91.4996 -0.820717Z" stroke="#DFDFDF" stroke-opacity="0.7"/>
<path d="M32.8874 -2.66L32.8878 31.9808L91.5004 -1.85924L91.5 -36.5L32.8874 -2.66Z" stroke="#DFDFDF" stroke-opacity="0.7"/>
<path d="M91.5 -1.82L121.5 15.5V-52.18L91.5 -69.5V-1.82Z" stroke="#DFDFDF" stroke-opacity="0.7"/>
<path d="M179.5 51.1793L149.5 68.5L208.113 102.34L238.112 85.0193L179.5 51.1793Z" stroke="#DFDFDF" stroke-opacity="0.7"/>
<path d="M120.887 49.34L120.888 83.9808L179.5 50.1408L179.5 15.5L120.887 49.34Z" stroke="#DFDFDF" stroke-opacity="0.7"/>
<path d="M179.5 50.18L209.5 67.5V-0.18L179.5 -17.5V50.18Z" stroke="#DFDFDF" stroke-opacity="0.7"/>
<path d="M268.5 -0.820717L238.5 16.5L297.113 50.34L327.112 33.0193L268.5 -0.820717Z" stroke="#DFDFDF" stroke-opacity="0.7"/>
<path d="M209.887 -2.66L209.888 31.9808L268.5 -1.85924L268.5 -36.5L209.887 -2.66Z" stroke="#DFDFDF" stroke-opacity="0.7"/>
<path d="M268.5 -1.82L298.5 15.5V-52.18L268.5 -69.5V-1.82Z" stroke="#DFDFDF" stroke-opacity="0.7"/>
<path d="M356.5 51.1793L326.5 68.5L385.113 102.34L415.112 85.0193L356.5 51.1793Z" stroke="#DFDFDF" stroke-opacity="0.7"/>
<path d="M297.887 49.34L297.888 83.9808L356.5 50.1408L356.5 15.5L297.887 49.34Z" stroke="#DFDFDF" stroke-opacity="0.7"/>
<path d="M356.5 50.18L386.5 67.5V-0.18L356.5 -17.5V50.18Z" stroke="#DFDFDF" stroke-opacity="0.7"/>
<path d="M445.5 -0.820717L415.5 16.5L474.113 50.34L504.112 33.0193L445.5 -0.820717Z" stroke="#DFDFDF" stroke-opacity="0.7"/>
<path d="M386.887 -2.66L386.888 31.9808L445.5 -1.85924L445.5 -36.5L386.887 -2.66Z" stroke="#DFDFDF" stroke-opacity="0.7"/>
<path d="M445.5 -1.82L475.5 15.5V-52.18L445.5 -69.5V-1.82Z" stroke="#DFDFDF" stroke-opacity="0.7"/>
<path d="M533.5 51.1793L503.5 68.5L562.113 102.34L592.112 85.0193L533.5 51.1793Z" stroke="#DFDFDF" stroke-opacity="0.7"/>
<path d="M474.887 49.34L474.888 83.9808L533.5 50.1408L533.5 15.5L474.887 49.34Z" stroke="#DFDFDF" stroke-opacity="0.7"/>
<path d="M533.5 50.18L563.5 67.5V-0.18L533.5 -17.5V50.18Z" stroke="#DFDFDF" stroke-opacity="0.7"/>
<path d="M622.5 -0.820717L592.5 16.5L651.113 50.34L681.112 33.0193L622.5 -0.820717Z" stroke="#DFDFDF" stroke-opacity="0.7"/>
<path d="M563.887 -2.66L563.888 31.9808L622.5 -1.85924L622.5 -36.5L563.887 -2.66Z" stroke="#DFDFDF" stroke-opacity="0.7"/>
<path d="M622.5 -1.82L652.5 15.5V-52.18L622.5 -69.5V-1.82Z" stroke="#DFDFDF" stroke-opacity="0.7"/>
<path d="M710.5 51.1793L680.5 68.5L739.113 102.34L769.112 85.0193L710.5 51.1793Z" stroke="#DFDFDF" stroke-opacity="0.7"/>
<path d="M651.887 49.34L651.888 83.9808L710.5 50.1408L710.5 15.5L651.887 49.34Z" stroke="#DFDFDF" stroke-opacity="0.7"/>
<path d="M710.5 50.18L740.5 67.5V-0.18L710.5 -17.5V50.18Z" stroke="#DFDFDF" stroke-opacity="0.7"/>
<path d="M799.5 -0.820717L769.5 16.5L828.113 50.34L858.112 33.0193L799.5 -0.820717Z" stroke="#DFDFDF" stroke-opacity="0.7"/>
<path d="M740.887 -2.66L740.888 31.9808L799.5 -1.85924L799.5 -36.5L740.887 -2.66Z" stroke="#DFDFDF" stroke-opacity="0.7"/>
<path d="M799.5 -1.82L829.5 15.5V-52.18L799.5 -69.5V-1.82Z" stroke="#DFDFDF" stroke-opacity="0.7"/>
<path d="M887.5 51.1793L857.5 68.5L916.113 102.34L946.112 85.0193L887.5 51.1793Z" stroke="#DFDFDF" stroke-opacity="0.7"/>
<path d="M828.887 49.34L828.888 83.9808L887.5 50.1408L887.5 15.5L828.887 49.34Z" stroke="#DFDFDF" stroke-opacity="0.7"/>
<path d="M887.5 50.18L917.5 67.5V-0.18L887.5 -17.5V50.18Z" stroke="#DFDFDF" stroke-opacity="0.7"/>
<path d="M976.5 -0.820717L946.5 16.5L1005.11 50.34L1035.11 33.0193L976.5 -0.820717Z" stroke="#DFDFDF" stroke-opacity="0.7"/>
<path d="M917.887 -2.66L917.888 31.9808L976.5 -1.85924L976.5 -36.5L917.887 -2.66Z" stroke="#DFDFDF" stroke-opacity="0.7"/>
<path d="M976.5 -1.82L1006.5 15.5V-52.18L976.5 -69.5V-1.82Z" stroke="#DFDFDF" stroke-opacity="0.7"/>
<path d="M1064.5 51.1793L1034.5 68.5L1093.11 102.34L1123.11 85.0193L1064.5 51.1793Z" stroke="#DFDFDF" stroke-opacity="0.7"/>
<path d="M1005.89 49.34L1005.89 83.9808L1064.5 50.1408L1064.5 15.5L1005.89 49.34Z" stroke="#DFDFDF" stroke-opacity="0.7"/>
<path d="M1064.5 50.18L1094.5 67.5V-0.18L1064.5 -17.5V50.18Z" stroke="#DFDFDF" stroke-opacity="0.7"/>
<path d="M1153.5 -0.820717L1123.5 16.5L1182.11 50.34L1212.11 33.0193L1153.5 -0.820717Z" stroke="#DFDFDF" stroke-opacity="0.7"/>
<path d="M1094.89 -2.66L1094.89 31.9808L1153.5 -1.85924L1153.5 -36.5L1094.89 -2.66Z" stroke="#DFDFDF" stroke-opacity="0.7"/>
<path d="M1153.5 -1.82L1183.5 15.5V-52.18L1153.5 -69.5V-1.82Z" stroke="#DFDFDF" stroke-opacity="0.7"/>
<path d="M1241.5 51.1793L1211.5 68.5L1270.11 102.34L1300.11 85.0193L1241.5 51.1793Z" stroke="#DFDFDF" stroke-opacity="0.7"/>
<path d="M1182.89 49.34L1182.89 83.9808L1241.5 50.1408L1241.5 15.5L1182.89 49.34Z" stroke="#DFDFDF" stroke-opacity="0.7"/>
<path d="M1241.5 50.18L1271.5 67.5V-0.18L1241.5 -17.5V50.18Z" stroke="#DFDFDF" stroke-opacity="0.7"/>
<path d="M1330.5 -0.820717L1300.5 16.5L1359.11 50.34L1389.11 33.0193L1330.5 -0.820717Z" stroke="#DFDFDF" stroke-opacity="0.7"/>
<path d="M1271.89 -2.66L1271.89 31.9808L1330.5 -1.85924L1330.5 -36.5L1271.89 -2.66Z" stroke="#DFDFDF" stroke-opacity="0.7"/>
<path d="M1330.5 -1.82L1360.5 15.5V-52.18L1330.5 -69.5V-1.82Z" stroke="#DFDFDF" stroke-opacity="0.7"/>
<path d="M1418.5 51.1793L1388.5 68.5L1447.11 102.34L1477.11 85.0193L1418.5 51.1793Z" stroke="#DFDFDF" stroke-opacity="0.7"/>
<path d="M1359.89 49.34L1359.89 83.9808L1418.5 50.1408L1418.5 15.5L1359.89 49.34Z" stroke="#DFDFDF" stroke-opacity="0.7"/>
<path d="M2.49956 155.179L-27.5 172.5L31.1126 206.34L61.1122 189.019L2.49956 155.179Z" stroke="#DFDFDF" stroke-opacity="0.7"/>
<path d="M-56.1126 153.34L-56.1122 187.981L2.50044 154.141L2.5 119.5L-56.1126 153.34Z" stroke="#DFDFDF" stroke-opacity="0.7"/>
<path d="M2.5 154.18L32.5 171.5V103.82L2.5 86.5L2.5 154.18Z" stroke="#DFDFDF" stroke-opacity="0.7"/>
<path d="M91.4996 103.179L61.5 120.5L120.113 154.34L150.112 137.019L91.4996 103.179Z" stroke="#DFDFDF" stroke-opacity="0.7"/>
<path d="M32.8874 101.34L32.8878 135.981L91.5004 102.141L91.5 67.5L32.8874 101.34Z" stroke="#DFDFDF" stroke-opacity="0.7"/>
<path d="M91.5 102.18L121.5 119.5V51.82L91.5 34.5V102.18Z" stroke="#DFDFDF" stroke-opacity="0.7"/>
<path d="M179.5 155.179L149.5 172.5L208.113 206.34L238.112 189.019L179.5 155.179Z" stroke="#DFDFDF" stroke-opacity="0.7"/>
<path d="M120.887 153.34L120.888 187.981L179.5 154.141L179.5 119.5L120.887 153.34Z" stroke="#DFDFDF" stroke-opacity="0.7"/>
<path d="M179.5 154.18L209.5 171.5V103.82L179.5 86.5V154.18Z" stroke="#DFDFDF" stroke-opacity="0.7"/>
<path d="M268.5 103.179L238.5 120.5L297.113 154.34L327.112 137.019L268.5 103.179Z" stroke="#DFDFDF" stroke-opacity="0.7"/>
<path d="M209.887 101.34L209.888 135.981L268.5 102.141L268.5 67.5L209.887 101.34Z" stroke="#DFDFDF" stroke-opacity="0.7"/>
<path d="M268.5 102.18L298.5 119.5V51.82L268.5 34.5V102.18Z" stroke="#DFDFDF" stroke-opacity="0.7"/>
<path d="M356.5 155.179L326.5 172.5L385.113 206.34L415.112 189.019L356.5 155.179Z" stroke="#DFDFDF" stroke-opacity="0.7"/>
<path d="M297.887 153.34L297.888 187.981L356.5 154.141L356.5 119.5L297.887 153.34Z" stroke="#DFDFDF" stroke-opacity="0.7"/>
<path d="M356.5 154.18L386.5 171.5V103.82L356.5 86.5V154.18Z" stroke="#DFDFDF" stroke-opacity="0.7"/>
<path d="M445.5 103.179L415.5 120.5L474.113 154.34L504.112 137.019L445.5 103.179Z" stroke="#DFDFDF" stroke-opacity="0.7"/>
<path d="M386.887 101.34L386.888 135.981L445.5 102.141L445.5 67.5L386.887 101.34Z" stroke="#DFDFDF" stroke-opacity="0.7"/>
<path d="M445.5 102.18L475.5 119.5V51.82L445.5 34.5V102.18Z" stroke="#DFDFDF" stroke-opacity="0.7"/>
<path d="M533.5 155.179L503.5 172.5L562.113 206.34L592.112 189.019L533.5 155.179Z" stroke="#DFDFDF" stroke-opacity="0.7"/>
<path d="M474.887 153.34L474.888 187.981L533.5 154.141L533.5 119.5L474.887 153.34Z" stroke="#DFDFDF" stroke-opacity="0.7"/>
<path d="M533.5 154.18L563.5 171.5V103.82L533.5 86.5V154.18Z" stroke="#DFDFDF" stroke-opacity="0.7"/>
<path d="M622.5 103.179L592.5 120.5L651.113 154.34L681.112 137.019L622.5 103.179Z" stroke="#DFDFDF" stroke-opacity="0.7"/>
<path d="M563.887 101.34L563.888 135.981L622.5 102.141L622.5 67.5L563.887 101.34Z" stroke="#DFDFDF" stroke-opacity="0.7"/>
<path d="M622.5 102.18L652.5 119.5V51.82L622.5 34.5V102.18Z" stroke="#DFDFDF" stroke-opacity="0.7"/>
<path d="M710.5 155.179L680.5 172.5L739.113 206.34L769.112 189.019L710.5 155.179Z" stroke="#DFDFDF" stroke-opacity="0.7"/>
<path d="M651.887 153.34L651.888 187.981L710.5 154.141L710.5 119.5L651.887 153.34Z" stroke="#DFDFDF" stroke-opacity="0.7"/>
<path d="M710.5 154.18L740.5 171.5V103.82L710.5 86.5V154.18Z" stroke="#DFDFDF" stroke-opacity="0.7"/>
<path d="M799.5 103.179L769.5 120.5L828.113 154.34L858.112 137.019L799.5 103.179Z" stroke="#DFDFDF" stroke-opacity="0.7"/>
<path d="M740.887 101.34L740.888 135.981L799.5 102.141L799.5 67.5L740.887 101.34Z" stroke="#DFDFDF" stroke-opacity="0.7"/>
<path d="M799.5 102.18L829.5 119.5V51.82L799.5 34.5V102.18Z" stroke="#DFDFDF" stroke-opacity="0.7"/>
<path d="M887.5 155.179L857.5 172.5L916.113 206.34L946.112 189.019L887.5 155.179Z" stroke="#DFDFDF" stroke-opacity="0.7"/>
<path d="M828.887 153.34L828.888 187.981L887.5 154.141L887.5 119.5L828.887 153.34Z" stroke="#DFDFDF" stroke-opacity="0.7"/>
<path d="M887.5 154.18L917.5 171.5V103.82L887.5 86.5V154.18Z" stroke="#DFDFDF" stroke-opacity="0.7"/>
<path d="M976.5 103.179L946.5 120.5L1005.11 154.34L1035.11 137.019L976.5 103.179Z" stroke="#DFDFDF" stroke-opacity="0.7"/>
<path d="M917.887 101.34L917.888 135.981L976.5 102.141L976.5 67.5L917.887 101.34Z" stroke="#DFDFDF" stroke-opacity="0.7"/>
<path d="M976.5 102.18L1006.5 119.5V51.82L976.5 34.5V102.18Z" stroke="#DFDFDF" stroke-opacity="0.7"/>
<path d="M1064.5 155.179L1034.5 172.5L1093.11 206.34L1123.11 189.019L1064.5 155.179Z" stroke="#DFDFDF" stroke-opacity="0.7"/>
<path d="M1005.89 153.34L1005.89 187.981L1064.5 154.141L1064.5 119.5L1005.89 153.34Z" stroke="#DFDFDF" stroke-opacity="0.7"/>
<path d="M1064.5 154.18L1094.5 171.5V103.82L1064.5 86.5V154.18Z" stroke="#DFDFDF" stroke-opacity="0.7"/>
<path d="M1153.5 103.179L1123.5 120.5L1182.11 154.34L1212.11 137.019L1153.5 103.179Z" stroke="#DFDFDF" stroke-opacity="0.7"/>
<path d="M1094.89 101.34L1094.89 135.981L1153.5 102.141L1153.5 67.5L1094.89 101.34Z" stroke="#DFDFDF" stroke-opacity="0.7"/>
<path d="M1153.5 102.18L1183.5 119.5V51.82L1153.5 34.5V102.18Z" stroke="#DFDFDF" stroke-opacity="0.7"/>
<path d="M1241.5 155.179L1211.5 172.5L1270.11 206.34L1300.11 189.019L1241.5 155.179Z" stroke="#DFDFDF" stroke-opacity="0.7"/>
<path d="M1182.89 153.34L1182.89 187.981L1241.5 154.141L1241.5 119.5L1182.89 153.34Z" stroke="#DFDFDF" stroke-opacity="0.7"/>
<path d="M1241.5 154.18L1271.5 171.5V103.82L1241.5 86.5V154.18Z" stroke="#DFDFDF" stroke-opacity="0.7"/>
<path d="M1330.5 103.179L1300.5 120.5L1359.11 154.34L1389.11 137.019L1330.5 103.179Z" stroke="#DFDFDF" stroke-opacity="0.7"/>
<path d="M1271.89 101.34L1271.89 135.981L1330.5 102.141L1330.5 67.5L1271.89 101.34Z" stroke="#DFDFDF" stroke-opacity="0.7"/>
<path d="M1330.5 102.18L1360.5 119.5V51.82L1330.5 34.5V102.18Z" stroke="#DFDFDF" stroke-opacity="0.7"/>
<path d="M1418.5 155.179L1388.5 172.5L1447.11 206.34L1477.11 189.019L1418.5 155.179Z" stroke="#DFDFDF" stroke-opacity="0.7"/>
<path d="M1359.89 153.34L1359.89 187.981L1418.5 154.141L1418.5 119.5L1359.89 153.34Z" stroke="#DFDFDF" stroke-opacity="0.7"/>
<path d="M2.49956 259.179L-27.5 276.5L31.1126 310.34L61.1122 293.019L2.49956 259.179Z" stroke="#DFDFDF" stroke-opacity="0.7"/>
<path d="M-56.1126 257.34L-56.1122 291.981L2.50044 258.141L2.5 223.5L-56.1126 257.34Z" stroke="#DFDFDF" stroke-opacity="0.7"/>
<path d="M2.5 258.18L32.5 275.5V207.82L2.5 190.5L2.5 258.18Z" stroke="#DFDFDF" stroke-opacity="0.7"/>
<path d="M91.4996 207.179L61.5 224.5L120.113 258.34L150.112 241.019L91.4996 207.179Z" stroke="#DFDFDF" stroke-opacity="0.7"/>
<path d="M32.8874 205.34L32.8878 239.981L91.5004 206.141L91.5 171.5L32.8874 205.34Z" stroke="#DFDFDF" stroke-opacity="0.7"/>
<path d="M91.5 206.18L121.5 223.5V155.82L91.5 138.5V206.18Z" stroke="#DFDFDF" stroke-opacity="0.7"/>
<path d="M179.5 259.179L149.5 276.5L208.113 310.34L238.112 293.019L179.5 259.179Z" stroke="#DFDFDF" stroke-opacity="0.7"/>
<path d="M120.887 257.34L120.888 291.981L179.5 258.141L179.5 223.5L120.887 257.34Z" stroke="#DFDFDF" stroke-opacity="0.7"/>
<path d="M179.5 258.18L209.5 275.5V207.82L179.5 190.5V258.18Z" stroke="#DFDFDF" stroke-opacity="0.7"/>
<path d="M268.5 207.179L238.5 224.5L297.113 258.34L327.112 241.019L268.5 207.179Z" stroke="#DFDFDF" stroke-opacity="0.7"/>
<path d="M209.887 205.34L209.888 239.981L268.5 206.141L268.5 171.5L209.887 205.34Z" stroke="#DFDFDF" stroke-opacity="0.7"/>
<path d="M268.5 206.18L298.5 223.5V155.82L268.5 138.5V206.18Z" stroke="#DFDFDF" stroke-opacity="0.7"/>
<path d="M356.5 259.179L326.5 276.5L385.113 310.34L415.112 293.019L356.5 259.179Z" stroke="#DFDFDF" stroke-opacity="0.7"/>
<path d="M297.887 257.34L297.888 291.981L356.5 258.141L356.5 223.5L297.887 257.34Z" stroke="#DFDFDF" stroke-opacity="0.7"/>
<path d="M356.5 258.18L386.5 275.5V207.82L356.5 190.5V258.18Z" stroke="#DFDFDF" stroke-opacity="0.7"/>
<path d="M445.5 207.179L415.5 224.5L474.113 258.34L504.112 241.019L445.5 207.179Z" stroke="#DFDFDF" stroke-opacity="0.7"/>
<path d="M386.887 205.34L386.888 239.981L445.5 206.141L445.5 171.5L386.887 205.34Z" stroke="#DFDFDF" stroke-opacity="0.7"/>
<path d="M445.5 206.18L475.5 223.5V155.82L445.5 138.5V206.18Z" stroke="#DFDFDF" stroke-opacity="0.7"/>
<path d="M533.5 259.179L503.5 276.5L562.113 310.34L592.112 293.019L533.5 259.179Z" stroke="#DFDFDF" stroke-opacity="0.7"/>
<path d="M474.887 257.34L474.888 291.981L533.5 258.141L533.5 223.5L474.887 257.34Z" stroke="#DFDFDF" stroke-opacity="0.7"/>
<path d="M533.5 258.18L563.5 275.5V207.82L533.5 190.5V258.18Z" stroke="#DFDFDF" stroke-opacity="0.7"/>
<path d="M622.5 207.179L592.5 224.5L651.113 258.34L681.112 241.019L622.5 207.179Z" stroke="#DFDFDF" stroke-opacity="0.7"/>
<path d="M563.887 205.34L563.888 239.981L622.5 206.141L622.5 171.5L563.887 205.34Z" stroke="#DFDFDF" stroke-opacity="0.7"/>
<path d="M622.5 206.18L652.5 223.5V155.82L622.5 138.5V206.18Z" stroke="#DFDFDF" stroke-opacity="0.7"/>
<path d="M710.5 259.179L680.5 276.5L739.113 310.34L769.112 293.019L710.5 259.179Z" stroke="#DFDFDF" stroke-opacity="0.7"/>
<path d="M651.887 257.34L651.888 291.981L710.5 258.141L710.5 223.5L651.887 257.34Z" stroke="#DFDFDF" stroke-opacity="0.7"/>
<path d="M710.5 258.18L740.5 275.5V207.82L710.5 190.5V258.18Z" stroke="#DFDFDF" stroke-opacity="0.7"/>
<path d="M799.5 207.179L769.5 224.5L828.113 258.34L858.112 241.019L799.5 207.179Z" stroke="#DFDFDF" stroke-opacity="0.7"/>
<path d="M740.887 205.34L740.888 239.981L799.5 206.141L799.5 171.5L740.887 205.34Z" stroke="#DFDFDF" stroke-opacity="0.7"/>
<path d="M799.5 206.18L829.5 223.5V155.82L799.5 138.5V206.18Z" stroke="#DFDFDF" stroke-opacity="0.7"/>
<path d="M887.5 259.179L857.5 276.5L916.113 310.34L946.112 293.019L887.5 259.179Z" stroke="#DFDFDF" stroke-opacity="0.7"/>
<path d="M828.887 257.34L828.888 291.981L887.5 258.141L887.5 223.5L828.887 257.34Z" stroke="#DFDFDF" stroke-opacity="0.7"/>
<path d="M887.5 258.18L917.5 275.5V207.82L887.5 190.5V258.18Z" stroke="#DFDFDF" stroke-opacity="0.7"/>
<path d="M976.5 207.179L946.5 224.5L1005.11 258.34L1035.11 241.019L976.5 207.179Z" stroke="#DFDFDF" stroke-opacity="0.7"/>
<path d="M917.887 205.34L917.888 239.981L976.5 206.141L976.5 171.5L917.887 205.34Z" stroke="#DFDFDF" stroke-opacity="0.7"/>
<path d="M976.5 206.18L1006.5 223.5V155.82L976.5 138.5V206.18Z" stroke="#DFDFDF" stroke-opacity="0.7"/>
<path d="M1064.5 259.179L1034.5 276.5L1093.11 310.34L1123.11 293.019L1064.5 259.179Z" stroke="#DFDFDF" stroke-opacity="0.7"/>
<path d="M1005.89 257.34L1005.89 291.981L1064.5 258.141L1064.5 223.5L1005.89 257.34Z" stroke="#DFDFDF" stroke-opacity="0.7"/>
<path d="M1064.5 258.18L1094.5 275.5V207.82L1064.5 190.5V258.18Z" stroke="#DFDFDF" stroke-opacity="0.7"/>
<path d="M1153.5 207.179L1123.5 224.5L1182.11 258.34L1212.11 241.019L1153.5 207.179Z" stroke="#DFDFDF" stroke-opacity="0.7"/>
<path d="M1094.89 205.34L1094.89 239.981L1153.5 206.141L1153.5 171.5L1094.89 205.34Z" stroke="#DFDFDF" stroke-opacity="0.7"/>
<path d="M1153.5 206.18L1183.5 223.5V155.82L1153.5 138.5V206.18Z" stroke="#DFDFDF" stroke-opacity="0.7"/>
<path d="M1241.5 259.179L1211.5 276.5L1270.11 310.34L1300.11 293.019L1241.5 259.179Z" stroke="#DFDFDF" stroke-opacity="0.7"/>
<path d="M1182.89 257.34L1182.89 291.981L1241.5 258.141L1241.5 223.5L1182.89 257.34Z" stroke="#DFDFDF" stroke-opacity="0.7"/>
<path d="M1241.5 258.18L1271.5 275.5V207.82L1241.5 190.5V258.18Z" stroke="#DFDFDF" stroke-opacity="0.7"/>
<path d="M1330.5 207.179L1300.5 224.5L1359.11 258.34L1389.11 241.019L1330.5 207.179Z" stroke="#DFDFDF" stroke-opacity="0.7"/>
<path d="M1271.89 205.34L1271.89 239.981L1330.5 206.141L1330.5 171.5L1271.89 205.34Z" stroke="#DFDFDF" stroke-opacity="0.7"/>
<path d="M1330.5 206.18L1360.5 223.5V155.82L1330.5 138.5V206.18Z" stroke="#DFDFDF" stroke-opacity="0.7"/>
<path d="M1418.5 259.179L1388.5 276.5L1447.11 310.34L1477.11 293.019L1418.5 259.179Z" stroke="#DFDFDF" stroke-opacity="0.7"/>
<path d="M1359.89 257.34L1359.89 291.981L1418.5 258.141L1418.5 223.5L1359.89 257.34Z" stroke="#DFDFDF" stroke-opacity="0.7"/>
<path d="M2.49956 363.179L-27.5 380.5L31.1126 414.34L61.1122 397.019L2.49956 363.179Z" stroke="#DFDFDF" stroke-opacity="0.7"/>
<path d="M-56.1126 361.34L-56.1122 395.981L2.50044 362.141L2.5 327.5L-56.1126 361.34Z" stroke="#DFDFDF" stroke-opacity="0.7"/>
<path d="M2.5 362.18L32.5 379.5V311.82L2.5 294.5L2.5 362.18Z" stroke="#DFDFDF" stroke-opacity="0.7"/>
<path d="M91.4996 311.179L61.5 328.5L120.113 362.34L150.112 345.019L91.4996 311.179Z" stroke="#DFDFDF" stroke-opacity="0.7"/>
<path d="M32.8874 309.34L32.8878 343.981L91.5004 310.141L91.5 275.5L32.8874 309.34Z" stroke="#DFDFDF" stroke-opacity="0.7"/>
<path d="M91.5 310.18L121.5 327.5V259.82L91.5 242.5V310.18Z" stroke="#DFDFDF" stroke-opacity="0.7"/>
<path d="M179.5 363.179L149.5 380.5L208.113 414.34L238.112 397.019L179.5 363.179Z" stroke="#DFDFDF" stroke-opacity="0.7"/>
<path d="M120.887 361.34L120.888 395.981L179.5 362.141L179.5 327.5L120.887 361.34Z" stroke="#DFDFDF" stroke-opacity="0.7"/>
<path d="M179.5 362.18L209.5 379.5V311.82L179.5 294.5V362.18Z" stroke="#DFDFDF" stroke-opacity="0.7"/>
<path d="M268.5 311.179L238.5 328.5L297.113 362.34L327.112 345.019L268.5 311.179Z" stroke="#DFDFDF" stroke-opacity="0.7"/>
<path d="M209.887 309.34L209.888 343.981L268.5 310.141L268.5 275.5L209.887 309.34Z" stroke="#DFDFDF" stroke-opacity="0.7"/>
<path d="M268.5 310.18L298.5 327.5V259.82L268.5 242.5V310.18Z" stroke="#DFDFDF" stroke-opacity="0.7"/>
<path d="M356.5 363.179L326.5 380.5L385.113 414.34L415.112 397.019L356.5 363.179Z" stroke="#DFDFDF" stroke-opacity="0.7"/>
<path d="M297.887 361.34L297.888 395.981L356.5 362.141L356.5 327.5L297.887 361.34Z" stroke="#DFDFDF" stroke-opacity="0.7"/>
<path d="M356.5 362.18L386.5 379.5V311.82L356.5 294.5V362.18Z" stroke="#DFDFDF" stroke-opacity="0.7"/>
<path d="M445.5 311.179L415.5 328.5L474.113 362.34L504.112 345.019L445.5 311.179Z" stroke="#DFDFDF" stroke-opacity="0.7"/>
<path d="M386.887 309.34L386.888 343.981L445.5 310.141L445.5 275.5L386.887 309.34Z" stroke="#DFDFDF" stroke-opacity="0.7"/>
<path d="M445.5 310.18L475.5 327.5V259.82L445.5 242.5V310.18Z" stroke="#DFDFDF" stroke-opacity="0.7"/>
<path d="M533.5 363.179L503.5 380.5L562.113 414.34L592.112 397.019L533.5 363.179Z" stroke="#DFDFDF" stroke-opacity="0.7"/>
<path d="M474.887 361.34L474.888 395.981L533.5 362.141L533.5 327.5L474.887 361.34Z" stroke="#DFDFDF" stroke-opacity="0.7"/>
<path d="M533.5 362.18L563.5 379.5V311.82L533.5 294.5V362.18Z" stroke="#DFDFDF" stroke-opacity="0.7"/>
<path d="M622.5 311.179L592.5 328.5L651.113 362.34L681.112 345.019L622.5 311.179Z" stroke="#DFDFDF" stroke-opacity="0.7"/>
<path d="M563.887 309.34L563.888 343.981L622.5 310.141L622.5 275.5L563.887 309.34Z" stroke="#DFDFDF" stroke-opacity="0.7"/>
<path d="M622.5 310.18L652.5 327.5V259.82L622.5 242.5V310.18Z" stroke="#DFDFDF" stroke-opacity="0.7"/>
<path d="M710.5 363.179L680.5 380.5L739.113 414.34L769.112 397.019L710.5 363.179Z" stroke="#DFDFDF" stroke-opacity="0.7"/>
<path d="M651.887 361.34L651.888 395.981L710.5 362.141L710.5 327.5L651.887 361.34Z" stroke="#DFDFDF" stroke-opacity="0.7"/>
<path d="M710.5 362.18L740.5 379.5V311.82L710.5 294.5V362.18Z" stroke="#DFDFDF" stroke-opacity="0.7"/>
<path d="M799.5 311.179L769.5 328.5L828.113 362.34L858.112 345.019L799.5 311.179Z" stroke="#DFDFDF" stroke-opacity="0.7"/>
<path d="M740.887 309.34L740.888 343.981L799.5 310.141L799.5 275.5L740.887 309.34Z" stroke="#DFDFDF" stroke-opacity="0.7"/>
<path d="M799.5 310.18L829.5 327.5V259.82L799.5 242.5V310.18Z" stroke="#DFDFDF" stroke-opacity="0.7"/>
<path d="M887.5 363.179L857.5 380.5L916.113 414.34L946.112 397.019L887.5 363.179Z" stroke="#DFDFDF" stroke-opacity="0.7"/>
<path d="M828.887 361.34L828.888 395.981L887.5 362.141L887.5 327.5L828.887 361.34Z" stroke="#DFDFDF" stroke-opacity="0.7"/>
<path d="M887.5 362.18L917.5 379.5V311.82L887.5 294.5V362.18Z" stroke="#DFDFDF" stroke-opacity="0.7"/>
<path d="M976.5 311.179L946.5 328.5L1005.11 362.34L1035.11 345.019L976.5 311.179Z" stroke="#DFDFDF" stroke-opacity="0.7"/>
<path d="M917.887 309.34L917.888 343.981L976.5 310.141L976.5 275.5L917.887 309.34Z" stroke="#DFDFDF" stroke-opacity="0.7"/>
<path d="M976.5 310.18L1006.5 327.5V259.82L976.5 242.5V310.18Z" stroke="#DFDFDF" stroke-opacity="0.7"/>
<path d="M1064.5 363.179L1034.5 380.5L1093.11 414.34L1123.11 397.019L1064.5 363.179Z" stroke="#DFDFDF" stroke-opacity="0.7"/>
<path d="M1005.89 361.34L1005.89 395.981L1064.5 362.141L1064.5 327.5L1005.89 361.34Z" stroke="#DFDFDF" stroke-opacity="0.7"/>
<path d="M1064.5 362.18L1094.5 379.5V311.82L1064.5 294.5V362.18Z" stroke="#DFDFDF" stroke-opacity="0.7"/>
<path d="M1153.5 311.179L1123.5 328.5L1182.11 362.34L1212.11 345.019L1153.5 311.179Z" stroke="#DFDFDF" stroke-opacity="0.7"/>
<path d="M1094.89 309.34L1094.89 343.981L1153.5 310.141L1153.5 275.5L1094.89 309.34Z" stroke="#DFDFDF" stroke-opacity="0.7"/>
<path d="M1153.5 310.18L1183.5 327.5V259.82L1153.5 242.5V310.18Z" stroke="#DFDFDF" stroke-opacity="0.7"/>
<path d="M1241.5 363.179L1211.5 380.5L1270.11 414.34L1300.11 397.019L1241.5 363.179Z" stroke="#DFDFDF" stroke-opacity="0.7"/>
<path d="M1182.89 361.34L1182.89 395.981L1241.5 362.141L1241.5 327.5L1182.89 361.34Z" stroke="#DFDFDF" stroke-opacity="0.7"/>
<path d="M1241.5 362.18L1271.5 379.5V311.82L1241.5 294.5V362.18Z" stroke="#DFDFDF" stroke-opacity="0.7"/>
<path d="M1330.5 311.179L1300.5 328.5L1359.11 362.34L1389.11 345.019L1330.5 311.179Z" stroke="#DFDFDF" stroke-opacity="0.7"/>
<path d="M1271.89 309.34L1271.89 343.981L1330.5 310.141L1330.5 275.5L1271.89 309.34Z" stroke="#DFDFDF" stroke-opacity="0.7"/>
<path d="M1330.5 310.18L1360.5 327.5V259.82L1330.5 242.5V310.18Z" stroke="#DFDFDF" stroke-opacity="0.7"/>
<path d="M1418.5 363.179L1388.5 380.5L1447.11 414.34L1477.11 397.019L1418.5 363.179Z" stroke="#DFDFDF" stroke-opacity="0.7"/>
<path d="M1359.89 361.34L1359.89 395.981L1418.5 362.141L1418.5 327.5L1359.89 361.34Z" stroke="#DFDFDF" stroke-opacity="0.7"/>
<path d="M2.49956 467.179L-27.5 484.5L31.1126 518.34L61.1122 501.019L2.49956 467.179Z" stroke="#DFDFDF" stroke-opacity="0.7"/>
<path d="M-56.1126 465.34L-56.1122 499.981L2.50044 466.141L2.5 431.5L-56.1126 465.34Z" stroke="#DFDFDF" stroke-opacity="0.7"/>
<path d="M2.5 466.18L32.5 483.5V415.82L2.5 398.5L2.5 466.18Z" stroke="#DFDFDF" stroke-opacity="0.7"/>
<path d="M91.4996 415.179L61.5 432.5L120.113 466.34L150.112 449.019L91.4996 415.179Z" stroke="#DFDFDF" stroke-opacity="0.7"/>
<path d="M32.8874 413.34L32.8878 447.981L91.5004 414.141L91.5 379.5L32.8874 413.34Z" stroke="#DFDFDF" stroke-opacity="0.7"/>
<path d="M91.5 414.18L121.5 431.5V363.82L91.5 346.5V414.18Z" stroke="#DFDFDF" stroke-opacity="0.7"/>
<path d="M179.5 467.179L149.5 484.5L208.113 518.34L238.112 501.019L179.5 467.179Z" stroke="#DFDFDF" stroke-opacity="0.7"/>
<path d="M120.887 465.34L120.888 499.981L179.5 466.141L179.5 431.5L120.887 465.34Z" stroke="#DFDFDF" stroke-opacity="0.7"/>
<path d="M179.5 466.18L209.5 483.5V415.82L179.5 398.5V466.18Z" stroke="#DFDFDF" stroke-opacity="0.7"/>
<path d="M268.5 415.179L238.5 432.5L297.113 466.34L327.112 449.019L268.5 415.179Z" stroke="#DFDFDF" stroke-opacity="0.7"/>
<path d="M209.887 413.34L209.888 447.981L268.5 414.141L268.5 379.5L209.887 413.34Z" stroke="#DFDFDF" stroke-opacity="0.7"/>
<path d="M268.5 414.18L298.5 431.5V363.82L268.5 346.5V414.18Z" stroke="#DFDFDF" stroke-opacity="0.7"/>
<path d="M356.5 467.179L326.5 484.5L385.113 518.34L415.112 501.019L356.5 467.179Z" stroke="#DFDFDF" stroke-opacity="0.7"/>
<path d="M297.887 465.34L297.888 499.981L356.5 466.141L356.5 431.5L297.887 465.34Z" stroke="#DFDFDF" stroke-opacity="0.7"/>
<path d="M356.5 466.18L386.5 483.5V415.82L356.5 398.5V466.18Z" stroke="#DFDFDF" stroke-opacity="0.7"/>
<path d="M445.5 415.179L415.5 432.5L474.113 466.34L504.112 449.019L445.5 415.179Z" stroke="#DFDFDF" stroke-opacity="0.7"/>
<path d="M386.887 413.34L386.888 447.981L445.5 414.141L445.5 379.5L386.887 413.34Z" stroke="#DFDFDF" stroke-opacity="0.7"/>
<path d="M445.5 414.18L475.5 431.5V363.82L445.5 346.5V414.18Z" stroke="#DFDFDF" stroke-opacity="0.7"/>
<path d="M533.5 467.179L503.5 484.5L562.113 518.34L592.112 501.019L533.5 467.179Z" stroke="#DFDFDF" stroke-opacity="0.7"/>
<path d="M474.887 465.34L474.888 499.981L533.5 466.141L533.5 431.5L474.887 465.34Z" stroke="#DFDFDF" stroke-opacity="0.7"/>
<path d="M533.5 466.18L563.5 483.5V415.82L533.5 398.5V466.18Z" stroke="#DFDFDF" stroke-opacity="0.7"/>
<path d="M622.5 415.179L592.5 432.5L651.113 466.34L681.112 449.019L622.5 415.179Z" stroke="#DFDFDF" stroke-opacity="0.7"/>
<path d="M563.887 413.34L563.888 447.981L622.5 414.141L622.5 379.5L563.887 413.34Z" stroke="#DFDFDF" stroke-opacity="0.7"/>
<path d="M622.5 414.18L652.5 431.5V363.82L622.5 346.5V414.18Z" stroke="#DFDFDF" stroke-opacity="0.7"/>
<path d="M710.5 467.179L680.5 484.5L739.113 518.34L769.112 501.019L710.5 467.179Z" stroke="#DFDFDF" stroke-opacity="0.7"/>
<path d="M651.887 465.34L651.888 499.981L710.5 466.141L710.5 431.5L651.887 465.34Z" stroke="#DFDFDF" stroke-opacity="0.7"/>
<path d="M710.5 466.18L740.5 483.5V415.82L710.5 398.5V466.18Z" stroke="#DFDFDF" stroke-opacity="0.7"/>
<path d="M799.5 415.179L769.5 432.5L828.113 466.34L858.112 449.019L799.5 415.179Z" stroke="#DFDFDF" stroke-opacity="0.7"/>
<path d="M740.887 413.34L740.888 447.981L799.5 414.141L799.5 379.5L740.887 413.34Z" stroke="#DFDFDF" stroke-opacity="0.7"/>
<path d="M799.5 414.18L829.5 431.5V363.82L799.5 346.5V414.18Z" stroke="#DFDFDF" stroke-opacity="0.7"/>
<path d="M887.5 467.179L857.5 484.5L916.113 518.34L946.112 501.019L887.5 467.179Z" stroke="#DFDFDF" stroke-opacity="0.7"/>
<path d="M828.887 465.34L828.888 499.981L887.5 466.141L887.5 431.5L828.887 465.34Z" stroke="#DFDFDF" stroke-opacity="0.7"/>
<path d="M887.5 466.18L917.5 483.5V415.82L887.5 398.5V466.18Z" stroke="#DFDFDF" stroke-opacity="0.7"/>
<path d="M976.5 415.179L946.5 432.5L1005.11 466.34L1035.11 449.019L976.5 415.179Z" stroke="#DFDFDF" stroke-opacity="0.7"/>
<path d="M917.887 413.34L917.888 447.981L976.5 414.141L976.5 379.5L917.887 413.34Z" stroke="#DFDFDF" stroke-opacity="0.7"/>
<path d="M976.5 414.18L1006.5 431.5V363.82L976.5 346.5V414.18Z" stroke="#DFDFDF" stroke-opacity="0.7"/>
<path d="M1064.5 467.179L1034.5 484.5L1093.11 518.34L1123.11 501.019L1064.5 467.179Z" stroke="#DFDFDF" stroke-opacity="0.7"/>
<path d="M1005.89 465.34L1005.89 499.981L1064.5 466.141L1064.5 431.5L1005.89 465.34Z" stroke="#DFDFDF" stroke-opacity="0.7"/>
<path d="M1064.5 466.18L1094.5 483.5V415.82L1064.5 398.5V466.18Z" stroke="#DFDFDF" stroke-opacity="0.7"/>
<path d="M1153.5 415.179L1123.5 432.5L1182.11 466.34L1212.11 449.019L1153.5 415.179Z" stroke="#DFDFDF" stroke-opacity="0.7"/>
<path d="M1094.89 413.34L1094.89 447.981L1153.5 414.141L1153.5 379.5L1094.89 413.34Z" stroke="#DFDFDF" stroke-opacity="0.7"/>
<path d="M1153.5 414.18L1183.5 431.5V363.82L1153.5 346.5V414.18Z" stroke="#DFDFDF" stroke-opacity="0.7"/>
<path d="M1241.5 467.179L1211.5 484.5L1270.11 518.34L1300.11 501.019L1241.5 467.179Z" stroke="#DFDFDF" stroke-opacity="0.7"/>
<path d="M1182.89 465.34L1182.89 499.981L1241.5 466.141L1241.5 431.5L1182.89 465.34Z" stroke="#DFDFDF" stroke-opacity="0.7"/>
<path d="M1241.5 466.18L1271.5 483.5V415.82L1241.5 398.5V466.18Z" stroke="#DFDFDF" stroke-opacity="0.7"/>
<path d="M1330.5 415.179L1300.5 432.5L1359.11 466.34L1389.11 449.019L1330.5 415.179Z" stroke="#DFDFDF" stroke-opacity="0.7"/>
<path d="M1271.89 413.34L1271.89 447.981L1330.5 414.141L1330.5 379.5L1271.89 413.34Z" stroke="#DFDFDF" stroke-opacity="0.7"/>
<path d="M1330.5 414.18L1360.5 431.5V363.82L1330.5 346.5V414.18Z" stroke="#DFDFDF" stroke-opacity="0.7"/>
<path d="M1418.5 467.179L1388.5 484.5L1447.11 518.34L1477.11 501.019L1418.5 467.179Z" stroke="#DFDFDF" stroke-opacity="0.7"/>
<path d="M1359.89 465.34L1359.89 499.981L1418.5 466.141L1418.5 431.5L1359.89 465.34Z" stroke="#DFDFDF" stroke-opacity="0.7"/>
<path d="M2.49956 571.179L-27.5 588.5L31.1126 622.34L61.1122 605.019L2.49956 571.179Z" stroke="#DFDFDF" stroke-opacity="0.7"/>
<path d="M-56.1126 569.34L-56.1122 603.981L2.50044 570.141L2.5 535.5L-56.1126 569.34Z" stroke="#DFDFDF" stroke-opacity="0.7"/>
<path d="M2.5 570.18L32.5 587.5V519.82L2.5 502.5L2.5 570.18Z" stroke="#DFDFDF" stroke-opacity="0.7"/>
<path d="M91.4996 519.179L61.5 536.5L120.113 570.34L150.112 553.019L91.4996 519.179Z" stroke="#DFDFDF" stroke-opacity="0.7"/>
<path d="M32.8874 517.34L32.8878 551.981L91.5004 518.141L91.5 483.5L32.8874 517.34Z" stroke="#DFDFDF" stroke-opacity="0.7"/>
<path d="M91.5 518.18L121.5 535.5V467.82L91.5 450.5V518.18Z" stroke="#DFDFDF" stroke-opacity="0.7"/>
<path d="M179.5 571.179L149.5 588.5L208.113 622.34L238.112 605.019L179.5 571.179Z" stroke="#DFDFDF" stroke-opacity="0.7"/>
<path d="M120.887 569.34L120.888 603.981L179.5 570.141L179.5 535.5L120.887 569.34Z" stroke="#DFDFDF" stroke-opacity="0.7"/>
<path d="M179.5 570.18L209.5 587.5V519.82L179.5 502.5V570.18Z" stroke="#DFDFDF" stroke-opacity="0.7"/>
<path d="M268.5 519.179L238.5 536.5L297.113 570.34L327.112 553.019L268.5 519.179Z" stroke="#DFDFDF" stroke-opacity="0.7"/>
<path d="M209.887 517.34L209.888 551.981L268.5 518.141L268.5 483.5L209.887 517.34Z" stroke="#DFDFDF" stroke-opacity="0.7"/>
<path d="M268.5 518.18L298.5 535.5V467.82L268.5 450.5V518.18Z" stroke="#DFDFDF" stroke-opacity="0.7"/>
<path d="M356.5 571.179L326.5 588.5L385.113 622.34L415.112 605.019L356.5 571.179Z" stroke="#DFDFDF" stroke-opacity="0.7"/>
<path d="M297.887 569.34L297.888 603.981L356.5 570.141L356.5 535.5L297.887 569.34Z" stroke="#DFDFDF" stroke-opacity="0.7"/>
<path d="M356.5 570.18L386.5 587.5V519.82L356.5 502.5V570.18Z" stroke="#DFDFDF" stroke-opacity="0.7"/>
<path d="M445.5 519.179L415.5 536.5L474.113 570.34L504.112 553.019L445.5 519.179Z" stroke="#DFDFDF" stroke-opacity="0.7"/>
<path d="M386.887 517.34L386.888 551.981L445.5 518.141L445.5 483.5L386.887 517.34Z" stroke="#DFDFDF" stroke-opacity="0.7"/>
<path d="M445.5 518.18L475.5 535.5V467.82L445.5 450.5V518.18Z" stroke="#DFDFDF" stroke-opacity="0.7"/>
<path d="M533.5 571.179L503.5 588.5L562.113 622.34L592.112 605.019L533.5 571.179Z" stroke="#DFDFDF" stroke-opacity="0.7"/>
<path d="M474.887 569.34L474.888 603.981L533.5 570.141L533.5 535.5L474.887 569.34Z" stroke="#DFDFDF" stroke-opacity="0.7"/>
<path d="M533.5 570.18L563.5 587.5V519.82L533.5 502.5V570.18Z" stroke="#DFDFDF" stroke-opacity="0.7"/>
<path d="M622.5 519.179L592.5 536.5L651.113 570.34L681.112 553.019L622.5 519.179Z" stroke="#DFDFDF" stroke-opacity="0.7"/>
<path d="M563.887 517.34L563.888 551.981L622.5 518.141L622.5 483.5L563.887 517.34Z" stroke="#DFDFDF" stroke-opacity="0.7"/>
<path d="M622.5 518.18L652.5 535.5V467.82L622.5 450.5V518.18Z" stroke="#DFDFDF" stroke-opacity="0.7"/>
<path d="M710.5 571.179L680.5 588.5L739.113 622.34L769.112 605.019L710.5 571.179Z" stroke="#DFDFDF" stroke-opacity="0.7"/>
<path d="M651.887 569.34L651.888 603.981L710.5 570.141L710.5 535.5L651.887 569.34Z" stroke="#DFDFDF" stroke-opacity="0.7"/>
<path d="M710.5 570.18L740.5 587.5V519.82L710.5 502.5V570.18Z" stroke="#DFDFDF" stroke-opacity="0.7"/>
<path d="M799.5 519.179L769.5 536.5L828.113 570.34L858.112 553.019L799.5 519.179Z" stroke="#DFDFDF" stroke-opacity="0.7"/>
<path d="M740.887 517.34L740.888 551.981L799.5 518.141L799.5 483.5L740.887 517.34Z" stroke="#DFDFDF" stroke-opacity="0.7"/>
<path d="M799.5 518.18L829.5 535.5V467.82L799.5 450.5V518.18Z" stroke="#DFDFDF" stroke-opacity="0.7"/>
<path d="M887.5 571.179L857.5 588.5L916.113 622.34L946.112 605.019L887.5 571.179Z" stroke="#DFDFDF" stroke-opacity="0.7"/>
<path d="M828.887 569.34L828.888 603.981L887.5 570.141L887.5 535.5L828.887 569.34Z" stroke="#DFDFDF" stroke-opacity="0.7"/>
<path d="M887.5 570.18L917.5 587.5V519.82L887.5 502.5V570.18Z" stroke="#DFDFDF" stroke-opacity="0.7"/>
<path d="M976.5 519.179L946.5 536.5L1005.11 570.34L1035.11 553.019L976.5 519.179Z" stroke="#DFDFDF" stroke-opacity="0.7"/>
<path d="M917.887 517.34L917.888 551.981L976.5 518.141L976.5 483.5L917.887 517.34Z" stroke="#DFDFDF" stroke-opacity="0.7"/>
<path d="M976.5 518.18L1006.5 535.5V467.82L976.5 450.5V518.18Z" stroke="#DFDFDF" stroke-opacity="0.7"/>
<path d="M1064.5 571.179L1034.5 588.5L1093.11 622.34L1123.11 605.019L1064.5 571.179Z" stroke="#DFDFDF" stroke-opacity="0.7"/>
<path d="M1005.89 569.34L1005.89 603.981L1064.5 570.141L1064.5 535.5L1005.89 569.34Z" stroke="#DFDFDF" stroke-opacity="0.7"/>
<path d="M1064.5 570.18L1094.5 587.5V519.82L1064.5 502.5V570.18Z" stroke="#DFDFDF" stroke-opacity="0.7"/>
<path d="M1153.5 519.179L1123.5 536.5L1182.11 570.34L1212.11 553.019L1153.5 519.179Z" stroke="#DFDFDF" stroke-opacity="0.7"/>
<path d="M1094.89 517.34L1094.89 551.981L1153.5 518.141L1153.5 483.5L1094.89 517.34Z" stroke="#DFDFDF" stroke-opacity="0.7"/>
<path d="M1153.5 518.18L1183.5 535.5V467.82L1153.5 450.5V518.18Z" stroke="#DFDFDF" stroke-opacity="0.7"/>
<path d="M1241.5 571.179L1211.5 588.5L1270.11 622.34L1300.11 605.019L1241.5 571.179Z" stroke="#DFDFDF" stroke-opacity="0.7"/>
<path d="M1182.89 569.34L1182.89 603.981L1241.5 570.141L1241.5 535.5L1182.89 569.34Z" stroke="#DFDFDF" stroke-opacity="0.7"/>
<path d="M1241.5 570.18L1271.5 587.5V519.82L1241.5 502.5V570.18Z" stroke="#DFDFDF" stroke-opacity="0.7"/>
<path d="M1330.5 519.179L1300.5 536.5L1359.11 570.34L1389.11 553.019L1330.5 519.179Z" stroke="#DFDFDF" stroke-opacity="0.7"/>
<path d="M1271.89 517.34L1271.89 551.981L1330.5 518.141L1330.5 483.5L1271.89 517.34Z" stroke="#DFDFDF" stroke-opacity="0.7"/>
<path d="M1330.5 518.18L1360.5 535.5V467.82L1330.5 450.5V518.18Z" stroke="#DFDFDF" stroke-opacity="0.7"/>
<path d="M1418.5 571.179L1388.5 588.5L1447.11 622.34L1477.11 605.019L1418.5 571.179Z" stroke="#DFDFDF" stroke-opacity="0.7"/>
<path d="M1359.89 569.34L1359.89 603.981L1418.5 570.141L1418.5 535.5L1359.89 569.34Z" stroke="#DFDFDF" stroke-opacity="0.7"/>
<path d="M2.49956 675.179L-27.5 692.5L31.1126 726.34L61.1122 709.019L2.49956 675.179Z" stroke="#DFDFDF" stroke-opacity="0.7"/>
<path d="M-56.1126 673.34L-56.1122 707.981L2.50044 674.141L2.5 639.5L-56.1126 673.34Z" stroke="#DFDFDF" stroke-opacity="0.7"/>
<path d="M2.5 674.18L32.5 691.5V623.82L2.5 606.5L2.5 674.18Z" stroke="#DFDFDF" stroke-opacity="0.7"/>
<path d="M91.4996 623.179L61.5 640.5L120.113 674.34L150.112 657.019L91.4996 623.179Z" stroke="#DFDFDF" stroke-opacity="0.7"/>
<path d="M32.8874 621.34L32.8878 655.981L91.5004 622.141L91.5 587.5L32.8874 621.34Z" stroke="#DFDFDF" stroke-opacity="0.7"/>
<path d="M91.5 622.18L121.5 639.5V571.82L91.5 554.5V622.18Z" stroke="#DFDFDF" stroke-opacity="0.7"/>
<path d="M179.5 675.179L149.5 692.5L208.113 726.34L238.112 709.019L179.5 675.179Z" stroke="#DFDFDF" stroke-opacity="0.7"/>
<path d="M120.887 673.34L120.888 707.981L179.5 674.141L179.5 639.5L120.887 673.34Z" stroke="#DFDFDF" stroke-opacity="0.7"/>
<path d="M179.5 674.18L209.5 691.5V623.82L179.5 606.5V674.18Z" stroke="#DFDFDF" stroke-opacity="0.7"/>
<path d="M268.5 623.179L238.5 640.5L297.113 674.34L327.112 657.019L268.5 623.179Z" stroke="#DFDFDF" stroke-opacity="0.7"/>
<path d="M209.887 621.34L209.888 655.981L268.5 622.141L268.5 587.5L209.887 621.34Z" stroke="#DFDFDF" stroke-opacity="0.7"/>
<path d="M268.5 622.18L298.5 639.5V571.82L268.5 554.5V622.18Z" stroke="#DFDFDF" stroke-opacity="0.7"/>
<path d="M356.5 675.179L326.5 692.5L385.113 726.34L415.112 709.019L356.5 675.179Z" stroke="#DFDFDF" stroke-opacity="0.7"/>
<path d="M297.887 673.34L297.888 707.981L356.5 674.141L356.5 639.5L297.887 673.34Z" stroke="#DFDFDF" stroke-opacity="0.7"/>
<path d="M356.5 674.18L386.5 691.5V623.82L356.5 606.5V674.18Z" stroke="#DFDFDF" stroke-opacity="0.7"/>
<path d="M445.5 623.179L415.5 640.5L474.113 674.34L504.112 657.019L445.5 623.179Z" stroke="#DFDFDF" stroke-opacity="0.7"/>
<path d="M386.887 621.34L386.888 655.981L445.5 622.141L445.5 587.5L386.887 621.34Z" stroke="#DFDFDF" stroke-opacity="0.7"/>
<path d="M445.5 622.18L475.5 639.5V571.82L445.5 554.5V622.18Z" stroke="#DFDFDF" stroke-opacity="0.7"/>
<path d="M533.5 675.179L503.5 692.5L562.113 726.34L592.112 709.019L533.5 675.179Z" stroke="#DFDFDF" stroke-opacity="0.7"/>
<path d="M474.887 673.34L474.888 707.981L533.5 674.141L533.5 639.5L474.887 673.34Z" stroke="#DFDFDF" stroke-opacity="0.7"/>
<path d="M533.5 674.18L563.5 691.5V623.82L533.5 606.5V674.18Z" stroke="#DFDFDF" stroke-opacity="0.7"/>
<path d="M622.5 623.179L592.5 640.5L651.113 674.34L681.112 657.019L622.5 623.179Z" stroke="#DFDFDF" stroke-opacity="0.7"/>
<path d="M563.887 621.34L563.888 655.981L622.5 622.141L622.5 587.5L563.887 621.34Z" stroke="#DFDFDF" stroke-opacity="0.7"/>
<path d="M622.5 622.18L652.5 639.5V571.82L622.5 554.5V622.18Z" stroke="#DFDFDF" stroke-opacity="0.7"/>
<path d="M710.5 675.179L680.5 692.5L739.113 726.34L769.112 709.019L710.5 675.179Z" stroke="#DFDFDF" stroke-opacity="0.7"/>
<path d="M651.887 673.34L651.888 707.981L710.5 674.141L710.5 639.5L651.887 673.34Z" stroke="#DFDFDF" stroke-opacity="0.7"/>
<path d="M710.5 674.18L740.5 691.5V623.82L710.5 606.5V674.18Z" stroke="#DFDFDF" stroke-opacity="0.7"/>
<path d="M799.5 623.179L769.5 640.5L828.113 674.34L858.112 657.019L799.5 623.179Z" stroke="#DFDFDF" stroke-opacity="0.7"/>
<path d="M740.887 621.34L740.888 655.981L799.5 622.141L799.5 587.5L740.887 621.34Z" stroke="#DFDFDF" stroke-opacity="0.7"/>
<path d="M799.5 622.18L829.5 639.5V571.82L799.5 554.5V622.18Z" stroke="#DFDFDF" stroke-opacity="0.7"/>
<path d="M887.5 675.179L857.5 692.5L916.113 726.34L946.112 709.019L887.5 675.179Z" stroke="#DFDFDF" stroke-opacity="0.7"/>
<path d="M828.887 673.34L828.888 707.981L887.5 674.141L887.5 639.5L828.887 673.34Z" stroke="#DFDFDF" stroke-opacity="0.7"/>
<path d="M887.5 674.18L917.5 691.5V623.82L887.5 606.5V674.18Z" stroke="#DFDFDF" stroke-opacity="0.7"/>
<path d="M976.5 623.179L946.5 640.5L1005.11 674.34L1035.11 657.019L976.5 623.179Z" stroke="#DFDFDF" stroke-opacity="0.7"/>
<path d="M917.887 621.34L917.888 655.981L976.5 622.141L976.5 587.5L917.887 621.34Z" stroke="#DFDFDF" stroke-opacity="0.7"/>
<path d="M976.5 622.18L1006.5 639.5V571.82L976.5 554.5V622.18Z" stroke="#DFDFDF" stroke-opacity="0.7"/>
<path d="M1064.5 675.179L1034.5 692.5L1093.11 726.34L1123.11 709.019L1064.5 675.179Z" stroke="#DFDFDF" stroke-opacity="0.7"/>
<path d="M1005.89 673.34L1005.89 707.981L1064.5 674.141L1064.5 639.5L1005.89 673.34Z" stroke="#DFDFDF" stroke-opacity="0.7"/>
<path d="M1064.5 674.18L1094.5 691.5V623.82L1064.5 606.5V674.18Z" stroke="#DFDFDF" stroke-opacity="0.7"/>
<path d="M1153.5 623.179L1123.5 640.5L1182.11 674.34L1212.11 657.019L1153.5 623.179Z" stroke="#DFDFDF" stroke-opacity="0.7"/>
<path d="M1094.89 621.34L1094.89 655.981L1153.5 622.141L1153.5 587.5L1094.89 621.34Z" stroke="#DFDFDF" stroke-opacity="0.7"/>
<path d="M1153.5 622.18L1183.5 639.5V571.82L1153.5 554.5V622.18Z" stroke="#DFDFDF" stroke-opacity="0.7"/>
<path d="M1241.5 675.179L1211.5 692.5L1270.11 726.34L1300.11 709.019L1241.5 675.179Z" stroke="#DFDFDF" stroke-opacity="0.7"/>
<path d="M1182.89 673.34L1182.89 707.981L1241.5 674.141L1241.5 639.5L1182.89 673.34Z" stroke="#DFDFDF" stroke-opacity="0.7"/>
<path d="M1241.5 674.18L1271.5 691.5V623.82L1241.5 606.5V674.18Z" stroke="#DFDFDF" stroke-opacity="0.7"/>
<path d="M1330.5 623.179L1300.5 640.5L1359.11 674.34L1389.11 657.019L1330.5 623.179Z" stroke="#DFDFDF" stroke-opacity="0.7"/>
<path d="M1271.89 621.34L1271.89 655.981L1330.5 622.141L1330.5 587.5L1271.89 621.34Z" stroke="#DFDFDF" stroke-opacity="0.7"/>
<path d="M1330.5 622.18L1360.5 639.5V571.82L1330.5 554.5V622.18Z" stroke="#DFDFDF" stroke-opacity="0.7"/>
<path d="M1418.5 675.179L1388.5 692.5L1447.11 726.34L1477.11 709.019L1418.5 675.179Z" stroke="#DFDFDF" stroke-opacity="0.7"/>
<path d="M1359.89 673.34L1359.89 707.981L1418.5 674.141L1418.5 639.5L1359.89 673.34Z" stroke="#DFDFDF" stroke-opacity="0.7"/>
<path d="M2.49956 779.179L-27.5 796.5L31.1126 830.34L61.1122 813.019L2.49956 779.179Z" stroke="#DFDFDF" stroke-opacity="0.7"/>
<path d="M-56.1126 777.34L-56.1122 811.981L2.50044 778.141L2.5 743.5L-56.1126 777.34Z" stroke="#DFDFDF" stroke-opacity="0.7"/>
<path d="M2.5 778.18L32.5 795.5V727.82L2.5 710.5L2.5 778.18Z" stroke="#DFDFDF" stroke-opacity="0.7"/>
<path d="M91.4996 727.179L61.5 744.5L120.113 778.34L150.112 761.019L91.4996 727.179Z" stroke="#DFDFDF" stroke-opacity="0.7"/>
<path d="M32.8874 725.34L32.8878 759.981L91.5004 726.141L91.5 691.5L32.8874 725.34Z" stroke="#DFDFDF" stroke-opacity="0.7"/>
<path d="M91.5 726.18L121.5 743.5V675.82L91.5 658.5V726.18Z" stroke="#DFDFDF" stroke-opacity="0.7"/>
<path d="M179.5 779.179L149.5 796.5L208.113 830.34L238.112 813.019L179.5 779.179Z" stroke="#DFDFDF" stroke-opacity="0.7"/>
<path d="M120.887 777.34L120.888 811.981L179.5 778.141L179.5 743.5L120.887 777.34Z" stroke="#DFDFDF" stroke-opacity="0.7"/>
<path d="M179.5 778.18L209.5 795.5V727.82L179.5 710.5V778.18Z" stroke="#DFDFDF" stroke-opacity="0.7"/>
<path d="M268.5 727.179L238.5 744.5L297.113 778.34L327.112 761.019L268.5 727.179Z" stroke="#DFDFDF" stroke-opacity="0.7"/>
<path d="M209.887 725.34L209.888 759.981L268.5 726.141L268.5 691.5L209.887 725.34Z" stroke="#DFDFDF" stroke-opacity="0.7"/>
<path d="M268.5 726.18L298.5 743.5V675.82L268.5 658.5V726.18Z" stroke="#DFDFDF" stroke-opacity="0.7"/>
<path d="M356.5 779.179L326.5 796.5L385.113 830.34L415.112 813.019L356.5 779.179Z" stroke="#DFDFDF" stroke-opacity="0.7"/>
<path d="M297.887 777.34L297.888 811.981L356.5 778.141L356.5 743.5L297.887 777.34Z" stroke="#DFDFDF" stroke-opacity="0.7"/>
<path d="M356.5 778.18L386.5 795.5V727.82L356.5 710.5V778.18Z" stroke="#DFDFDF" stroke-opacity="0.7"/>
<path d="M445.5 727.179L415.5 744.5L474.113 778.34L504.112 761.019L445.5 727.179Z" stroke="#DFDFDF" stroke-opacity="0.7"/>
<path d="M386.887 725.34L386.888 759.981L445.5 726.141L445.5 691.5L386.887 725.34Z" stroke="#DFDFDF" stroke-opacity="0.7"/>
<path d="M445.5 726.18L475.5 743.5V675.82L445.5 658.5V726.18Z" stroke="#DFDFDF" stroke-opacity="0.7"/>
<path d="M533.5 779.179L503.5 796.5L562.113 830.34L592.112 813.019L533.5 779.179Z" stroke="#DFDFDF" stroke-opacity="0.7"/>
<path d="M474.887 777.34L474.888 811.981L533.5 778.141L533.5 743.5L474.887 777.34Z" stroke="#DFDFDF" stroke-opacity="0.7"/>
<path d="M533.5 778.18L563.5 795.5V727.82L533.5 710.5V778.18Z" stroke="#DFDFDF" stroke-opacity="0.7"/>
<path d="M622.5 727.179L592.5 744.5L651.113 778.34L681.112 761.019L622.5 727.179Z" stroke="#DFDFDF" stroke-opacity="0.7"/>
<path d="M563.887 725.34L563.888 759.981L622.5 726.141L622.5 691.5L563.887 725.34Z" stroke="#DFDFDF" stroke-opacity="0.7"/>
<path d="M622.5 726.18L652.5 743.5V675.82L622.5 658.5V726.18Z" stroke="#DFDFDF" stroke-opacity="0.7"/>
<path d="M710.5 779.179L680.5 796.5L739.113 830.34L769.112 813.019L710.5 779.179Z" stroke="#DFDFDF" stroke-opacity="0.7"/>
<path d="M651.887 777.34L651.888 811.981L710.5 778.141L710.5 743.5L651.887 777.34Z" stroke="#DFDFDF" stroke-opacity="0.7"/>
<path d="M710.5 778.18L740.5 795.5V727.82L710.5 710.5V778.18Z" stroke="#DFDFDF" stroke-opacity="0.7"/>
<path d="M799.5 727.179L769.5 744.5L828.113 778.34L858.112 761.019L799.5 727.179Z" stroke="#DFDFDF" stroke-opacity="0.7"/>
<path d="M740.887 725.34L740.888 759.981L799.5 726.141L799.5 691.5L740.887 725.34Z" stroke="#DFDFDF" stroke-opacity="0.7"/>
<path d="M799.5 726.18L829.5 743.5V675.82L799.5 658.5V726.18Z" stroke="#DFDFDF" stroke-opacity="0.7"/>
<path d="M887.5 779.179L857.5 796.5L916.113 830.34L946.112 813.019L887.5 779.179Z" stroke="#DFDFDF" stroke-opacity="0.7"/>
<path d="M828.887 777.34L828.888 811.981L887.5 778.141L887.5 743.5L828.887 777.34Z" stroke="#DFDFDF" stroke-opacity="0.7"/>
<path d="M887.5 778.18L917.5 795.5V727.82L887.5 710.5V778.18Z" stroke="#DFDFDF" stroke-opacity="0.7"/>
<path d="M976.5 727.179L946.5 744.5L1005.11 778.34L1035.11 761.019L976.5 727.179Z" stroke="#DFDFDF" stroke-opacity="0.7"/>
<path d="M917.887 725.34L917.888 759.981L976.5 726.141L976.5 691.5L917.887 725.34Z" stroke="#DFDFDF" stroke-opacity="0.7"/>
<path d="M976.5 726.18L1006.5 743.5V675.82L976.5 658.5V726.18Z" stroke="#DFDFDF" stroke-opacity="0.7"/>
<path d="M1064.5 779.179L1034.5 796.5L1093.11 830.34L1123.11 813.019L1064.5 779.179Z" stroke="#DFDFDF" stroke-opacity="0.7"/>
<path d="M1005.89 777.34L1005.89 811.981L1064.5 778.141L1064.5 743.5L1005.89 777.34Z" stroke="#DFDFDF" stroke-opacity="0.7"/>
<path d="M1064.5 778.18L1094.5 795.5V727.82L1064.5 710.5V778.18Z" stroke="#DFDFDF" stroke-opacity="0.7"/>
<path d="M1153.5 727.179L1123.5 744.5L1182.11 778.34L1212.11 761.019L1153.5 727.179Z" stroke="#DFDFDF" stroke-opacity="0.7"/>
<path d="M1094.89 725.34L1094.89 759.981L1153.5 726.141L1153.5 691.5L1094.89 725.34Z" stroke="#DFDFDF" stroke-opacity="0.7"/>
<path d="M1153.5 726.18L1183.5 743.5V675.82L1153.5 658.5V726.18Z" stroke="#DFDFDF" stroke-opacity="0.7"/>
<path d="M1241.5 779.179L1211.5 796.5L1270.11 830.34L1300.11 813.019L1241.5 779.179Z" stroke="#DFDFDF" stroke-opacity="0.7"/>
<path d="M1182.89 777.34L1182.89 811.981L1241.5 778.141L1241.5 743.5L1182.89 777.34Z" stroke="#DFDFDF" stroke-opacity="0.7"/>
<path d="M1241.5 778.18L1271.5 795.5V727.82L1241.5 710.5V778.18Z" stroke="#DFDFDF" stroke-opacity="0.7"/>
<path d="M1330.5 727.179L1300.5 744.5L1359.11 778.34L1389.11 761.019L1330.5 727.179Z" stroke="#DFDFDF" stroke-opacity="0.7"/>
<path d="M1271.89 725.34L1271.89 759.981L1330.5 726.141L1330.5 691.5L1271.89 725.34Z" stroke="#DFDFDF" stroke-opacity="0.7"/>
<path d="M1330.5 726.18L1360.5 743.5V675.82L1330.5 658.5V726.18Z" stroke="#DFDFDF" stroke-opacity="0.7"/>
<path d="M1418.5 779.179L1388.5 796.5L1447.11 830.34L1477.11 813.019L1418.5 779.179Z" stroke="#DFDFDF" stroke-opacity="0.7"/>
<path d="M1359.89 777.34L1359.89 811.981L1418.5 778.141L1418.5 743.5L1359.89 777.34Z" stroke="#DFDFDF" stroke-opacity="0.7"/>
<path d="M2.49956 883.179L-27.5 900.5L31.1126 934.34L61.1122 917.019L2.49956 883.179Z" stroke="#DFDFDF" stroke-opacity="0.7"/>
<path d="M-56.1126 881.34L-56.1122 915.981L2.50044 882.141L2.5 847.5L-56.1126 881.34Z" stroke="#DFDFDF" stroke-opacity="0.7"/>
<path d="M2.5 882.18L32.5 899.5V831.82L2.5 814.5L2.5 882.18Z" stroke="#DFDFDF" stroke-opacity="0.7"/>
<path d="M91.4996 831.179L61.5 848.5L120.113 882.34L150.112 865.019L91.4996 831.179Z" stroke="#DFDFDF" stroke-opacity="0.7"/>
<path d="M32.8874 829.34L32.8878 863.981L91.5004 830.141L91.5 795.5L32.8874 829.34Z" stroke="#DFDFDF" stroke-opacity="0.7"/>
<path d="M91.5 830.18L121.5 847.5V779.82L91.5 762.5V830.18Z" stroke="#DFDFDF" stroke-opacity="0.7"/>
<path d="M179.5 883.179L149.5 900.5L208.113 934.34L238.112 917.019L179.5 883.179Z" stroke="#DFDFDF" stroke-opacity="0.7"/>
<path d="M120.887 881.34L120.888 915.981L179.5 882.141L179.5 847.5L120.887 881.34Z" stroke="#DFDFDF" stroke-opacity="0.7"/>
<path d="M179.5 882.18L209.5 899.5V831.82L179.5 814.5V882.18Z" stroke="#DFDFDF" stroke-opacity="0.7"/>
<path d="M268.5 831.179L238.5 848.5L297.113 882.34L327.112 865.019L268.5 831.179Z" stroke="#DFDFDF" stroke-opacity="0.7"/>
<path d="M209.887 829.34L209.888 863.981L268.5 830.141L268.5 795.5L209.887 829.34Z" stroke="#DFDFDF" stroke-opacity="0.7"/>
<path d="M268.5 830.18L298.5 847.5V779.82L268.5 762.5V830.18Z" stroke="#DFDFDF" stroke-opacity="0.7"/>
<path d="M356.5 883.179L326.5 900.5L385.113 934.34L415.112 917.019L356.5 883.179Z" stroke="#DFDFDF" stroke-opacity="0.7"/>
<path d="M297.887 881.34L297.888 915.981L356.5 882.141L356.5 847.5L297.887 881.34Z" stroke="#DFDFDF" stroke-opacity="0.7"/>
<path d="M356.5 882.18L386.5 899.5V831.82L356.5 814.5V882.18Z" stroke="#DFDFDF" stroke-opacity="0.7"/>
<path d="M445.5 831.179L415.5 848.5L474.113 882.34L504.112 865.019L445.5 831.179Z" stroke="#DFDFDF" stroke-opacity="0.7"/>
<path d="M386.887 829.34L386.888 863.981L445.5 830.141L445.5 795.5L386.887 829.34Z" stroke="#DFDFDF" stroke-opacity="0.7"/>
<path d="M445.5 830.18L475.5 847.5V779.82L445.5 762.5V830.18Z" stroke="#DFDFDF" stroke-opacity="0.7"/>
<path d="M533.5 883.179L503.5 900.5L562.113 934.34L592.112 917.019L533.5 883.179Z" stroke="#DFDFDF" stroke-opacity="0.7"/>
<path d="M474.887 881.34L474.888 915.981L533.5 882.141L533.5 847.5L474.887 881.34Z" stroke="#DFDFDF" stroke-opacity="0.7"/>
<path d="M533.5 882.18L563.5 899.5V831.82L533.5 814.5V882.18Z" stroke="#DFDFDF" stroke-opacity="0.7"/>
<path d="M622.5 831.179L592.5 848.5L651.113 882.34L681.112 865.019L622.5 831.179Z" stroke="#DFDFDF" stroke-opacity="0.7"/>
<path d="M563.887 829.34L563.888 863.981L622.5 830.141L622.5 795.5L563.887 829.34Z" stroke="#DFDFDF" stroke-opacity="0.7"/>
<path d="M622.5 830.18L652.5 847.5V779.82L622.5 762.5V830.18Z" stroke="#DFDFDF" stroke-opacity="0.7"/>
<path d="M710.5 883.179L680.5 900.5L739.113 934.34L769.112 917.019L710.5 883.179Z" stroke="#DFDFDF" stroke-opacity="0.7"/>
<path d="M651.887 881.34L651.888 915.981L710.5 882.141L710.5 847.5L651.887 881.34Z" stroke="#DFDFDF" stroke-opacity="0.7"/>
<path d="M710.5 882.18L740.5 899.5V831.82L710.5 814.5V882.18Z" stroke="#DFDFDF" stroke-opacity="0.7"/>
<path d="M799.5 831.179L769.5 848.5L828.113 882.34L858.112 865.019L799.5 831.179Z" stroke="#DFDFDF" stroke-opacity="0.7"/>
<path d="M740.887 829.34L740.888 863.981L799.5 830.141L799.5 795.5L740.887 829.34Z" stroke="#DFDFDF" stroke-opacity="0.7"/>
<path d="M799.5 830.18L829.5 847.5V779.82L799.5 762.5V830.18Z" stroke="#DFDFDF" stroke-opacity="0.7"/>
<path d="M887.5 883.179L857.5 900.5L916.113 934.34L946.112 917.019L887.5 883.179Z" stroke="#DFDFDF" stroke-opacity="0.7"/>
<path d="M828.887 881.34L828.888 915.981L887.5 882.141L887.5 847.5L828.887 881.34Z" stroke="#DFDFDF" stroke-opacity="0.7"/>
<path d="M887.5 882.18L917.5 899.5V831.82L887.5 814.5V882.18Z" stroke="#DFDFDF" stroke-opacity="0.7"/>
<path d="M976.5 831.179L946.5 848.5L1005.11 882.34L1035.11 865.019L976.5 831.179Z" stroke="#DFDFDF" stroke-opacity="0.7"/>
<path d="M917.887 829.34L917.888 863.981L976.5 830.141L976.5 795.5L917.887 829.34Z" stroke="#DFDFDF" stroke-opacity="0.7"/>
<path d="M976.5 830.18L1006.5 847.5V779.82L976.5 762.5V830.18Z" stroke="#DFDFDF" stroke-opacity="0.7"/>
<path d="M1064.5 883.179L1034.5 900.5L1093.11 934.34L1123.11 917.019L1064.5 883.179Z" stroke="#DFDFDF" stroke-opacity="0.7"/>
<path d="M1005.89 881.34L1005.89 915.981L1064.5 882.141L1064.5 847.5L1005.89 881.34Z" stroke="#DFDFDF" stroke-opacity="0.7"/>
<path d="M1064.5 882.18L1094.5 899.5V831.82L1064.5 814.5V882.18Z" stroke="#DFDFDF" stroke-opacity="0.7"/>
<path d="M1153.5 831.179L1123.5 848.5L1182.11 882.34L1212.11 865.019L1153.5 831.179Z" stroke="#DFDFDF" stroke-opacity="0.7"/>
<path d="M1094.89 829.34L1094.89 863.981L1153.5 830.141L1153.5 795.5L1094.89 829.34Z" stroke="#DFDFDF" stroke-opacity="0.7"/>
<path d="M1153.5 830.18L1183.5 847.5V779.82L1153.5 762.5V830.18Z" stroke="#DFDFDF" stroke-opacity="0.7"/>
<path d="M1241.5 883.179L1211.5 900.5L1270.11 934.34L1300.11 917.019L1241.5 883.179Z" stroke="#DFDFDF" stroke-opacity="0.7"/>
<path d="M1182.89 881.34L1182.89 915.981L1241.5 882.141L1241.5 847.5L1182.89 881.34Z" stroke="#DFDFDF" stroke-opacity="0.7"/>
<path d="M1241.5 882.18L1271.5 899.5V831.82L1241.5 814.5V882.18Z" stroke="#DFDFDF" stroke-opacity="0.7"/>
<path d="M1330.5 831.179L1300.5 848.5L1359.11 882.34L1389.11 865.019L1330.5 831.179Z" stroke="#DFDFDF" stroke-opacity="0.7"/>
<path d="M1271.89 829.34L1271.89 863.981L1330.5 830.141L1330.5 795.5L1271.89 829.34Z" stroke="#DFDFDF" stroke-opacity="0.7"/>
<path d="M1330.5 830.18L1360.5 847.5V779.82L1330.5 762.5V830.18Z" stroke="#DFDFDF" stroke-opacity="0.7"/>
<path d="M1418.5 883.179L1388.5 900.5L1447.11 934.34L1477.11 917.019L1418.5 883.179Z" stroke="#DFDFDF" stroke-opacity="0.7"/>
<path d="M1359.89 881.34L1359.89 915.981L1418.5 882.141L1418.5 847.5L1359.89 881.34Z" stroke="#DFDFDF" stroke-opacity="0.7"/>
<path d="M2.49956 987.179L-27.5 1004.5L31.1126 1038.34L61.1122 1021.02L2.49956 987.179Z" stroke="#DFDFDF" stroke-opacity="0.7"/>
<path d="M-56.1126 985.34L-56.1122 1019.98L2.50044 986.141L2.5 951.5L-56.1126 985.34Z" stroke="#DFDFDF" stroke-opacity="0.7"/>
<path d="M2.5 986.18L32.5 1003.5V935.82L2.5 918.5L2.5 986.18Z" stroke="#DFDFDF" stroke-opacity="0.7"/>
<path d="M91.4996 935.179L61.5 952.5L120.113 986.34L150.112 969.019L91.4996 935.179Z" stroke="#DFDFDF" stroke-opacity="0.7"/>
<path d="M32.8874 933.34L32.8878 967.981L91.5004 934.141L91.5 899.5L32.8874 933.34Z" stroke="#DFDFDF" stroke-opacity="0.7"/>
<path d="M91.5 934.18L121.5 951.5V883.82L91.5 866.5V934.18Z" stroke="#DFDFDF" stroke-opacity="0.7"/>
<path d="M179.5 987.179L149.5 1004.5L208.113 1038.34L238.112 1021.02L179.5 987.179Z" stroke="#DFDFDF" stroke-opacity="0.7"/>
<path d="M120.887 985.34L120.888 1019.98L179.5 986.141L179.5 951.5L120.887 985.34Z" stroke="#DFDFDF" stroke-opacity="0.7"/>
<path d="M179.5 986.18L209.5 1003.5V935.82L179.5 918.5V986.18Z" stroke="#DFDFDF" stroke-opacity="0.7"/>
<path d="M268.5 935.179L238.5 952.5L297.113 986.34L327.112 969.019L268.5 935.179Z" stroke="#DFDFDF" stroke-opacity="0.7"/>
<path d="M209.887 933.34L209.888 967.981L268.5 934.141L268.5 899.5L209.887 933.34Z" stroke="#DFDFDF" stroke-opacity="0.7"/>
<path d="M268.5 934.18L298.5 951.5V883.82L268.5 866.5V934.18Z" stroke="#DFDFDF" stroke-opacity="0.7"/>
<path d="M356.5 987.179L326.5 1004.5L385.113 1038.34L415.112 1021.02L356.5 987.179Z" stroke="#DFDFDF" stroke-opacity="0.7"/>
<path d="M297.887 985.34L297.888 1019.98L356.5 986.141L356.5 951.5L297.887 985.34Z" stroke="#DFDFDF" stroke-opacity="0.7"/>
<path d="M356.5 986.18L386.5 1003.5V935.82L356.5 918.5V986.18Z" stroke="#DFDFDF" stroke-opacity="0.7"/>
<path d="M445.5 935.179L415.5 952.5L474.113 986.34L504.112 969.019L445.5 935.179Z" stroke="#DFDFDF" stroke-opacity="0.7"/>
<path d="M386.887 933.34L386.888 967.981L445.5 934.141L445.5 899.5L386.887 933.34Z" stroke="#DFDFDF" stroke-opacity="0.7"/>
<path d="M445.5 934.18L475.5 951.5V883.82L445.5 866.5V934.18Z" stroke="#DFDFDF" stroke-opacity="0.7"/>
<path d="M533.5 987.179L503.5 1004.5L562.113 1038.34L592.112 1021.02L533.5 987.179Z" stroke="#DFDFDF" stroke-opacity="0.7"/>
<path d="M474.887 985.34L474.888 1019.98L533.5 986.141L533.5 951.5L474.887 985.34Z" stroke="#DFDFDF" stroke-opacity="0.7"/>
<path d="M533.5 986.18L563.5 1003.5V935.82L533.5 918.5V986.18Z" stroke="#DFDFDF" stroke-opacity="0.7"/>
<path d="M622.5 935.179L592.5 952.5L651.113 986.34L681.112 969.019L622.5 935.179Z" stroke="#DFDFDF" stroke-opacity="0.7"/>
<path d="M563.887 933.34L563.888 967.981L622.5 934.141L622.5 899.5L563.887 933.34Z" stroke="#DFDFDF" stroke-opacity="0.7"/>
<path d="M622.5 934.18L652.5 951.5V883.82L622.5 866.5V934.18Z" stroke="#DFDFDF" stroke-opacity="0.7"/>
<path d="M710.5 987.179L680.5 1004.5L739.113 1038.34L769.112 1021.02L710.5 987.179Z" stroke="#DFDFDF" stroke-opacity="0.7"/>
<path d="M651.887 985.34L651.888 1019.98L710.5 986.141L710.5 951.5L651.887 985.34Z" stroke="#DFDFDF" stroke-opacity="0.7"/>
<path d="M710.5 986.18L740.5 1003.5V935.82L710.5 918.5V986.18Z" stroke="#DFDFDF" stroke-opacity="0.7"/>
<path d="M799.5 935.179L769.5 952.5L828.113 986.34L858.112 969.019L799.5 935.179Z" stroke="#DFDFDF" stroke-opacity="0.7"/>
<path d="M740.887 933.34L740.888 967.981L799.5 934.141L799.5 899.5L740.887 933.34Z" stroke="#DFDFDF" stroke-opacity="0.7"/>
<path d="M799.5 934.18L829.5 951.5V883.82L799.5 866.5V934.18Z" stroke="#DFDFDF" stroke-opacity="0.7"/>
<path d="M887.5 987.179L857.5 1004.5L916.113 1038.34L946.112 1021.02L887.5 987.179Z" stroke="#DFDFDF" stroke-opacity="0.7"/>
<path d="M828.887 985.34L828.888 1019.98L887.5 986.141L887.5 951.5L828.887 985.34Z" stroke="#DFDFDF" stroke-opacity="0.7"/>
<path d="M887.5 986.18L917.5 1003.5V935.82L887.5 918.5V986.18Z" stroke="#DFDFDF" stroke-opacity="0.7"/>
<path d="M976.5 935.179L946.5 952.5L1005.11 986.34L1035.11 969.019L976.5 935.179Z" stroke="#DFDFDF" stroke-opacity="0.7"/>
<path d="M917.887 933.34L917.888 967.981L976.5 934.141L976.5 899.5L917.887 933.34Z" stroke="#DFDFDF" stroke-opacity="0.7"/>
<path d="M976.5 934.18L1006.5 951.5V883.82L976.5 866.5V934.18Z" stroke="#DFDFDF" stroke-opacity="0.7"/>
<path d="M1064.5 987.179L1034.5 1004.5L1093.11 1038.34L1123.11 1021.02L1064.5 987.179Z" stroke="#DFDFDF" stroke-opacity="0.7"/>
<path d="M1005.89 985.34L1005.89 1019.98L1064.5 986.141L1064.5 951.5L1005.89 985.34Z" stroke="#DFDFDF" stroke-opacity="0.7"/>
<path d="M1064.5 986.18L1094.5 1003.5V935.82L1064.5 918.5V986.18Z" stroke="#DFDFDF" stroke-opacity="0.7"/>
<path d="M1153.5 935.179L1123.5 952.5L1182.11 986.34L1212.11 969.019L1153.5 935.179Z" stroke="#DFDFDF" stroke-opacity="0.7"/>
<path d="M1094.89 933.34L1094.89 967.981L1153.5 934.141L1153.5 899.5L1094.89 933.34Z" stroke="#DFDFDF" stroke-opacity="0.7"/>
<path d="M1153.5 934.18L1183.5 951.5V883.82L1153.5 866.5V934.18Z" stroke="#DFDFDF" stroke-opacity="0.7"/>
<path d="M1241.5 987.179L1211.5 1004.5L1270.11 1038.34L1300.11 1021.02L1241.5 987.179Z" stroke="#DFDFDF" stroke-opacity="0.7"/>
<path d="M1182.89 985.34L1182.89 1019.98L1241.5 986.141L1241.5 951.5L1182.89 985.34Z" stroke="#DFDFDF" stroke-opacity="0.7"/>
<path d="M1241.5 986.18L1271.5 1003.5V935.82L1241.5 918.5V986.18Z" stroke="#DFDFDF" stroke-opacity="0.7"/>
<path d="M1330.5 935.179L1300.5 952.5L1359.11 986.34L1389.11 969.019L1330.5 935.179Z" stroke="#DFDFDF" stroke-opacity="0.7"/>
<path d="M1271.89 933.34L1271.89 967.981L1330.5 934.141L1330.5 899.5L1271.89 933.34Z" stroke="#DFDFDF" stroke-opacity="0.7"/>
<path d="M1330.5 934.18L1360.5 951.5V883.82L1330.5 866.5V934.18Z" stroke="#DFDFDF" stroke-opacity="0.7"/>
<path d="M1418.5 987.179L1388.5 1004.5L1447.11 1038.34L1477.11 1021.02L1418.5 987.179Z" stroke="#DFDFDF" stroke-opacity="0.7"/>
<path d="M1359.89 985.34L1359.89 1019.98L1418.5 986.141L1418.5 951.5L1359.89 985.34Z" stroke="#DFDFDF" stroke-opacity="0.7"/>
<path d="M32.8874 1037.34L32.8878 1071.98L91.5004 1038.14L91.5 1003.5L32.8874 1037.34Z" stroke="#DFDFDF" stroke-opacity="0.7"/>
<path d="M91.5 1038.18L121.5 1055.5V987.82L91.5 970.5V1038.18Z" stroke="#DFDFDF" stroke-opacity="0.7"/>
<path d="M209.887 1037.34L209.888 1071.98L268.5 1038.14L268.5 1003.5L209.887 1037.34Z" stroke="#DFDFDF" stroke-opacity="0.7"/>
<path d="M268.5 1038.18L298.5 1055.5V987.82L268.5 970.5V1038.18Z" stroke="#DFDFDF" stroke-opacity="0.7"/>
<path d="M386.887 1037.34L386.888 1071.98L445.5 1038.14L445.5 1003.5L386.887 1037.34Z" stroke="#DFDFDF" stroke-opacity="0.7"/>
<path d="M445.5 1038.18L475.5 1055.5V987.82L445.5 970.5V1038.18Z" stroke="#DFDFDF" stroke-opacity="0.7"/>
<path d="M563.887 1037.34L563.888 1071.98L622.5 1038.14L622.5 1003.5L563.887 1037.34Z" stroke="#DFDFDF" stroke-opacity="0.7"/>
<path d="M622.5 1038.18L652.5 1055.5V987.82L622.5 970.5V1038.18Z" stroke="#DFDFDF" stroke-opacity="0.7"/>
<path d="M740.887 1037.34L740.888 1071.98L799.5 1038.14L799.5 1003.5L740.887 1037.34Z" stroke="#DFDFDF" stroke-opacity="0.7"/>
<path d="M799.5 1038.18L829.5 1055.5V987.82L799.5 970.5V1038.18Z" stroke="#DFDFDF" stroke-opacity="0.7"/>
<path d="M917.887 1037.34L917.888 1071.98L976.5 1038.14L976.5 1003.5L917.887 1037.34Z" stroke="#DFDFDF" stroke-opacity="0.7"/>
<path d="M976.5 1038.18L1006.5 1055.5V987.82L976.5 970.5V1038.18Z" stroke="#DFDFDF" stroke-opacity="0.7"/>
<path d="M1094.89 1037.34L1094.89 1071.98L1153.5 1038.14L1153.5 1003.5L1094.89 1037.34Z" stroke="#DFDFDF" stroke-opacity="0.7"/>
<path d="M1153.5 1038.18L1183.5 1055.5V987.82L1153.5 970.5V1038.18Z" stroke="#DFDFDF" stroke-opacity="0.7"/>
<path d="M1271.89 1037.34L1271.89 1071.98L1330.5 1038.14L1330.5 1003.5L1271.89 1037.34Z" stroke="#DFDFDF" stroke-opacity="0.7"/>
<path d="M1330.5 1038.18L1360.5 1055.5V987.82L1330.5 970.5V1038.18Z" stroke="#DFDFDF" stroke-opacity="0.7"/>
</g>
<defs>
<clipPath id="clip0_430_16919">
<rect width="1416" height="1020" fill="white"/>
</clipPath>
</defs>
</svg>
