<svg width="1416" height="1020" viewBox="0 0 1416 1020" fill="none" xmlns="http://www.w3.org/2000/svg">
<g clip-path="url(#clip0_430_16919)">
<path d="M-13.5004 -0.820717L-43.5 16.5L15.1126 50.34L45.1122 33.0193L-13.5004 -0.820717Z" stroke="#DFDFDF" stroke-opacity="0.5"/>
<path d="M-72.1126 -2.66L-72.1122 31.9808L-13.4996 -1.85924L-13.5 -36.5L-72.1126 -2.66Z" stroke="#DFDFDF" stroke-opacity="0.5"/>
<path d="M-13.5 -1.82L16.5 15.5L16.5 -52.18L-13.5 -69.5L-13.5 -1.82Z" stroke="#DFDFDF" stroke-opacity="0.5"/>
<path d="M74.4996 51.1793L44.5 68.5L103.113 102.34L133.112 85.0193L74.4996 51.1793Z" stroke="#DFDFDF" stroke-opacity="0.5"/>
<path d="M15.8874 49.34L15.8878 83.9808L74.5004 50.1408L74.5 15.5L15.8874 49.34Z" stroke="#DFDFDF" stroke-opacity="0.5"/>
<path d="M74.5 50.18L104.5 67.5V-0.18L74.5 -17.5V50.18Z" stroke="#DFDFDF" stroke-opacity="0.5"/>
<path d="M162.5 103.179L132.5 120.5L191.113 154.34L221.112 137.019L162.5 103.179Z" stroke="#DFDFDF" stroke-opacity="0.5"/>
<path d="M103.887 101.34L103.888 135.981L162.5 102.141L162.5 67.5L103.887 101.34Z" stroke="#DFDFDF" stroke-opacity="0.5"/>
<path d="M162.5 102.18L192.5 119.5V51.82L162.5 34.5V102.18Z" stroke="#DFDFDF" stroke-opacity="0.5"/>
<path d="M163.5 -0.820717L133.5 16.5L192.113 50.34L222.112 33.0193L163.5 -0.820717Z" stroke="#DFDFDF" stroke-opacity="0.5"/>
<path d="M104.887 -2.66L104.888 31.9808L163.5 -1.85924L163.5 -36.5L104.887 -2.66Z" stroke="#DFDFDF" stroke-opacity="0.5"/>
<path d="M163.5 -1.82L193.5 15.5V-52.18L163.5 -69.5V-1.82Z" stroke="#DFDFDF" stroke-opacity="0.5"/>
<path d="M251.5 51.1793L221.5 68.5L280.113 102.34L310.112 85.0193L251.5 51.1793Z" stroke="#DFDFDF" stroke-opacity="0.5"/>
<path d="M192.887 49.34L192.888 83.9808L251.5 50.1408L251.5 15.5L192.887 49.34Z" stroke="#DFDFDF" stroke-opacity="0.5"/>
<path d="M251.5 50.18L281.5 67.5V-0.18L251.5 -17.5V50.18Z" stroke="#DFDFDF" stroke-opacity="0.5"/>
<path d="M339.5 103.179L309.5 120.5L368.113 154.34L398.112 137.019L339.5 103.179Z" stroke="#DFDFDF" stroke-opacity="0.5"/>
<path d="M280.887 101.34L280.888 135.981L339.5 102.141L339.5 67.5L280.887 101.34Z" stroke="#DFDFDF" stroke-opacity="0.5"/>
<path d="M339.5 102.18L369.5 119.5V51.82L339.5 34.5V102.18Z" stroke="#DFDFDF" stroke-opacity="0.5"/>
<path d="M340.5 -0.820717L310.5 16.5L369.113 50.34L399.112 33.0193L340.5 -0.820717Z" stroke="#DFDFDF" stroke-opacity="0.5"/>
<path d="M281.887 -2.66L281.888 31.9808L340.5 -1.85924L340.5 -36.5L281.887 -2.66Z" stroke="#DFDFDF" stroke-opacity="0.5"/>
<path d="M340.5 -1.82L370.5 15.5V-52.18L340.5 -69.5V-1.82Z" stroke="#DFDFDF" stroke-opacity="0.5"/>
<path d="M428.5 51.1793L398.5 68.5L457.113 102.34L487.112 85.0193L428.5 51.1793Z" stroke="#DFDFDF" stroke-opacity="0.5"/>
<path d="M369.887 49.34L369.888 83.9808L428.5 50.1408L428.5 15.5L369.887 49.34Z" stroke="#DFDFDF" stroke-opacity="0.5"/>
<path d="M428.5 50.18L458.5 67.5V-0.18L428.5 -17.5V50.18Z" stroke="#DFDFDF" stroke-opacity="0.5"/>
<path d="M516.5 103.179L486.5 120.5L545.113 154.34L575.112 137.019L516.5 103.179Z" stroke="#DFDFDF" stroke-opacity="0.5"/>
<path d="M457.887 101.34L457.888 135.981L516.5 102.141L516.5 67.5L457.887 101.34Z" stroke="#DFDFDF" stroke-opacity="0.5"/>
<path d="M516.5 102.18L546.5 119.5V51.82L516.5 34.5V102.18Z" stroke="#DFDFDF" stroke-opacity="0.5"/>
<path d="M517.5 -0.820717L487.5 16.5L546.113 50.34L576.112 33.0193L517.5 -0.820717Z" stroke="#DFDFDF" stroke-opacity="0.5"/>
<path d="M458.887 -2.66L458.888 31.9808L517.5 -1.85924L517.5 -36.5L458.887 -2.66Z" stroke="#DFDFDF" stroke-opacity="0.5"/>
<path d="M517.5 -1.82L547.5 15.5V-52.18L517.5 -69.5V-1.82Z" stroke="#DFDFDF" stroke-opacity="0.5"/>
<path d="M605.5 51.1793L575.5 68.5L634.113 102.34L664.112 85.0193L605.5 51.1793Z" stroke="#DFDFDF" stroke-opacity="0.5"/>
<path d="M546.887 49.34L546.888 83.9808L605.5 50.1408L605.5 15.5L546.887 49.34Z" stroke="#DFDFDF" stroke-opacity="0.5"/>
<path d="M605.5 50.18L635.5 67.5V-0.18L605.5 -17.5V50.18Z" stroke="#DFDFDF" stroke-opacity="0.5"/>
<path d="M693.5 103.179L663.5 120.5L722.113 154.34L752.112 137.019L693.5 103.179Z" stroke="#DFDFDF" stroke-opacity="0.5"/>
<path d="M634.887 101.34L634.888 135.981L693.5 102.141L693.5 67.5L634.887 101.34Z" stroke="#DFDFDF" stroke-opacity="0.5"/>
<path d="M693.5 102.18L723.5 119.5V51.82L693.5 34.5V102.18Z" stroke="#DFDFDF" stroke-opacity="0.5"/>
<path d="M694.5 -0.820717L664.5 16.5L723.113 50.34L753.112 33.0193L694.5 -0.820717Z" stroke="#DFDFDF" stroke-opacity="0.5"/>
<path d="M635.887 -2.66L635.888 31.9808L694.5 -1.85924L694.5 -36.5L635.887 -2.66Z" stroke="#DFDFDF" stroke-opacity="0.5"/>
<path d="M694.5 -1.82L724.5 15.5V-52.18L694.5 -69.5V-1.82Z" stroke="#DFDFDF" stroke-opacity="0.5"/>
<path d="M782.5 51.1793L752.5 68.5L811.113 102.34L841.112 85.0193L782.5 51.1793Z" stroke="#DFDFDF" stroke-opacity="0.5"/>
<path d="M723.887 49.34L723.888 83.9808L782.5 50.1408L782.5 15.5L723.887 49.34Z" stroke="#DFDFDF" stroke-opacity="0.5"/>
<path d="M782.5 50.18L812.5 67.5V-0.18L782.5 -17.5V50.18Z" stroke="#DFDFDF" stroke-opacity="0.5"/>
<path d="M870.5 103.179L840.5 120.5L899.113 154.34L929.112 137.019L870.5 103.179Z" stroke="#DFDFDF" stroke-opacity="0.5"/>
<path d="M811.887 101.34L811.888 135.981L870.5 102.141L870.5 67.5L811.887 101.34Z" stroke="#DFDFDF" stroke-opacity="0.5"/>
<path d="M870.5 102.18L900.5 119.5V51.82L870.5 34.5V102.18Z" stroke="#DFDFDF" stroke-opacity="0.5"/>
<path d="M871.5 -0.820717L841.5 16.5L900.113 50.34L930.112 33.0193L871.5 -0.820717Z" stroke="#DFDFDF" stroke-opacity="0.5"/>
<path d="M812.887 -2.66L812.888 31.9808L871.5 -1.85924L871.5 -36.5L812.887 -2.66Z" stroke="#DFDFDF" stroke-opacity="0.5"/>
<path d="M871.5 -1.82L901.5 15.5V-52.18L871.5 -69.5V-1.82Z" stroke="#DFDFDF" stroke-opacity="0.5"/>
<path d="M959.5 51.1793L929.5 68.5L988.113 102.34L1018.11 85.0193L959.5 51.1793Z" stroke="#DFDFDF" stroke-opacity="0.5"/>
<path d="M900.887 49.34L900.888 83.9808L959.5 50.1408L959.5 15.5L900.887 49.34Z" stroke="#DFDFDF" stroke-opacity="0.5"/>
<path d="M959.5 50.18L989.5 67.5V-0.18L959.5 -17.5V50.18Z" stroke="#DFDFDF" stroke-opacity="0.5"/>
<path d="M1047.5 103.179L1017.5 120.5L1076.11 154.34L1106.11 137.019L1047.5 103.179Z" stroke="#DFDFDF" stroke-opacity="0.5"/>
<path d="M988.887 101.34L988.888 135.981L1047.5 102.141L1047.5 67.5L988.887 101.34Z" stroke="#DFDFDF" stroke-opacity="0.5"/>
<path d="M1047.5 102.18L1077.5 119.5V51.82L1047.5 34.5V102.18Z" stroke="#DFDFDF" stroke-opacity="0.5"/>
<path d="M1048.5 -0.820717L1018.5 16.5L1077.11 50.34L1107.11 33.0193L1048.5 -0.820717Z" stroke="#DFDFDF" stroke-opacity="0.5"/>
<path d="M989.887 -2.66L989.888 31.9808L1048.5 -1.85924L1048.5 -36.5L989.887 -2.66Z" stroke="#DFDFDF" stroke-opacity="0.5"/>
<path d="M1048.5 -1.82L1078.5 15.5V-52.18L1048.5 -69.5V-1.82Z" stroke="#DFDFDF" stroke-opacity="0.5"/>
<path d="M1136.5 51.1793L1106.5 68.5L1165.11 102.34L1195.11 85.0193L1136.5 51.1793Z" stroke="#DFDFDF" stroke-opacity="0.5"/>
<path d="M1077.89 49.34L1077.89 83.9808L1136.5 50.1408L1136.5 15.5L1077.89 49.34Z" stroke="#DFDFDF" stroke-opacity="0.5"/>
<path d="M1136.5 50.18L1166.5 67.5V-0.18L1136.5 -17.5V50.18Z" stroke="#DFDFDF" stroke-opacity="0.5"/>
<path d="M1224.5 103.179L1194.5 120.5L1253.11 154.34L1283.11 137.019L1224.5 103.179Z" stroke="#DFDFDF" stroke-opacity="0.5"/>
<path d="M1165.89 101.34L1165.89 135.981L1224.5 102.141L1224.5 67.5L1165.89 101.34Z" stroke="#DFDFDF" stroke-opacity="0.5"/>
<path d="M1224.5 102.18L1254.5 119.5V51.82L1224.5 34.5V102.18Z" stroke="#DFDFDF" stroke-opacity="0.5"/>
<path d="M1225.5 -0.820717L1195.5 16.5L1254.11 50.34L1284.11 33.0193L1225.5 -0.820717Z" stroke="#DFDFDF" stroke-opacity="0.5"/>
<path d="M1166.89 -2.66L1166.89 31.9808L1225.5 -1.85924L1225.5 -36.5L1166.89 -2.66Z" stroke="#DFDFDF" stroke-opacity="0.5"/>
<path d="M1225.5 -1.82L1255.5 15.5V-52.18L1225.5 -69.5V-1.82Z" stroke="#DFDFDF" stroke-opacity="0.5"/>
<path d="M1313.5 51.1793L1283.5 68.5L1342.11 102.34L1372.11 85.0193L1313.5 51.1793Z" stroke="#DFDFDF" stroke-opacity="0.5"/>
<path d="M1254.89 49.34L1254.89 83.9808L1313.5 50.1408L1313.5 15.5L1254.89 49.34Z" stroke="#DFDFDF" stroke-opacity="0.5"/>
<path d="M1313.5 50.18L1343.5 67.5V-0.18L1313.5 -17.5V50.18Z" stroke="#DFDFDF" stroke-opacity="0.5"/>
<path d="M1401.5 103.179L1371.5 120.5L1430.11 154.34L1460.11 137.019L1401.5 103.179Z" stroke="#DFDFDF" stroke-opacity="0.5"/>
<path d="M1342.89 101.34L1342.89 135.981L1401.5 102.141L1401.5 67.5L1342.89 101.34Z" stroke="#DFDFDF" stroke-opacity="0.5"/>
<path d="M1401.5 102.18L1431.5 119.5V51.82L1401.5 34.5V102.18Z" stroke="#DFDFDF" stroke-opacity="0.5"/>
<path d="M1402.5 -0.820717L1372.5 16.5L1431.11 50.34L1461.11 33.0193L1402.5 -0.820717Z" stroke="#DFDFDF" stroke-opacity="0.5"/>
<path d="M1343.89 -2.66L1343.89 31.9808L1402.5 -1.85924L1402.5 -36.5L1343.89 -2.66Z" stroke="#DFDFDF" stroke-opacity="0.5"/>
<path d="M1402.5 -1.82L1432.5 15.5V-52.18L1402.5 -69.5V-1.82Z" stroke="#DFDFDF" stroke-opacity="0.5"/>
<path d="M1431.89 49.34L1431.89 83.9808L1490.5 50.1408L1490.5 15.5L1431.89 49.34Z" stroke="#DFDFDF" stroke-opacity="0.5"/>
<path d="M-13.5004 103.179L-43.5 120.5L15.1126 154.34L45.1122 137.019L-13.5004 103.179Z" stroke="#DFDFDF" stroke-opacity="0.5"/>
<path d="M-72.1126 101.34L-72.1122 135.981L-13.4996 102.141L-13.5 67.5L-72.1126 101.34Z" stroke="#DFDFDF" stroke-opacity="0.5"/>
<path d="M-13.5 102.18L16.5 119.5L16.5 51.82L-13.5 34.5L-13.5 102.18Z" stroke="#DFDFDF" stroke-opacity="0.5"/>
<path d="M74.4996 155.179L44.5 172.5L103.113 206.34L133.112 189.019L74.4996 155.179Z" stroke="#DFDFDF" stroke-opacity="0.5"/>
<path d="M15.8874 153.34L15.8878 187.981L74.5004 154.141L74.5 119.5L15.8874 153.34Z" stroke="#DFDFDF" stroke-opacity="0.5"/>
<path d="M74.5 154.18L104.5 171.5V103.82L74.5 86.5V154.18Z" stroke="#DFDFDF" stroke-opacity="0.5"/>
<path d="M162.5 207.179L132.5 224.5L191.113 258.34L221.112 241.019L162.5 207.179Z" stroke="#DFDFDF" stroke-opacity="0.5"/>
<path d="M103.887 205.34L103.888 239.981L162.5 206.141L162.5 171.5L103.887 205.34Z" stroke="#DFDFDF" stroke-opacity="0.5"/>
<path d="M162.5 206.18L192.5 223.5V155.82L162.5 138.5V206.18Z" stroke="#DFDFDF" stroke-opacity="0.5"/>
<path d="M163.5 103.179L133.5 120.5L192.113 154.34L222.112 137.019L163.5 103.179Z" stroke="#DFDFDF" stroke-opacity="0.5"/>
<path d="M104.887 101.34L104.888 135.981L163.5 102.141L163.5 67.5L104.887 101.34Z" stroke="#DFDFDF" stroke-opacity="0.5"/>
<path d="M163.5 102.18L193.5 119.5V51.82L163.5 34.5V102.18Z" stroke="#DFDFDF" stroke-opacity="0.5"/>
<path d="M251.5 155.179L221.5 172.5L280.113 206.34L310.112 189.019L251.5 155.179Z" stroke="#DFDFDF" stroke-opacity="0.5"/>
<path d="M192.887 153.34L192.888 187.981L251.5 154.141L251.5 119.5L192.887 153.34Z" stroke="#DFDFDF" stroke-opacity="0.5"/>
<path d="M251.5 154.18L281.5 171.5V103.82L251.5 86.5V154.18Z" stroke="#DFDFDF" stroke-opacity="0.5"/>
<path d="M339.5 207.179L309.5 224.5L368.113 258.34L398.112 241.019L339.5 207.179Z" stroke="#DFDFDF" stroke-opacity="0.5"/>
<path d="M280.887 205.34L280.888 239.981L339.5 206.141L339.5 171.5L280.887 205.34Z" stroke="#DFDFDF" stroke-opacity="0.5"/>
<path d="M339.5 206.18L369.5 223.5V155.82L339.5 138.5V206.18Z" stroke="#DFDFDF" stroke-opacity="0.5"/>
<path d="M340.5 103.179L310.5 120.5L369.113 154.34L399.112 137.019L340.5 103.179Z" stroke="#DFDFDF" stroke-opacity="0.5"/>
<path d="M281.887 101.34L281.888 135.981L340.5 102.141L340.5 67.5L281.887 101.34Z" stroke="#DFDFDF" stroke-opacity="0.5"/>
<path d="M340.5 102.18L370.5 119.5V51.82L340.5 34.5V102.18Z" stroke="#DFDFDF" stroke-opacity="0.5"/>
<path d="M428.5 155.179L398.5 172.5L457.113 206.34L487.112 189.019L428.5 155.179Z" stroke="#DFDFDF" stroke-opacity="0.5"/>
<path d="M369.887 153.34L369.888 187.981L428.5 154.141L428.5 119.5L369.887 153.34Z" stroke="#DFDFDF" stroke-opacity="0.5"/>
<path d="M428.5 154.18L458.5 171.5V103.82L428.5 86.5V154.18Z" stroke="#DFDFDF" stroke-opacity="0.5"/>
<path d="M516.5 207.179L486.5 224.5L545.113 258.34L575.112 241.019L516.5 207.179Z" stroke="#DFDFDF" stroke-opacity="0.5"/>
<path d="M457.887 205.34L457.888 239.981L516.5 206.141L516.5 171.5L457.887 205.34Z" stroke="#DFDFDF" stroke-opacity="0.5"/>
<path d="M516.5 206.18L546.5 223.5V155.82L516.5 138.5V206.18Z" stroke="#DFDFDF" stroke-opacity="0.5"/>
<path d="M517.5 103.179L487.5 120.5L546.113 154.34L576.112 137.019L517.5 103.179Z" stroke="#DFDFDF" stroke-opacity="0.5"/>
<path d="M458.887 101.34L458.888 135.981L517.5 102.141L517.5 67.5L458.887 101.34Z" stroke="#DFDFDF" stroke-opacity="0.5"/>
<path d="M517.5 102.18L547.5 119.5V51.82L517.5 34.5V102.18Z" stroke="#DFDFDF" stroke-opacity="0.5"/>
<path d="M605.5 155.179L575.5 172.5L634.113 206.34L664.112 189.019L605.5 155.179Z" stroke="#DFDFDF" stroke-opacity="0.5"/>
<path d="M546.887 153.34L546.888 187.981L605.5 154.141L605.5 119.5L546.887 153.34Z" stroke="#DFDFDF" stroke-opacity="0.5"/>
<path d="M605.5 154.18L635.5 171.5V103.82L605.5 86.5V154.18Z" stroke="#DFDFDF" stroke-opacity="0.5"/>
<path d="M693.5 207.179L663.5 224.5L722.113 258.34L752.112 241.019L693.5 207.179Z" stroke="#DFDFDF" stroke-opacity="0.5"/>
<path d="M634.887 205.34L634.888 239.981L693.5 206.141L693.5 171.5L634.887 205.34Z" stroke="#DFDFDF" stroke-opacity="0.5"/>
<path d="M693.5 206.18L723.5 223.5V155.82L693.5 138.5V206.18Z" stroke="#DFDFDF" stroke-opacity="0.5"/>
<path d="M694.5 103.179L664.5 120.5L723.113 154.34L753.112 137.019L694.5 103.179Z" stroke="#DFDFDF" stroke-opacity="0.5"/>
<path d="M635.887 101.34L635.888 135.981L694.5 102.141L694.5 67.5L635.887 101.34Z" stroke="#DFDFDF" stroke-opacity="0.5"/>
<path d="M694.5 102.18L724.5 119.5V51.82L694.5 34.5V102.18Z" stroke="#DFDFDF" stroke-opacity="0.5"/>
<path d="M782.5 155.179L752.5 172.5L811.113 206.34L841.112 189.019L782.5 155.179Z" stroke="#DFDFDF" stroke-opacity="0.5"/>
<path d="M723.887 153.34L723.888 187.981L782.5 154.141L782.5 119.5L723.887 153.34Z" stroke="#DFDFDF" stroke-opacity="0.5"/>
<path d="M782.5 154.18L812.5 171.5V103.82L782.5 86.5V154.18Z" stroke="#DFDFDF" stroke-opacity="0.5"/>
<path d="M870.5 207.179L840.5 224.5L899.113 258.34L929.112 241.019L870.5 207.179Z" stroke="#DFDFDF" stroke-opacity="0.5"/>
<path d="M811.887 205.34L811.888 239.981L870.5 206.141L870.5 171.5L811.887 205.34Z" stroke="#DFDFDF" stroke-opacity="0.5"/>
<path d="M870.5 206.18L900.5 223.5V155.82L870.5 138.5V206.18Z" stroke="#DFDFDF" stroke-opacity="0.5"/>
<path d="M871.5 103.179L841.5 120.5L900.113 154.34L930.112 137.019L871.5 103.179Z" stroke="#DFDFDF" stroke-opacity="0.5"/>
<path d="M812.887 101.34L812.888 135.981L871.5 102.141L871.5 67.5L812.887 101.34Z" stroke="#DFDFDF" stroke-opacity="0.5"/>
<path d="M871.5 102.18L901.5 119.5V51.82L871.5 34.5V102.18Z" stroke="#DFDFDF" stroke-opacity="0.5"/>
<path d="M959.5 155.179L929.5 172.5L988.113 206.34L1018.11 189.019L959.5 155.179Z" stroke="#DFDFDF" stroke-opacity="0.5"/>
<path d="M900.887 153.34L900.888 187.981L959.5 154.141L959.5 119.5L900.887 153.34Z" stroke="#DFDFDF" stroke-opacity="0.5"/>
<path d="M959.5 154.18L989.5 171.5V103.82L959.5 86.5V154.18Z" stroke="#DFDFDF" stroke-opacity="0.5"/>
<path d="M1047.5 207.179L1017.5 224.5L1076.11 258.34L1106.11 241.019L1047.5 207.179Z" stroke="#DFDFDF" stroke-opacity="0.5"/>
<path d="M988.887 205.34L988.888 239.981L1047.5 206.141L1047.5 171.5L988.887 205.34Z" stroke="#DFDFDF" stroke-opacity="0.5"/>
<path d="M1047.5 206.18L1077.5 223.5V155.82L1047.5 138.5V206.18Z" stroke="#DFDFDF" stroke-opacity="0.5"/>
<path d="M1048.5 103.179L1018.5 120.5L1077.11 154.34L1107.11 137.019L1048.5 103.179Z" stroke="#DFDFDF" stroke-opacity="0.5"/>
<path d="M989.887 101.34L989.888 135.981L1048.5 102.141L1048.5 67.5L989.887 101.34Z" stroke="#DFDFDF" stroke-opacity="0.5"/>
<path d="M1048.5 102.18L1078.5 119.5V51.82L1048.5 34.5V102.18Z" stroke="#DFDFDF" stroke-opacity="0.5"/>
<path d="M1136.5 155.179L1106.5 172.5L1165.11 206.34L1195.11 189.019L1136.5 155.179Z" stroke="#DFDFDF" stroke-opacity="0.5"/>
<path d="M1077.89 153.34L1077.89 187.981L1136.5 154.141L1136.5 119.5L1077.89 153.34Z" stroke="#DFDFDF" stroke-opacity="0.5"/>
<path d="M1136.5 154.18L1166.5 171.5V103.82L1136.5 86.5V154.18Z" stroke="#DFDFDF" stroke-opacity="0.5"/>
<path d="M1224.5 207.179L1194.5 224.5L1253.11 258.34L1283.11 241.019L1224.5 207.179Z" stroke="#DFDFDF" stroke-opacity="0.5"/>
<path d="M1165.89 205.34L1165.89 239.981L1224.5 206.141L1224.5 171.5L1165.89 205.34Z" stroke="#DFDFDF" stroke-opacity="0.5"/>
<path d="M1224.5 206.18L1254.5 223.5V155.82L1224.5 138.5V206.18Z" stroke="#DFDFDF" stroke-opacity="0.5"/>
<path d="M1225.5 103.179L1195.5 120.5L1254.11 154.34L1284.11 137.019L1225.5 103.179Z" stroke="#DFDFDF" stroke-opacity="0.5"/>
<path d="M1166.89 101.34L1166.89 135.981L1225.5 102.141L1225.5 67.5L1166.89 101.34Z" stroke="#DFDFDF" stroke-opacity="0.5"/>
<path d="M1225.5 102.18L1255.5 119.5V51.82L1225.5 34.5V102.18Z" stroke="#DFDFDF" stroke-opacity="0.5"/>
<path d="M1313.5 155.179L1283.5 172.5L1342.11 206.34L1372.11 189.019L1313.5 155.179Z" stroke="#DFDFDF" stroke-opacity="0.5"/>
<path d="M1254.89 153.34L1254.89 187.981L1313.5 154.141L1313.5 119.5L1254.89 153.34Z" stroke="#DFDFDF" stroke-opacity="0.5"/>
<path d="M1313.5 154.18L1343.5 171.5V103.82L1313.5 86.5V154.18Z" stroke="#DFDFDF" stroke-opacity="0.5"/>
<path d="M1401.5 207.179L1371.5 224.5L1430.11 258.34L1460.11 241.019L1401.5 207.179Z" stroke="#DFDFDF" stroke-opacity="0.5"/>
<path d="M1342.89 205.34L1342.89 239.981L1401.5 206.141L1401.5 171.5L1342.89 205.34Z" stroke="#DFDFDF" stroke-opacity="0.5"/>
<path d="M1401.5 206.18L1431.5 223.5V155.82L1401.5 138.5V206.18Z" stroke="#DFDFDF" stroke-opacity="0.5"/>
<path d="M1402.5 103.179L1372.5 120.5L1431.11 154.34L1461.11 137.019L1402.5 103.179Z" stroke="#DFDFDF" stroke-opacity="0.5"/>
<path d="M1343.89 101.34L1343.89 135.981L1402.5 102.141L1402.5 67.5L1343.89 101.34Z" stroke="#DFDFDF" stroke-opacity="0.5"/>
<path d="M1402.5 102.18L1432.5 119.5V51.82L1402.5 34.5V102.18Z" stroke="#DFDFDF" stroke-opacity="0.5"/>
<path d="M1431.89 153.34L1431.89 187.981L1490.5 154.141L1490.5 119.5L1431.89 153.34Z" stroke="#DFDFDF" stroke-opacity="0.5"/>
<path d="M-13.5004 207.179L-43.5 224.5L15.1126 258.34L45.1122 241.019L-13.5004 207.179Z" stroke="#DFDFDF" stroke-opacity="0.5"/>
<path d="M-72.1126 205.34L-72.1122 239.981L-13.4996 206.141L-13.5 171.5L-72.1126 205.34Z" stroke="#DFDFDF" stroke-opacity="0.5"/>
<path d="M-13.5 206.18L16.5 223.5L16.5 155.82L-13.5 138.5L-13.5 206.18Z" stroke="#DFDFDF" stroke-opacity="0.5"/>
<path d="M74.4996 259.179L44.5 276.5L103.113 310.34L133.112 293.019L74.4996 259.179Z" stroke="#DFDFDF" stroke-opacity="0.5"/>
<path d="M15.8874 257.34L15.8878 291.981L74.5004 258.141L74.5 223.5L15.8874 257.34Z" stroke="#DFDFDF" stroke-opacity="0.5"/>
<path d="M74.5 258.18L104.5 275.5V207.82L74.5 190.5V258.18Z" stroke="#DFDFDF" stroke-opacity="0.5"/>
<path d="M162.5 311.179L132.5 328.5L191.113 362.34L221.112 345.019L162.5 311.179Z" stroke="#DFDFDF" stroke-opacity="0.5"/>
<path d="M103.887 309.34L103.888 343.981L162.5 310.141L162.5 275.5L103.887 309.34Z" stroke="#DFDFDF" stroke-opacity="0.5"/>
<path d="M162.5 310.18L192.5 327.5V259.82L162.5 242.5V310.18Z" stroke="#DFDFDF" stroke-opacity="0.5"/>
<path d="M163.5 207.179L133.5 224.5L192.113 258.34L222.112 241.019L163.5 207.179Z" stroke="#DFDFDF" stroke-opacity="0.5"/>
<path d="M104.887 205.34L104.888 239.981L163.5 206.141L163.5 171.5L104.887 205.34Z" stroke="#DFDFDF" stroke-opacity="0.5"/>
<path d="M163.5 206.18L193.5 223.5V155.82L163.5 138.5V206.18Z" stroke="#DFDFDF" stroke-opacity="0.5"/>
<path d="M251.5 259.179L221.5 276.5L280.113 310.34L310.112 293.019L251.5 259.179Z" stroke="#DFDFDF" stroke-opacity="0.5"/>
<path d="M192.887 257.34L192.888 291.981L251.5 258.141L251.5 223.5L192.887 257.34Z" stroke="#DFDFDF" stroke-opacity="0.5"/>
<path d="M251.5 258.18L281.5 275.5V207.82L251.5 190.5V258.18Z" stroke="#DFDFDF" stroke-opacity="0.5"/>
<path d="M339.5 311.179L309.5 328.5L368.113 362.34L398.112 345.019L339.5 311.179Z" stroke="#DFDFDF" stroke-opacity="0.5"/>
<path d="M280.887 309.34L280.888 343.981L339.5 310.141L339.5 275.5L280.887 309.34Z" stroke="#DFDFDF" stroke-opacity="0.5"/>
<path d="M339.5 310.18L369.5 327.5V259.82L339.5 242.5V310.18Z" stroke="#DFDFDF" stroke-opacity="0.5"/>
<path d="M340.5 207.179L310.5 224.5L369.113 258.34L399.112 241.019L340.5 207.179Z" stroke="#DFDFDF" stroke-opacity="0.5"/>
<path d="M281.887 205.34L281.888 239.981L340.5 206.141L340.5 171.5L281.887 205.34Z" stroke="#DFDFDF" stroke-opacity="0.5"/>
<path d="M340.5 206.18L370.5 223.5V155.82L340.5 138.5V206.18Z" stroke="#DFDFDF" stroke-opacity="0.5"/>
<path d="M428.5 259.179L398.5 276.5L457.113 310.34L487.112 293.019L428.5 259.179Z" stroke="#DFDFDF" stroke-opacity="0.5"/>
<path d="M369.887 257.34L369.888 291.981L428.5 258.141L428.5 223.5L369.887 257.34Z" stroke="#DFDFDF" stroke-opacity="0.5"/>
<path d="M428.5 258.18L458.5 275.5V207.82L428.5 190.5V258.18Z" stroke="#DFDFDF" stroke-opacity="0.5"/>
<path d="M516.5 311.179L486.5 328.5L545.113 362.34L575.112 345.019L516.5 311.179Z" stroke="#DFDFDF" stroke-opacity="0.5"/>
<path d="M457.887 309.34L457.888 343.981L516.5 310.141L516.5 275.5L457.887 309.34Z" stroke="#DFDFDF" stroke-opacity="0.5"/>
<path d="M516.5 310.18L546.5 327.5V259.82L516.5 242.5V310.18Z" stroke="#DFDFDF" stroke-opacity="0.5"/>
<path d="M517.5 207.179L487.5 224.5L546.113 258.34L576.112 241.019L517.5 207.179Z" stroke="#DFDFDF" stroke-opacity="0.5"/>
<path d="M458.887 205.34L458.888 239.981L517.5 206.141L517.5 171.5L458.887 205.34Z" stroke="#DFDFDF" stroke-opacity="0.5"/>
<path d="M517.5 206.18L547.5 223.5V155.82L517.5 138.5V206.18Z" stroke="#DFDFDF" stroke-opacity="0.5"/>
<path d="M605.5 259.179L575.5 276.5L634.113 310.34L664.112 293.019L605.5 259.179Z" stroke="#DFDFDF" stroke-opacity="0.5"/>
<path d="M546.887 257.34L546.888 291.981L605.5 258.141L605.5 223.5L546.887 257.34Z" stroke="#DFDFDF" stroke-opacity="0.5"/>
<path d="M605.5 258.18L635.5 275.5V207.82L605.5 190.5V258.18Z" stroke="#DFDFDF" stroke-opacity="0.5"/>
<path d="M693.5 311.179L663.5 328.5L722.113 362.34L752.112 345.019L693.5 311.179Z" stroke="#DFDFDF" stroke-opacity="0.5"/>
<path d="M634.887 309.34L634.888 343.981L693.5 310.141L693.5 275.5L634.887 309.34Z" stroke="#DFDFDF" stroke-opacity="0.5"/>
<path d="M693.5 310.18L723.5 327.5V259.82L693.5 242.5V310.18Z" stroke="#DFDFDF" stroke-opacity="0.5"/>
<path d="M694.5 207.179L664.5 224.5L723.113 258.34L753.112 241.019L694.5 207.179Z" stroke="#DFDFDF" stroke-opacity="0.5"/>
<path d="M635.887 205.34L635.888 239.981L694.5 206.141L694.5 171.5L635.887 205.34Z" stroke="#DFDFDF" stroke-opacity="0.5"/>
<path d="M694.5 206.18L724.5 223.5V155.82L694.5 138.5V206.18Z" stroke="#DFDFDF" stroke-opacity="0.5"/>
<path d="M782.5 259.179L752.5 276.5L811.113 310.34L841.112 293.019L782.5 259.179Z" stroke="#DFDFDF" stroke-opacity="0.5"/>
<path d="M723.887 257.34L723.888 291.981L782.5 258.141L782.5 223.5L723.887 257.34Z" stroke="#DFDFDF" stroke-opacity="0.5"/>
<path d="M782.5 258.18L812.5 275.5V207.82L782.5 190.5V258.18Z" stroke="#DFDFDF" stroke-opacity="0.5"/>
<path d="M870.5 311.179L840.5 328.5L899.113 362.34L929.112 345.019L870.5 311.179Z" stroke="#DFDFDF" stroke-opacity="0.5"/>
<path d="M811.887 309.34L811.888 343.981L870.5 310.141L870.5 275.5L811.887 309.34Z" stroke="#DFDFDF" stroke-opacity="0.5"/>
<path d="M870.5 310.18L900.5 327.5V259.82L870.5 242.5V310.18Z" stroke="#DFDFDF" stroke-opacity="0.5"/>
<path d="M871.5 207.179L841.5 224.5L900.113 258.34L930.112 241.019L871.5 207.179Z" stroke="#DFDFDF" stroke-opacity="0.5"/>
<path d="M812.887 205.34L812.888 239.981L871.5 206.141L871.5 171.5L812.887 205.34Z" stroke="#DFDFDF" stroke-opacity="0.5"/>
<path d="M871.5 206.18L901.5 223.5V155.82L871.5 138.5V206.18Z" stroke="#DFDFDF" stroke-opacity="0.5"/>
<path d="M959.5 259.179L929.5 276.5L988.113 310.34L1018.11 293.019L959.5 259.179Z" stroke="#DFDFDF" stroke-opacity="0.5"/>
<path d="M900.887 257.34L900.888 291.981L959.5 258.141L959.5 223.5L900.887 257.34Z" stroke="#DFDFDF" stroke-opacity="0.5"/>
<path d="M959.5 258.18L989.5 275.5V207.82L959.5 190.5V258.18Z" stroke="#DFDFDF" stroke-opacity="0.5"/>
<path d="M1047.5 311.179L1017.5 328.5L1076.11 362.34L1106.11 345.019L1047.5 311.179Z" stroke="#DFDFDF" stroke-opacity="0.5"/>
<path d="M988.887 309.34L988.888 343.981L1047.5 310.141L1047.5 275.5L988.887 309.34Z" stroke="#DFDFDF" stroke-opacity="0.5"/>
<path d="M1047.5 310.18L1077.5 327.5V259.82L1047.5 242.5V310.18Z" stroke="#DFDFDF" stroke-opacity="0.5"/>
<path d="M1048.5 207.179L1018.5 224.5L1077.11 258.34L1107.11 241.019L1048.5 207.179Z" stroke="#DFDFDF" stroke-opacity="0.5"/>
<path d="M989.887 205.34L989.888 239.981L1048.5 206.141L1048.5 171.5L989.887 205.34Z" stroke="#DFDFDF" stroke-opacity="0.5"/>
<path d="M1048.5 206.18L1078.5 223.5V155.82L1048.5 138.5V206.18Z" stroke="#DFDFDF" stroke-opacity="0.5"/>
<path d="M1136.5 259.179L1106.5 276.5L1165.11 310.34L1195.11 293.019L1136.5 259.179Z" stroke="#DFDFDF" stroke-opacity="0.5"/>
<path d="M1077.89 257.34L1077.89 291.981L1136.5 258.141L1136.5 223.5L1077.89 257.34Z" stroke="#DFDFDF" stroke-opacity="0.5"/>
<path d="M1136.5 258.18L1166.5 275.5V207.82L1136.5 190.5V258.18Z" stroke="#DFDFDF" stroke-opacity="0.5"/>
<path d="M1224.5 311.179L1194.5 328.5L1253.11 362.34L1283.11 345.019L1224.5 311.179Z" stroke="#DFDFDF" stroke-opacity="0.5"/>
<path d="M1165.89 309.34L1165.89 343.981L1224.5 310.141L1224.5 275.5L1165.89 309.34Z" stroke="#DFDFDF" stroke-opacity="0.5"/>
<path d="M1224.5 310.18L1254.5 327.5V259.82L1224.5 242.5V310.18Z" stroke="#DFDFDF" stroke-opacity="0.5"/>
<path d="M1225.5 207.179L1195.5 224.5L1254.11 258.34L1284.11 241.019L1225.5 207.179Z" stroke="#DFDFDF" stroke-opacity="0.5"/>
<path d="M1166.89 205.34L1166.89 239.981L1225.5 206.141L1225.5 171.5L1166.89 205.34Z" stroke="#DFDFDF" stroke-opacity="0.5"/>
<path d="M1225.5 206.18L1255.5 223.5V155.82L1225.5 138.5V206.18Z" stroke="#DFDFDF" stroke-opacity="0.5"/>
<path d="M1313.5 259.179L1283.5 276.5L1342.11 310.34L1372.11 293.019L1313.5 259.179Z" stroke="#DFDFDF" stroke-opacity="0.5"/>
<path d="M1254.89 257.34L1254.89 291.981L1313.5 258.141L1313.5 223.5L1254.89 257.34Z" stroke="#DFDFDF" stroke-opacity="0.5"/>
<path d="M1313.5 258.18L1343.5 275.5V207.82L1313.5 190.5V258.18Z" stroke="#DFDFDF" stroke-opacity="0.5"/>
<path d="M1401.5 311.179L1371.5 328.5L1430.11 362.34L1460.11 345.019L1401.5 311.179Z" stroke="#DFDFDF" stroke-opacity="0.5"/>
<path d="M1342.89 309.34L1342.89 343.981L1401.5 310.141L1401.5 275.5L1342.89 309.34Z" stroke="#DFDFDF" stroke-opacity="0.5"/>
<path d="M1401.5 310.18L1431.5 327.5V259.82L1401.5 242.5V310.18Z" stroke="#DFDFDF" stroke-opacity="0.5"/>
<path d="M1402.5 207.179L1372.5 224.5L1431.11 258.34L1461.11 241.019L1402.5 207.179Z" stroke="#DFDFDF" stroke-opacity="0.5"/>
<path d="M1343.89 205.34L1343.89 239.981L1402.5 206.141L1402.5 171.5L1343.89 205.34Z" stroke="#DFDFDF" stroke-opacity="0.5"/>
<path d="M1402.5 206.18L1432.5 223.5V155.82L1402.5 138.5V206.18Z" stroke="#DFDFDF" stroke-opacity="0.5"/>
<path d="M1431.89 257.34L1431.89 291.981L1490.5 258.141L1490.5 223.5L1431.89 257.34Z" stroke="#DFDFDF" stroke-opacity="0.5"/>
<path d="M-13.5004 311.179L-43.5 328.5L15.1126 362.34L45.1122 345.019L-13.5004 311.179Z" stroke="#DFDFDF" stroke-opacity="0.5"/>
<path d="M-72.1126 309.34L-72.1122 343.981L-13.4996 310.141L-13.5 275.5L-72.1126 309.34Z" stroke="#DFDFDF" stroke-opacity="0.5"/>
<path d="M-13.5 310.18L16.5 327.5L16.5 259.82L-13.5 242.5L-13.5 310.18Z" stroke="#DFDFDF" stroke-opacity="0.5"/>
<path d="M74.4996 363.179L44.5 380.5L103.113 414.34L133.112 397.019L74.4996 363.179Z" stroke="#DFDFDF" stroke-opacity="0.5"/>
<path d="M15.8874 361.34L15.8878 395.981L74.5004 362.141L74.5 327.5L15.8874 361.34Z" stroke="#DFDFDF" stroke-opacity="0.5"/>
<path d="M74.5 362.18L104.5 379.5V311.82L74.5 294.5V362.18Z" stroke="#DFDFDF" stroke-opacity="0.5"/>
<path d="M162.5 415.179L132.5 432.5L191.113 466.34L221.112 449.019L162.5 415.179Z" stroke="#DFDFDF" stroke-opacity="0.5"/>
<path d="M103.887 413.34L103.888 447.981L162.5 414.141L162.5 379.5L103.887 413.34Z" stroke="#DFDFDF" stroke-opacity="0.5"/>
<path d="M162.5 414.18L192.5 431.5V363.82L162.5 346.5V414.18Z" stroke="#DFDFDF" stroke-opacity="0.5"/>
<path d="M163.5 311.179L133.5 328.5L192.113 362.34L222.112 345.019L163.5 311.179Z" stroke="#DFDFDF" stroke-opacity="0.5"/>
<path d="M104.887 309.34L104.888 343.981L163.5 310.141L163.5 275.5L104.887 309.34Z" stroke="#DFDFDF" stroke-opacity="0.5"/>
<path d="M163.5 310.18L193.5 327.5V259.82L163.5 242.5V310.18Z" stroke="#DFDFDF" stroke-opacity="0.5"/>
<path d="M251.5 363.179L221.5 380.5L280.113 414.34L310.112 397.019L251.5 363.179Z" stroke="#DFDFDF" stroke-opacity="0.5"/>
<path d="M192.887 361.34L192.888 395.981L251.5 362.141L251.5 327.5L192.887 361.34Z" stroke="#DFDFDF" stroke-opacity="0.5"/>
<path d="M251.5 362.18L281.5 379.5V311.82L251.5 294.5V362.18Z" stroke="#DFDFDF" stroke-opacity="0.5"/>
<path d="M339.5 415.179L309.5 432.5L368.113 466.34L398.112 449.019L339.5 415.179Z" stroke="#DFDFDF" stroke-opacity="0.5"/>
<path d="M280.887 413.34L280.888 447.981L339.5 414.141L339.5 379.5L280.887 413.34Z" stroke="#DFDFDF" stroke-opacity="0.5"/>
<path d="M339.5 414.18L369.5 431.5V363.82L339.5 346.5V414.18Z" stroke="#DFDFDF" stroke-opacity="0.5"/>
<path d="M340.5 311.179L310.5 328.5L369.113 362.34L399.112 345.019L340.5 311.179Z" stroke="#DFDFDF" stroke-opacity="0.5"/>
<path d="M281.887 309.34L281.888 343.981L340.5 310.141L340.5 275.5L281.887 309.34Z" stroke="#DFDFDF" stroke-opacity="0.5"/>
<path d="M340.5 310.18L370.5 327.5V259.82L340.5 242.5V310.18Z" stroke="#DFDFDF" stroke-opacity="0.5"/>
<path d="M428.5 363.179L398.5 380.5L457.113 414.34L487.112 397.019L428.5 363.179Z" stroke="#DFDFDF" stroke-opacity="0.5"/>
<path d="M369.887 361.34L369.888 395.981L428.5 362.141L428.5 327.5L369.887 361.34Z" stroke="#DFDFDF" stroke-opacity="0.5"/>
<path d="M428.5 362.18L458.5 379.5V311.82L428.5 294.5V362.18Z" stroke="#DFDFDF" stroke-opacity="0.5"/>
<path d="M516.5 415.179L486.5 432.5L545.113 466.34L575.112 449.019L516.5 415.179Z" stroke="#DFDFDF" stroke-opacity="0.5"/>
<path d="M457.887 413.34L457.888 447.981L516.5 414.141L516.5 379.5L457.887 413.34Z" stroke="#DFDFDF" stroke-opacity="0.5"/>
<path d="M516.5 414.18L546.5 431.5V363.82L516.5 346.5V414.18Z" stroke="#DFDFDF" stroke-opacity="0.5"/>
<path d="M517.5 311.179L487.5 328.5L546.113 362.34L576.112 345.019L517.5 311.179Z" stroke="#DFDFDF" stroke-opacity="0.5"/>
<path d="M458.887 309.34L458.888 343.981L517.5 310.141L517.5 275.5L458.887 309.34Z" stroke="#DFDFDF" stroke-opacity="0.5"/>
<path d="M517.5 310.18L547.5 327.5V259.82L517.5 242.5V310.18Z" stroke="#DFDFDF" stroke-opacity="0.5"/>
<path d="M605.5 363.179L575.5 380.5L634.113 414.34L664.112 397.019L605.5 363.179Z" stroke="#DFDFDF" stroke-opacity="0.5"/>
<path d="M546.887 361.34L546.888 395.981L605.5 362.141L605.5 327.5L546.887 361.34Z" stroke="#DFDFDF" stroke-opacity="0.5"/>
<path d="M605.5 362.18L635.5 379.5V311.82L605.5 294.5V362.18Z" stroke="#DFDFDF" stroke-opacity="0.5"/>
<path d="M693.5 415.179L663.5 432.5L722.113 466.34L752.112 449.019L693.5 415.179Z" stroke="#DFDFDF" stroke-opacity="0.5"/>
<path d="M634.887 413.34L634.888 447.981L693.5 414.141L693.5 379.5L634.887 413.34Z" stroke="#DFDFDF" stroke-opacity="0.5"/>
<path d="M693.5 414.18L723.5 431.5V363.82L693.5 346.5V414.18Z" stroke="#DFDFDF" stroke-opacity="0.5"/>
<path d="M694.5 311.179L664.5 328.5L723.113 362.34L753.112 345.019L694.5 311.179Z" stroke="#DFDFDF" stroke-opacity="0.5"/>
<path d="M635.887 309.34L635.888 343.981L694.5 310.141L694.5 275.5L635.887 309.34Z" stroke="#DFDFDF" stroke-opacity="0.5"/>
<path d="M694.5 310.18L724.5 327.5V259.82L694.5 242.5V310.18Z" stroke="#DFDFDF" stroke-opacity="0.5"/>
<path d="M782.5 363.179L752.5 380.5L811.113 414.34L841.112 397.019L782.5 363.179Z" stroke="#DFDFDF" stroke-opacity="0.5"/>
<path d="M723.887 361.34L723.888 395.981L782.5 362.141L782.5 327.5L723.887 361.34Z" stroke="#DFDFDF" stroke-opacity="0.5"/>
<path d="M782.5 362.18L812.5 379.5V311.82L782.5 294.5V362.18Z" stroke="#DFDFDF" stroke-opacity="0.5"/>
<path d="M870.5 415.179L840.5 432.5L899.113 466.34L929.112 449.019L870.5 415.179Z" stroke="#DFDFDF" stroke-opacity="0.5"/>
<path d="M811.887 413.34L811.888 447.981L870.5 414.141L870.5 379.5L811.887 413.34Z" stroke="#DFDFDF" stroke-opacity="0.5"/>
<path d="M870.5 414.18L900.5 431.5V363.82L870.5 346.5V414.18Z" stroke="#DFDFDF" stroke-opacity="0.5"/>
<path d="M871.5 311.179L841.5 328.5L900.113 362.34L930.112 345.019L871.5 311.179Z" stroke="#DFDFDF" stroke-opacity="0.5"/>
<path d="M812.887 309.34L812.888 343.981L871.5 310.141L871.5 275.5L812.887 309.34Z" stroke="#DFDFDF" stroke-opacity="0.5"/>
<path d="M871.5 310.18L901.5 327.5V259.82L871.5 242.5V310.18Z" stroke="#DFDFDF" stroke-opacity="0.5"/>
<path d="M959.5 363.179L929.5 380.5L988.113 414.34L1018.11 397.019L959.5 363.179Z" stroke="#DFDFDF" stroke-opacity="0.5"/>
<path d="M900.887 361.34L900.888 395.981L959.5 362.141L959.5 327.5L900.887 361.34Z" stroke="#DFDFDF" stroke-opacity="0.5"/>
<path d="M959.5 362.18L989.5 379.5V311.82L959.5 294.5V362.18Z" stroke="#DFDFDF" stroke-opacity="0.5"/>
<path d="M1047.5 415.179L1017.5 432.5L1076.11 466.34L1106.11 449.019L1047.5 415.179Z" stroke="#DFDFDF" stroke-opacity="0.5"/>
<path d="M988.887 413.34L988.888 447.981L1047.5 414.141L1047.5 379.5L988.887 413.34Z" stroke="#DFDFDF" stroke-opacity="0.5"/>
<path d="M1047.5 414.18L1077.5 431.5V363.82L1047.5 346.5V414.18Z" stroke="#DFDFDF" stroke-opacity="0.5"/>
<path d="M1048.5 311.179L1018.5 328.5L1077.11 362.34L1107.11 345.019L1048.5 311.179Z" stroke="#DFDFDF" stroke-opacity="0.5"/>
<path d="M989.887 309.34L989.888 343.981L1048.5 310.141L1048.5 275.5L989.887 309.34Z" stroke="#DFDFDF" stroke-opacity="0.5"/>
<path d="M1048.5 310.18L1078.5 327.5V259.82L1048.5 242.5V310.18Z" stroke="#DFDFDF" stroke-opacity="0.5"/>
<path d="M1136.5 363.179L1106.5 380.5L1165.11 414.34L1195.11 397.019L1136.5 363.179Z" stroke="#DFDFDF" stroke-opacity="0.5"/>
<path d="M1077.89 361.34L1077.89 395.981L1136.5 362.141L1136.5 327.5L1077.89 361.34Z" stroke="#DFDFDF" stroke-opacity="0.5"/>
<path d="M1136.5 362.18L1166.5 379.5V311.82L1136.5 294.5V362.18Z" stroke="#DFDFDF" stroke-opacity="0.5"/>
<path d="M1224.5 415.179L1194.5 432.5L1253.11 466.34L1283.11 449.019L1224.5 415.179Z" stroke="#DFDFDF" stroke-opacity="0.5"/>
<path d="M1165.89 413.34L1165.89 447.981L1224.5 414.141L1224.5 379.5L1165.89 413.34Z" stroke="#DFDFDF" stroke-opacity="0.5"/>
<path d="M1224.5 414.18L1254.5 431.5V363.82L1224.5 346.5V414.18Z" stroke="#DFDFDF" stroke-opacity="0.5"/>
<path d="M1225.5 311.179L1195.5 328.5L1254.11 362.34L1284.11 345.019L1225.5 311.179Z" stroke="#DFDFDF" stroke-opacity="0.5"/>
<path d="M1166.89 309.34L1166.89 343.981L1225.5 310.141L1225.5 275.5L1166.89 309.34Z" stroke="#DFDFDF" stroke-opacity="0.5"/>
<path d="M1225.5 310.18L1255.5 327.5V259.82L1225.5 242.5V310.18Z" stroke="#DFDFDF" stroke-opacity="0.5"/>
<path d="M1313.5 363.179L1283.5 380.5L1342.11 414.34L1372.11 397.019L1313.5 363.179Z" stroke="#DFDFDF" stroke-opacity="0.5"/>
<path d="M1254.89 361.34L1254.89 395.981L1313.5 362.141L1313.5 327.5L1254.89 361.34Z" stroke="#DFDFDF" stroke-opacity="0.5"/>
<path d="M1313.5 362.18L1343.5 379.5V311.82L1313.5 294.5V362.18Z" stroke="#DFDFDF" stroke-opacity="0.5"/>
<path d="M1401.5 415.179L1371.5 432.5L1430.11 466.34L1460.11 449.019L1401.5 415.179Z" stroke="#DFDFDF" stroke-opacity="0.5"/>
<path d="M1342.89 413.34L1342.89 447.981L1401.5 414.141L1401.5 379.5L1342.89 413.34Z" stroke="#DFDFDF" stroke-opacity="0.5"/>
<path d="M1401.5 414.18L1431.5 431.5V363.82L1401.5 346.5V414.18Z" stroke="#DFDFDF" stroke-opacity="0.5"/>
<path d="M1402.5 311.179L1372.5 328.5L1431.11 362.34L1461.11 345.019L1402.5 311.179Z" stroke="#DFDFDF" stroke-opacity="0.5"/>
<path d="M1343.89 309.34L1343.89 343.981L1402.5 310.141L1402.5 275.5L1343.89 309.34Z" stroke="#DFDFDF" stroke-opacity="0.5"/>
<path d="M1402.5 310.18L1432.5 327.5V259.82L1402.5 242.5V310.18Z" stroke="#DFDFDF" stroke-opacity="0.5"/>
<path d="M1431.89 361.34L1431.89 395.981L1490.5 362.141L1490.5 327.5L1431.89 361.34Z" stroke="#DFDFDF" stroke-opacity="0.5"/>
<path d="M-13.5004 415.179L-43.5 432.5L15.1126 466.34L45.1122 449.019L-13.5004 415.179Z" stroke="#DFDFDF" stroke-opacity="0.5"/>
<path d="M-72.1126 413.34L-72.1122 447.981L-13.4996 414.141L-13.5 379.5L-72.1126 413.34Z" stroke="#DFDFDF" stroke-opacity="0.5"/>
<path d="M-13.5 414.18L16.5 431.5L16.5 363.82L-13.5 346.5L-13.5 414.18Z" stroke="#DFDFDF" stroke-opacity="0.5"/>
<path d="M74.4996 467.179L44.5 484.5L103.113 518.34L133.112 501.019L74.4996 467.179Z" stroke="#DFDFDF" stroke-opacity="0.5"/>
<path d="M15.8874 465.34L15.8878 499.981L74.5004 466.141L74.5 431.5L15.8874 465.34Z" stroke="#DFDFDF" stroke-opacity="0.5"/>
<path d="M74.5 466.18L104.5 483.5V415.82L74.5 398.5V466.18Z" stroke="#DFDFDF" stroke-opacity="0.5"/>
<path d="M162.5 519.179L132.5 536.5L191.113 570.34L221.112 553.019L162.5 519.179Z" stroke="#DFDFDF" stroke-opacity="0.5"/>
<path d="M103.887 517.34L103.888 551.981L162.5 518.141L162.5 483.5L103.887 517.34Z" stroke="#DFDFDF" stroke-opacity="0.5"/>
<path d="M162.5 518.18L192.5 535.5V467.82L162.5 450.5V518.18Z" stroke="#DFDFDF" stroke-opacity="0.5"/>
<path d="M163.5 415.179L133.5 432.5L192.113 466.34L222.112 449.019L163.5 415.179Z" stroke="#DFDFDF" stroke-opacity="0.5"/>
<path d="M104.887 413.34L104.888 447.981L163.5 414.141L163.5 379.5L104.887 413.34Z" stroke="#DFDFDF" stroke-opacity="0.5"/>
<path d="M163.5 414.18L193.5 431.5V363.82L163.5 346.5V414.18Z" stroke="#DFDFDF" stroke-opacity="0.5"/>
<path d="M251.5 467.179L221.5 484.5L280.113 518.34L310.112 501.019L251.5 467.179Z" stroke="#DFDFDF" stroke-opacity="0.5"/>
<path d="M192.887 465.34L192.888 499.981L251.5 466.141L251.5 431.5L192.887 465.34Z" stroke="#DFDFDF" stroke-opacity="0.5"/>
<path d="M251.5 466.18L281.5 483.5V415.82L251.5 398.5V466.18Z" stroke="#DFDFDF" stroke-opacity="0.5"/>
<path d="M339.5 519.179L309.5 536.5L368.113 570.34L398.112 553.019L339.5 519.179Z" stroke="#DFDFDF" stroke-opacity="0.5"/>
<path d="M280.887 517.34L280.888 551.981L339.5 518.141L339.5 483.5L280.887 517.34Z" stroke="#DFDFDF" stroke-opacity="0.5"/>
<path d="M339.5 518.18L369.5 535.5V467.82L339.5 450.5V518.18Z" stroke="#DFDFDF" stroke-opacity="0.5"/>
<path d="M340.5 415.179L310.5 432.5L369.113 466.34L399.112 449.019L340.5 415.179Z" stroke="#DFDFDF" stroke-opacity="0.5"/>
<path d="M281.887 413.34L281.888 447.981L340.5 414.141L340.5 379.5L281.887 413.34Z" stroke="#DFDFDF" stroke-opacity="0.5"/>
<path d="M340.5 414.18L370.5 431.5V363.82L340.5 346.5V414.18Z" stroke="#DFDFDF" stroke-opacity="0.5"/>
<path d="M428.5 467.179L398.5 484.5L457.113 518.34L487.112 501.019L428.5 467.179Z" stroke="#DFDFDF" stroke-opacity="0.5"/>
<path d="M369.887 465.34L369.888 499.981L428.5 466.141L428.5 431.5L369.887 465.34Z" stroke="#DFDFDF" stroke-opacity="0.5"/>
<path d="M428.5 466.18L458.5 483.5V415.82L428.5 398.5V466.18Z" stroke="#DFDFDF" stroke-opacity="0.5"/>
<path d="M516.5 519.179L486.5 536.5L545.113 570.34L575.112 553.019L516.5 519.179Z" stroke="#DFDFDF" stroke-opacity="0.5"/>
<path d="M457.887 517.34L457.888 551.981L516.5 518.141L516.5 483.5L457.887 517.34Z" stroke="#DFDFDF" stroke-opacity="0.5"/>
<path d="M516.5 518.18L546.5 535.5V467.82L516.5 450.5V518.18Z" stroke="#DFDFDF" stroke-opacity="0.5"/>
<path d="M517.5 415.179L487.5 432.5L546.113 466.34L576.112 449.019L517.5 415.179Z" stroke="#DFDFDF" stroke-opacity="0.5"/>
<path d="M458.887 413.34L458.888 447.981L517.5 414.141L517.5 379.5L458.887 413.34Z" stroke="#DFDFDF" stroke-opacity="0.5"/>
<path d="M517.5 414.18L547.5 431.5V363.82L517.5 346.5V414.18Z" stroke="#DFDFDF" stroke-opacity="0.5"/>
<path d="M605.5 467.179L575.5 484.5L634.113 518.34L664.112 501.019L605.5 467.179Z" stroke="#DFDFDF" stroke-opacity="0.5"/>
<path d="M546.887 465.34L546.888 499.981L605.5 466.141L605.5 431.5L546.887 465.34Z" stroke="#DFDFDF" stroke-opacity="0.5"/>
<path d="M605.5 466.18L635.5 483.5V415.82L605.5 398.5V466.18Z" stroke="#DFDFDF" stroke-opacity="0.5"/>
<path d="M693.5 519.179L663.5 536.5L722.113 570.34L752.112 553.019L693.5 519.179Z" stroke="#DFDFDF" stroke-opacity="0.5"/>
<path d="M634.887 517.34L634.888 551.981L693.5 518.141L693.5 483.5L634.887 517.34Z" stroke="#DFDFDF" stroke-opacity="0.5"/>
<path d="M693.5 518.18L723.5 535.5V467.82L693.5 450.5V518.18Z" stroke="#DFDFDF" stroke-opacity="0.5"/>
<path d="M694.5 415.179L664.5 432.5L723.113 466.34L753.112 449.019L694.5 415.179Z" stroke="#DFDFDF" stroke-opacity="0.5"/>
<path d="M635.887 413.34L635.888 447.981L694.5 414.141L694.5 379.5L635.887 413.34Z" stroke="#DFDFDF" stroke-opacity="0.5"/>
<path d="M694.5 414.18L724.5 431.5V363.82L694.5 346.5V414.18Z" stroke="#DFDFDF" stroke-opacity="0.5"/>
<path d="M782.5 467.179L752.5 484.5L811.113 518.34L841.112 501.019L782.5 467.179Z" stroke="#DFDFDF" stroke-opacity="0.5"/>
<path d="M723.887 465.34L723.888 499.981L782.5 466.141L782.5 431.5L723.887 465.34Z" stroke="#DFDFDF" stroke-opacity="0.5"/>
<path d="M782.5 466.18L812.5 483.5V415.82L782.5 398.5V466.18Z" stroke="#DFDFDF" stroke-opacity="0.5"/>
<path d="M870.5 519.179L840.5 536.5L899.113 570.34L929.112 553.019L870.5 519.179Z" stroke="#DFDFDF" stroke-opacity="0.5"/>
<path d="M811.887 517.34L811.888 551.981L870.5 518.141L870.5 483.5L811.887 517.34Z" stroke="#DFDFDF" stroke-opacity="0.5"/>
<path d="M870.5 518.18L900.5 535.5V467.82L870.5 450.5V518.18Z" stroke="#DFDFDF" stroke-opacity="0.5"/>
<path d="M871.5 415.179L841.5 432.5L900.113 466.34L930.112 449.019L871.5 415.179Z" stroke="#DFDFDF" stroke-opacity="0.5"/>
<path d="M812.887 413.34L812.888 447.981L871.5 414.141L871.5 379.5L812.887 413.34Z" stroke="#DFDFDF" stroke-opacity="0.5"/>
<path d="M871.5 414.18L901.5 431.5V363.82L871.5 346.5V414.18Z" stroke="#DFDFDF" stroke-opacity="0.5"/>
<path d="M959.5 467.179L929.5 484.5L988.113 518.34L1018.11 501.019L959.5 467.179Z" stroke="#DFDFDF" stroke-opacity="0.5"/>
<path d="M900.887 465.34L900.888 499.981L959.5 466.141L959.5 431.5L900.887 465.34Z" stroke="#DFDFDF" stroke-opacity="0.5"/>
<path d="M959.5 466.18L989.5 483.5V415.82L959.5 398.5V466.18Z" stroke="#DFDFDF" stroke-opacity="0.5"/>
<path d="M1047.5 519.179L1017.5 536.5L1076.11 570.34L1106.11 553.019L1047.5 519.179Z" stroke="#DFDFDF" stroke-opacity="0.5"/>
<path d="M988.887 517.34L988.888 551.981L1047.5 518.141L1047.5 483.5L988.887 517.34Z" stroke="#DFDFDF" stroke-opacity="0.5"/>
<path d="M1047.5 518.18L1077.5 535.5V467.82L1047.5 450.5V518.18Z" stroke="#DFDFDF" stroke-opacity="0.5"/>
<path d="M1048.5 415.179L1018.5 432.5L1077.11 466.34L1107.11 449.019L1048.5 415.179Z" stroke="#DFDFDF" stroke-opacity="0.5"/>
<path d="M989.887 413.34L989.888 447.981L1048.5 414.141L1048.5 379.5L989.887 413.34Z" stroke="#DFDFDF" stroke-opacity="0.5"/>
<path d="M1048.5 414.18L1078.5 431.5V363.82L1048.5 346.5V414.18Z" stroke="#DFDFDF" stroke-opacity="0.5"/>
<path d="M1136.5 467.179L1106.5 484.5L1165.11 518.34L1195.11 501.019L1136.5 467.179Z" stroke="#DFDFDF" stroke-opacity="0.5"/>
<path d="M1077.89 465.34L1077.89 499.981L1136.5 466.141L1136.5 431.5L1077.89 465.34Z" stroke="#DFDFDF" stroke-opacity="0.5"/>
<path d="M1136.5 466.18L1166.5 483.5V415.82L1136.5 398.5V466.18Z" stroke="#DFDFDF" stroke-opacity="0.5"/>
<path d="M1224.5 519.179L1194.5 536.5L1253.11 570.34L1283.11 553.019L1224.5 519.179Z" stroke="#DFDFDF" stroke-opacity="0.5"/>
<path d="M1165.89 517.34L1165.89 551.981L1224.5 518.141L1224.5 483.5L1165.89 517.34Z" stroke="#DFDFDF" stroke-opacity="0.5"/>
<path d="M1224.5 518.18L1254.5 535.5V467.82L1224.5 450.5V518.18Z" stroke="#DFDFDF" stroke-opacity="0.5"/>
<path d="M1225.5 415.179L1195.5 432.5L1254.11 466.34L1284.11 449.019L1225.5 415.179Z" stroke="#DFDFDF" stroke-opacity="0.5"/>
<path d="M1166.89 413.34L1166.89 447.981L1225.5 414.141L1225.5 379.5L1166.89 413.34Z" stroke="#DFDFDF" stroke-opacity="0.5"/>
<path d="M1225.5 414.18L1255.5 431.5V363.82L1225.5 346.5V414.18Z" stroke="#DFDFDF" stroke-opacity="0.5"/>
<path d="M1313.5 467.179L1283.5 484.5L1342.11 518.34L1372.11 501.019L1313.5 467.179Z" stroke="#DFDFDF" stroke-opacity="0.5"/>
<path d="M1254.89 465.34L1254.89 499.981L1313.5 466.141L1313.5 431.5L1254.89 465.34Z" stroke="#DFDFDF" stroke-opacity="0.5"/>
<path d="M1313.5 466.18L1343.5 483.5V415.82L1313.5 398.5V466.18Z" stroke="#DFDFDF" stroke-opacity="0.5"/>
<path d="M1401.5 519.179L1371.5 536.5L1430.11 570.34L1460.11 553.019L1401.5 519.179Z" stroke="#DFDFDF" stroke-opacity="0.5"/>
<path d="M1342.89 517.34L1342.89 551.981L1401.5 518.141L1401.5 483.5L1342.89 517.34Z" stroke="#DFDFDF" stroke-opacity="0.5"/>
<path d="M1401.5 518.18L1431.5 535.5V467.82L1401.5 450.5V518.18Z" stroke="#DFDFDF" stroke-opacity="0.5"/>
<path d="M1402.5 415.179L1372.5 432.5L1431.11 466.34L1461.11 449.019L1402.5 415.179Z" stroke="#DFDFDF" stroke-opacity="0.5"/>
<path d="M1343.89 413.34L1343.89 447.981L1402.5 414.141L1402.5 379.5L1343.89 413.34Z" stroke="#DFDFDF" stroke-opacity="0.5"/>
<path d="M1402.5 414.18L1432.5 431.5V363.82L1402.5 346.5V414.18Z" stroke="#DFDFDF" stroke-opacity="0.5"/>
<path d="M1431.89 465.34L1431.89 499.981L1490.5 466.141L1490.5 431.5L1431.89 465.34Z" stroke="#DFDFDF" stroke-opacity="0.5"/>
<path d="M-13.5004 519.179L-43.5 536.5L15.1126 570.34L45.1122 553.019L-13.5004 519.179Z" stroke="#DFDFDF" stroke-opacity="0.5"/>
<path d="M-72.1126 517.34L-72.1122 551.981L-13.4996 518.141L-13.5 483.5L-72.1126 517.34Z" stroke="#DFDFDF" stroke-opacity="0.5"/>
<path d="M-13.5 518.18L16.5 535.5L16.5 467.82L-13.5 450.5L-13.5 518.18Z" stroke="#DFDFDF" stroke-opacity="0.5"/>
<path d="M74.4996 571.179L44.5 588.5L103.113 622.34L133.112 605.019L74.4996 571.179Z" stroke="#DFDFDF" stroke-opacity="0.5"/>
<path d="M15.8874 569.34L15.8878 603.981L74.5004 570.141L74.5 535.5L15.8874 569.34Z" stroke="#DFDFDF" stroke-opacity="0.5"/>
<path d="M74.5 570.18L104.5 587.5V519.82L74.5 502.5V570.18Z" stroke="#DFDFDF" stroke-opacity="0.5"/>
<path d="M162.5 623.179L132.5 640.5L191.113 674.34L221.112 657.019L162.5 623.179Z" stroke="#DFDFDF" stroke-opacity="0.5"/>
<path d="M103.887 621.34L103.888 655.981L162.5 622.141L162.5 587.5L103.887 621.34Z" stroke="#DFDFDF" stroke-opacity="0.5"/>
<path d="M162.5 622.18L192.5 639.5V571.82L162.5 554.5V622.18Z" stroke="#DFDFDF" stroke-opacity="0.5"/>
<path d="M163.5 519.179L133.5 536.5L192.113 570.34L222.112 553.019L163.5 519.179Z" stroke="#DFDFDF" stroke-opacity="0.5"/>
<path d="M104.887 517.34L104.888 551.981L163.5 518.141L163.5 483.5L104.887 517.34Z" stroke="#DFDFDF" stroke-opacity="0.5"/>
<path d="M163.5 518.18L193.5 535.5V467.82L163.5 450.5V518.18Z" stroke="#DFDFDF" stroke-opacity="0.5"/>
<path d="M251.5 571.179L221.5 588.5L280.113 622.34L310.112 605.019L251.5 571.179Z" stroke="#DFDFDF" stroke-opacity="0.5"/>
<path d="M192.887 569.34L192.888 603.981L251.5 570.141L251.5 535.5L192.887 569.34Z" stroke="#DFDFDF" stroke-opacity="0.5"/>
<path d="M251.5 570.18L281.5 587.5V519.82L251.5 502.5V570.18Z" stroke="#DFDFDF" stroke-opacity="0.5"/>
<path d="M339.5 623.179L309.5 640.5L368.113 674.34L398.112 657.019L339.5 623.179Z" stroke="#DFDFDF" stroke-opacity="0.5"/>
<path d="M280.887 621.34L280.888 655.981L339.5 622.141L339.5 587.5L280.887 621.34Z" stroke="#DFDFDF" stroke-opacity="0.5"/>
<path d="M339.5 622.18L369.5 639.5V571.82L339.5 554.5V622.18Z" stroke="#DFDFDF" stroke-opacity="0.5"/>
<path d="M340.5 519.179L310.5 536.5L369.113 570.34L399.112 553.019L340.5 519.179Z" stroke="#DFDFDF" stroke-opacity="0.5"/>
<path d="M281.887 517.34L281.888 551.981L340.5 518.141L340.5 483.5L281.887 517.34Z" stroke="#DFDFDF" stroke-opacity="0.5"/>
<path d="M340.5 518.18L370.5 535.5V467.82L340.5 450.5V518.18Z" stroke="#DFDFDF" stroke-opacity="0.5"/>
<path d="M428.5 571.179L398.5 588.5L457.113 622.34L487.112 605.019L428.5 571.179Z" stroke="#DFDFDF" stroke-opacity="0.5"/>
<path d="M369.887 569.34L369.888 603.981L428.5 570.141L428.5 535.5L369.887 569.34Z" stroke="#DFDFDF" stroke-opacity="0.5"/>
<path d="M428.5 570.18L458.5 587.5V519.82L428.5 502.5V570.18Z" stroke="#DFDFDF" stroke-opacity="0.5"/>
<path d="M516.5 623.179L486.5 640.5L545.113 674.34L575.112 657.019L516.5 623.179Z" stroke="#DFDFDF" stroke-opacity="0.5"/>
<path d="M457.887 621.34L457.888 655.981L516.5 622.141L516.5 587.5L457.887 621.34Z" stroke="#DFDFDF" stroke-opacity="0.5"/>
<path d="M516.5 622.18L546.5 639.5V571.82L516.5 554.5V622.18Z" stroke="#DFDFDF" stroke-opacity="0.5"/>
<path d="M517.5 519.179L487.5 536.5L546.113 570.34L576.112 553.019L517.5 519.179Z" stroke="#DFDFDF" stroke-opacity="0.5"/>
<path d="M458.887 517.34L458.888 551.981L517.5 518.141L517.5 483.5L458.887 517.34Z" stroke="#DFDFDF" stroke-opacity="0.5"/>
<path d="M517.5 518.18L547.5 535.5V467.82L517.5 450.5V518.18Z" stroke="#DFDFDF" stroke-opacity="0.5"/>
<path d="M605.5 571.179L575.5 588.5L634.113 622.34L664.112 605.019L605.5 571.179Z" stroke="#DFDFDF" stroke-opacity="0.5"/>
<path d="M546.887 569.34L546.888 603.981L605.5 570.141L605.5 535.5L546.887 569.34Z" stroke="#DFDFDF" stroke-opacity="0.5"/>
<path d="M605.5 570.18L635.5 587.5V519.82L605.5 502.5V570.18Z" stroke="#DFDFDF" stroke-opacity="0.5"/>
<path d="M693.5 623.179L663.5 640.5L722.113 674.34L752.112 657.019L693.5 623.179Z" stroke="#DFDFDF" stroke-opacity="0.5"/>
<path d="M634.887 621.34L634.888 655.981L693.5 622.141L693.5 587.5L634.887 621.34Z" stroke="#DFDFDF" stroke-opacity="0.5"/>
<path d="M693.5 622.18L723.5 639.5V571.82L693.5 554.5V622.18Z" stroke="#DFDFDF" stroke-opacity="0.5"/>
<path d="M694.5 519.179L664.5 536.5L723.113 570.34L753.112 553.019L694.5 519.179Z" stroke="#DFDFDF" stroke-opacity="0.5"/>
<path d="M635.887 517.34L635.888 551.981L694.5 518.141L694.5 483.5L635.887 517.34Z" stroke="#DFDFDF" stroke-opacity="0.5"/>
<path d="M694.5 518.18L724.5 535.5V467.82L694.5 450.5V518.18Z" stroke="#DFDFDF" stroke-opacity="0.5"/>
<path d="M782.5 571.179L752.5 588.5L811.113 622.34L841.112 605.019L782.5 571.179Z" stroke="#DFDFDF" stroke-opacity="0.5"/>
<path d="M723.887 569.34L723.888 603.981L782.5 570.141L782.5 535.5L723.887 569.34Z" stroke="#DFDFDF" stroke-opacity="0.5"/>
<path d="M782.5 570.18L812.5 587.5V519.82L782.5 502.5V570.18Z" stroke="#DFDFDF" stroke-opacity="0.5"/>
<path d="M870.5 623.179L840.5 640.5L899.113 674.34L929.112 657.019L870.5 623.179Z" stroke="#DFDFDF" stroke-opacity="0.5"/>
<path d="M811.887 621.34L811.888 655.981L870.5 622.141L870.5 587.5L811.887 621.34Z" stroke="#DFDFDF" stroke-opacity="0.5"/>
<path d="M870.5 622.18L900.5 639.5V571.82L870.5 554.5V622.18Z" stroke="#DFDFDF" stroke-opacity="0.5"/>
<path d="M871.5 519.179L841.5 536.5L900.113 570.34L930.112 553.019L871.5 519.179Z" stroke="#DFDFDF" stroke-opacity="0.5"/>
<path d="M812.887 517.34L812.888 551.981L871.5 518.141L871.5 483.5L812.887 517.34Z" stroke="#DFDFDF" stroke-opacity="0.5"/>
<path d="M871.5 518.18L901.5 535.5V467.82L871.5 450.5V518.18Z" stroke="#DFDFDF" stroke-opacity="0.5"/>
<path d="M959.5 571.179L929.5 588.5L988.113 622.34L1018.11 605.019L959.5 571.179Z" stroke="#DFDFDF" stroke-opacity="0.5"/>
<path d="M900.887 569.34L900.888 603.981L959.5 570.141L959.5 535.5L900.887 569.34Z" stroke="#DFDFDF" stroke-opacity="0.5"/>
<path d="M959.5 570.18L989.5 587.5V519.82L959.5 502.5V570.18Z" stroke="#DFDFDF" stroke-opacity="0.5"/>
<path d="M1047.5 623.179L1017.5 640.5L1076.11 674.34L1106.11 657.019L1047.5 623.179Z" stroke="#DFDFDF" stroke-opacity="0.5"/>
<path d="M988.887 621.34L988.888 655.981L1047.5 622.141L1047.5 587.5L988.887 621.34Z" stroke="#DFDFDF" stroke-opacity="0.5"/>
<path d="M1047.5 622.18L1077.5 639.5V571.82L1047.5 554.5V622.18Z" stroke="#DFDFDF" stroke-opacity="0.5"/>
<path d="M1048.5 519.179L1018.5 536.5L1077.11 570.34L1107.11 553.019L1048.5 519.179Z" stroke="#DFDFDF" stroke-opacity="0.5"/>
<path d="M989.887 517.34L989.888 551.981L1048.5 518.141L1048.5 483.5L989.887 517.34Z" stroke="#DFDFDF" stroke-opacity="0.5"/>
<path d="M1048.5 518.18L1078.5 535.5V467.82L1048.5 450.5V518.18Z" stroke="#DFDFDF" stroke-opacity="0.5"/>
<path d="M1136.5 571.179L1106.5 588.5L1165.11 622.34L1195.11 605.019L1136.5 571.179Z" stroke="#DFDFDF" stroke-opacity="0.5"/>
<path d="M1077.89 569.34L1077.89 603.981L1136.5 570.141L1136.5 535.5L1077.89 569.34Z" stroke="#DFDFDF" stroke-opacity="0.5"/>
<path d="M1136.5 570.18L1166.5 587.5V519.82L1136.5 502.5V570.18Z" stroke="#DFDFDF" stroke-opacity="0.5"/>
<path d="M1224.5 623.179L1194.5 640.5L1253.11 674.34L1283.11 657.019L1224.5 623.179Z" stroke="#DFDFDF" stroke-opacity="0.5"/>
<path d="M1165.89 621.34L1165.89 655.981L1224.5 622.141L1224.5 587.5L1165.89 621.34Z" stroke="#DFDFDF" stroke-opacity="0.5"/>
<path d="M1224.5 622.18L1254.5 639.5V571.82L1224.5 554.5V622.18Z" stroke="#DFDFDF" stroke-opacity="0.5"/>
<path d="M1225.5 519.179L1195.5 536.5L1254.11 570.34L1284.11 553.019L1225.5 519.179Z" stroke="#DFDFDF" stroke-opacity="0.5"/>
<path d="M1166.89 517.34L1166.89 551.981L1225.5 518.141L1225.5 483.5L1166.89 517.34Z" stroke="#DFDFDF" stroke-opacity="0.5"/>
<path d="M1225.5 518.18L1255.5 535.5V467.82L1225.5 450.5V518.18Z" stroke="#DFDFDF" stroke-opacity="0.5"/>
<path d="M1313.5 571.179L1283.5 588.5L1342.11 622.34L1372.11 605.019L1313.5 571.179Z" stroke="#DFDFDF" stroke-opacity="0.5"/>
<path d="M1254.89 569.34L1254.89 603.981L1313.5 570.141L1313.5 535.5L1254.89 569.34Z" stroke="#DFDFDF" stroke-opacity="0.5"/>
<path d="M1313.5 570.18L1343.5 587.5V519.82L1313.5 502.5V570.18Z" stroke="#DFDFDF" stroke-opacity="0.5"/>
<path d="M1401.5 623.179L1371.5 640.5L1430.11 674.34L1460.11 657.019L1401.5 623.179Z" stroke="#DFDFDF" stroke-opacity="0.5"/>
<path d="M1342.89 621.34L1342.89 655.981L1401.5 622.141L1401.5 587.5L1342.89 621.34Z" stroke="#DFDFDF" stroke-opacity="0.5"/>
<path d="M1401.5 622.18L1431.5 639.5V571.82L1401.5 554.5V622.18Z" stroke="#DFDFDF" stroke-opacity="0.5"/>
<path d="M1402.5 519.179L1372.5 536.5L1431.11 570.34L1461.11 553.019L1402.5 519.179Z" stroke="#DFDFDF" stroke-opacity="0.5"/>
<path d="M1343.89 517.34L1343.89 551.981L1402.5 518.141L1402.5 483.5L1343.89 517.34Z" stroke="#DFDFDF" stroke-opacity="0.5"/>
<path d="M1402.5 518.18L1432.5 535.5V467.82L1402.5 450.5V518.18Z" stroke="#DFDFDF" stroke-opacity="0.5"/>
<path d="M1431.89 569.34L1431.89 603.981L1490.5 570.141L1490.5 535.5L1431.89 569.34Z" stroke="#DFDFDF" stroke-opacity="0.5"/>
<path d="M-13.5004 623.179L-43.5 640.5L15.1126 674.34L45.1122 657.019L-13.5004 623.179Z" stroke="#DFDFDF" stroke-opacity="0.5"/>
<path d="M-72.1126 621.34L-72.1122 655.981L-13.4996 622.141L-13.5 587.5L-72.1126 621.34Z" stroke="#DFDFDF" stroke-opacity="0.5"/>
<path d="M-13.5 622.18L16.5 639.5L16.5 571.82L-13.5 554.5L-13.5 622.18Z" stroke="#DFDFDF" stroke-opacity="0.5"/>
<path d="M74.4996 675.179L44.5 692.5L103.113 726.34L133.112 709.019L74.4996 675.179Z" stroke="#DFDFDF" stroke-opacity="0.5"/>
<path d="M15.8874 673.34L15.8878 707.981L74.5004 674.141L74.5 639.5L15.8874 673.34Z" stroke="#DFDFDF" stroke-opacity="0.5"/>
<path d="M74.5 674.18L104.5 691.5V623.82L74.5 606.5V674.18Z" stroke="#DFDFDF" stroke-opacity="0.5"/>
<path d="M162.5 727.179L132.5 744.5L191.113 778.34L221.112 761.019L162.5 727.179Z" stroke="#DFDFDF" stroke-opacity="0.5"/>
<path d="M103.887 725.34L103.888 759.981L162.5 726.141L162.5 691.5L103.887 725.34Z" stroke="#DFDFDF" stroke-opacity="0.5"/>
<path d="M162.5 726.18L192.5 743.5V675.82L162.5 658.5V726.18Z" stroke="#DFDFDF" stroke-opacity="0.5"/>
<path d="M163.5 623.179L133.5 640.5L192.113 674.34L222.112 657.019L163.5 623.179Z" stroke="#DFDFDF" stroke-opacity="0.5"/>
<path d="M104.887 621.34L104.888 655.981L163.5 622.141L163.5 587.5L104.887 621.34Z" stroke="#DFDFDF" stroke-opacity="0.5"/>
<path d="M163.5 622.18L193.5 639.5V571.82L163.5 554.5V622.18Z" stroke="#DFDFDF" stroke-opacity="0.5"/>
<path d="M251.5 675.179L221.5 692.5L280.113 726.34L310.112 709.019L251.5 675.179Z" stroke="#DFDFDF" stroke-opacity="0.5"/>
<path d="M192.887 673.34L192.888 707.981L251.5 674.141L251.5 639.5L192.887 673.34Z" stroke="#DFDFDF" stroke-opacity="0.5"/>
<path d="M251.5 674.18L281.5 691.5V623.82L251.5 606.5V674.18Z" stroke="#DFDFDF" stroke-opacity="0.5"/>
<path d="M339.5 727.179L309.5 744.5L368.113 778.34L398.112 761.019L339.5 727.179Z" stroke="#DFDFDF" stroke-opacity="0.5"/>
<path d="M280.887 725.34L280.888 759.981L339.5 726.141L339.5 691.5L280.887 725.34Z" stroke="#DFDFDF" stroke-opacity="0.5"/>
<path d="M339.5 726.18L369.5 743.5V675.82L339.5 658.5V726.18Z" stroke="#DFDFDF" stroke-opacity="0.5"/>
<path d="M340.5 623.179L310.5 640.5L369.113 674.34L399.112 657.019L340.5 623.179Z" stroke="#DFDFDF" stroke-opacity="0.5"/>
<path d="M281.887 621.34L281.888 655.981L340.5 622.141L340.5 587.5L281.887 621.34Z" stroke="#DFDFDF" stroke-opacity="0.5"/>
<path d="M340.5 622.18L370.5 639.5V571.82L340.5 554.5V622.18Z" stroke="#DFDFDF" stroke-opacity="0.5"/>
<path d="M428.5 675.179L398.5 692.5L457.113 726.34L487.112 709.019L428.5 675.179Z" stroke="#DFDFDF" stroke-opacity="0.5"/>
<path d="M369.887 673.34L369.888 707.981L428.5 674.141L428.5 639.5L369.887 673.34Z" stroke="#DFDFDF" stroke-opacity="0.5"/>
<path d="M428.5 674.18L458.5 691.5V623.82L428.5 606.5V674.18Z" stroke="#DFDFDF" stroke-opacity="0.5"/>
<path d="M516.5 727.179L486.5 744.5L545.113 778.34L575.112 761.019L516.5 727.179Z" stroke="#DFDFDF" stroke-opacity="0.5"/>
<path d="M457.887 725.34L457.888 759.981L516.5 726.141L516.5 691.5L457.887 725.34Z" stroke="#DFDFDF" stroke-opacity="0.5"/>
<path d="M516.5 726.18L546.5 743.5V675.82L516.5 658.5V726.18Z" stroke="#DFDFDF" stroke-opacity="0.5"/>
<path d="M517.5 623.179L487.5 640.5L546.113 674.34L576.112 657.019L517.5 623.179Z" stroke="#DFDFDF" stroke-opacity="0.5"/>
<path d="M458.887 621.34L458.888 655.981L517.5 622.141L517.5 587.5L458.887 621.34Z" stroke="#DFDFDF" stroke-opacity="0.5"/>
<path d="M517.5 622.18L547.5 639.5V571.82L517.5 554.5V622.18Z" stroke="#DFDFDF" stroke-opacity="0.5"/>
<path d="M605.5 675.179L575.5 692.5L634.113 726.34L664.112 709.019L605.5 675.179Z" stroke="#DFDFDF" stroke-opacity="0.5"/>
<path d="M546.887 673.34L546.888 707.981L605.5 674.141L605.5 639.5L546.887 673.34Z" stroke="#DFDFDF" stroke-opacity="0.5"/>
<path d="M605.5 674.18L635.5 691.5V623.82L605.5 606.5V674.18Z" stroke="#DFDFDF" stroke-opacity="0.5"/>
<path d="M693.5 727.179L663.5 744.5L722.113 778.34L752.112 761.019L693.5 727.179Z" stroke="#DFDFDF" stroke-opacity="0.5"/>
<path d="M634.887 725.34L634.888 759.981L693.5 726.141L693.5 691.5L634.887 725.34Z" stroke="#DFDFDF" stroke-opacity="0.5"/>
<path d="M693.5 726.18L723.5 743.5V675.82L693.5 658.5V726.18Z" stroke="#DFDFDF" stroke-opacity="0.5"/>
<path d="M694.5 623.179L664.5 640.5L723.113 674.34L753.112 657.019L694.5 623.179Z" stroke="#DFDFDF" stroke-opacity="0.5"/>
<path d="M635.887 621.34L635.888 655.981L694.5 622.141L694.5 587.5L635.887 621.34Z" stroke="#DFDFDF" stroke-opacity="0.5"/>
<path d="M694.5 622.18L724.5 639.5V571.82L694.5 554.5V622.18Z" stroke="#DFDFDF" stroke-opacity="0.5"/>
<path d="M782.5 675.179L752.5 692.5L811.113 726.34L841.112 709.019L782.5 675.179Z" stroke="#DFDFDF" stroke-opacity="0.5"/>
<path d="M723.887 673.34L723.888 707.981L782.5 674.141L782.5 639.5L723.887 673.34Z" stroke="#DFDFDF" stroke-opacity="0.5"/>
<path d="M782.5 674.18L812.5 691.5V623.82L782.5 606.5V674.18Z" stroke="#DFDFDF" stroke-opacity="0.5"/>
<path d="M870.5 727.179L840.5 744.5L899.113 778.34L929.112 761.019L870.5 727.179Z" stroke="#DFDFDF" stroke-opacity="0.5"/>
<path d="M811.887 725.34L811.888 759.981L870.5 726.141L870.5 691.5L811.887 725.34Z" stroke="#DFDFDF" stroke-opacity="0.5"/>
<path d="M870.5 726.18L900.5 743.5V675.82L870.5 658.5V726.18Z" stroke="#DFDFDF" stroke-opacity="0.5"/>
<path d="M871.5 623.179L841.5 640.5L900.113 674.34L930.112 657.019L871.5 623.179Z" stroke="#DFDFDF" stroke-opacity="0.5"/>
<path d="M812.887 621.34L812.888 655.981L871.5 622.141L871.5 587.5L812.887 621.34Z" stroke="#DFDFDF" stroke-opacity="0.5"/>
<path d="M871.5 622.18L901.5 639.5V571.82L871.5 554.5V622.18Z" stroke="#DFDFDF" stroke-opacity="0.5"/>
<path d="M959.5 675.179L929.5 692.5L988.113 726.34L1018.11 709.019L959.5 675.179Z" stroke="#DFDFDF" stroke-opacity="0.5"/>
<path d="M900.887 673.34L900.888 707.981L959.5 674.141L959.5 639.5L900.887 673.34Z" stroke="#DFDFDF" stroke-opacity="0.5"/>
<path d="M959.5 674.18L989.5 691.5V623.82L959.5 606.5V674.18Z" stroke="#DFDFDF" stroke-opacity="0.5"/>
<path d="M1047.5 727.179L1017.5 744.5L1076.11 778.34L1106.11 761.019L1047.5 727.179Z" stroke="#DFDFDF" stroke-opacity="0.5"/>
<path d="M988.887 725.34L988.888 759.981L1047.5 726.141L1047.5 691.5L988.887 725.34Z" stroke="#DFDFDF" stroke-opacity="0.5"/>
<path d="M1047.5 726.18L1077.5 743.5V675.82L1047.5 658.5V726.18Z" stroke="#DFDFDF" stroke-opacity="0.5"/>
<path d="M1048.5 623.179L1018.5 640.5L1077.11 674.34L1107.11 657.019L1048.5 623.179Z" stroke="#DFDFDF" stroke-opacity="0.5"/>
<path d="M989.887 621.34L989.888 655.981L1048.5 622.141L1048.5 587.5L989.887 621.34Z" stroke="#DFDFDF" stroke-opacity="0.5"/>
<path d="M1048.5 622.18L1078.5 639.5V571.82L1048.5 554.5V622.18Z" stroke="#DFDFDF" stroke-opacity="0.5"/>
<path d="M1136.5 675.179L1106.5 692.5L1165.11 726.34L1195.11 709.019L1136.5 675.179Z" stroke="#DFDFDF" stroke-opacity="0.5"/>
<path d="M1077.89 673.34L1077.89 707.981L1136.5 674.141L1136.5 639.5L1077.89 673.34Z" stroke="#DFDFDF" stroke-opacity="0.5"/>
<path d="M1136.5 674.18L1166.5 691.5V623.82L1136.5 606.5V674.18Z" stroke="#DFDFDF" stroke-opacity="0.5"/>
<path d="M1224.5 727.179L1194.5 744.5L1253.11 778.34L1283.11 761.019L1224.5 727.179Z" stroke="#DFDFDF" stroke-opacity="0.5"/>
<path d="M1165.89 725.34L1165.89 759.981L1224.5 726.141L1224.5 691.5L1165.89 725.34Z" stroke="#DFDFDF" stroke-opacity="0.5"/>
<path d="M1224.5 726.18L1254.5 743.5V675.82L1224.5 658.5V726.18Z" stroke="#DFDFDF" stroke-opacity="0.5"/>
<path d="M1225.5 623.179L1195.5 640.5L1254.11 674.34L1284.11 657.019L1225.5 623.179Z" stroke="#DFDFDF" stroke-opacity="0.5"/>
<path d="M1166.89 621.34L1166.89 655.981L1225.5 622.141L1225.5 587.5L1166.89 621.34Z" stroke="#DFDFDF" stroke-opacity="0.5"/>
<path d="M1225.5 622.18L1255.5 639.5V571.82L1225.5 554.5V622.18Z" stroke="#DFDFDF" stroke-opacity="0.5"/>
<path d="M1313.5 675.179L1283.5 692.5L1342.11 726.34L1372.11 709.019L1313.5 675.179Z" stroke="#DFDFDF" stroke-opacity="0.5"/>
<path d="M1254.89 673.34L1254.89 707.981L1313.5 674.141L1313.5 639.5L1254.89 673.34Z" stroke="#DFDFDF" stroke-opacity="0.5"/>
<path d="M1313.5 674.18L1343.5 691.5V623.82L1313.5 606.5V674.18Z" stroke="#DFDFDF" stroke-opacity="0.5"/>
<path d="M1401.5 727.179L1371.5 744.5L1430.11 778.34L1460.11 761.019L1401.5 727.179Z" stroke="#DFDFDF" stroke-opacity="0.5"/>
<path d="M1342.89 725.34L1342.89 759.981L1401.5 726.141L1401.5 691.5L1342.89 725.34Z" stroke="#DFDFDF" stroke-opacity="0.5"/>
<path d="M1401.5 726.18L1431.5 743.5V675.82L1401.5 658.5V726.18Z" stroke="#DFDFDF" stroke-opacity="0.5"/>
<path d="M1402.5 623.179L1372.5 640.5L1431.11 674.34L1461.11 657.019L1402.5 623.179Z" stroke="#DFDFDF" stroke-opacity="0.5"/>
<path d="M1343.89 621.34L1343.89 655.981L1402.5 622.141L1402.5 587.5L1343.89 621.34Z" stroke="#DFDFDF" stroke-opacity="0.5"/>
<path d="M1402.5 622.18L1432.5 639.5V571.82L1402.5 554.5V622.18Z" stroke="#DFDFDF" stroke-opacity="0.5"/>
<path d="M1431.89 673.34L1431.89 707.981L1490.5 674.141L1490.5 639.5L1431.89 673.34Z" stroke="#DFDFDF" stroke-opacity="0.5"/>
<path d="M-13.5004 727.179L-43.5 744.5L15.1126 778.34L45.1122 761.019L-13.5004 727.179Z" stroke="#DFDFDF" stroke-opacity="0.5"/>
<path d="M-72.1126 725.34L-72.1122 759.981L-13.4996 726.141L-13.5 691.5L-72.1126 725.34Z" stroke="#DFDFDF" stroke-opacity="0.5"/>
<path d="M-13.5 726.18L16.5 743.5L16.5 675.82L-13.5 658.5L-13.5 726.18Z" stroke="#DFDFDF" stroke-opacity="0.5"/>
<path d="M74.4996 779.179L44.5 796.5L103.113 830.34L133.112 813.019L74.4996 779.179Z" stroke="#DFDFDF" stroke-opacity="0.5"/>
<path d="M15.8874 777.34L15.8878 811.981L74.5004 778.141L74.5 743.5L15.8874 777.34Z" stroke="#DFDFDF" stroke-opacity="0.5"/>
<path d="M74.5 778.18L104.5 795.5V727.82L74.5 710.5V778.18Z" stroke="#DFDFDF" stroke-opacity="0.5"/>
<path d="M162.5 831.179L132.5 848.5L191.113 882.34L221.112 865.019L162.5 831.179Z" stroke="#DFDFDF" stroke-opacity="0.5"/>
<path d="M103.887 829.34L103.888 863.981L162.5 830.141L162.5 795.5L103.887 829.34Z" stroke="#DFDFDF" stroke-opacity="0.5"/>
<path d="M162.5 830.18L192.5 847.5V779.82L162.5 762.5V830.18Z" stroke="#DFDFDF" stroke-opacity="0.5"/>
<path d="M163.5 727.179L133.5 744.5L192.113 778.34L222.112 761.019L163.5 727.179Z" stroke="#DFDFDF" stroke-opacity="0.5"/>
<path d="M104.887 725.34L104.888 759.981L163.5 726.141L163.5 691.5L104.887 725.34Z" stroke="#DFDFDF" stroke-opacity="0.5"/>
<path d="M163.5 726.18L193.5 743.5V675.82L163.5 658.5V726.18Z" stroke="#DFDFDF" stroke-opacity="0.5"/>
<path d="M251.5 779.179L221.5 796.5L280.113 830.34L310.112 813.019L251.5 779.179Z" stroke="#DFDFDF" stroke-opacity="0.5"/>
<path d="M192.887 777.34L192.888 811.981L251.5 778.141L251.5 743.5L192.887 777.34Z" stroke="#DFDFDF" stroke-opacity="0.5"/>
<path d="M251.5 778.18L281.5 795.5V727.82L251.5 710.5V778.18Z" stroke="#DFDFDF" stroke-opacity="0.5"/>
<path d="M339.5 831.179L309.5 848.5L368.113 882.34L398.112 865.019L339.5 831.179Z" stroke="#DFDFDF" stroke-opacity="0.5"/>
<path d="M280.887 829.34L280.888 863.981L339.5 830.141L339.5 795.5L280.887 829.34Z" stroke="#DFDFDF" stroke-opacity="0.5"/>
<path d="M339.5 830.18L369.5 847.5V779.82L339.5 762.5V830.18Z" stroke="#DFDFDF" stroke-opacity="0.5"/>
<path d="M340.5 727.179L310.5 744.5L369.113 778.34L399.112 761.019L340.5 727.179Z" stroke="#DFDFDF" stroke-opacity="0.5"/>
<path d="M281.887 725.34L281.888 759.981L340.5 726.141L340.5 691.5L281.887 725.34Z" stroke="#DFDFDF" stroke-opacity="0.5"/>
<path d="M340.5 726.18L370.5 743.5V675.82L340.5 658.5V726.18Z" stroke="#DFDFDF" stroke-opacity="0.5"/>
<path d="M428.5 779.179L398.5 796.5L457.113 830.34L487.112 813.019L428.5 779.179Z" stroke="#DFDFDF" stroke-opacity="0.5"/>
<path d="M369.887 777.34L369.888 811.981L428.5 778.141L428.5 743.5L369.887 777.34Z" stroke="#DFDFDF" stroke-opacity="0.5"/>
<path d="M428.5 778.18L458.5 795.5V727.82L428.5 710.5V778.18Z" stroke="#DFDFDF" stroke-opacity="0.5"/>
<path d="M516.5 831.179L486.5 848.5L545.113 882.34L575.112 865.019L516.5 831.179Z" stroke="#DFDFDF" stroke-opacity="0.5"/>
<path d="M457.887 829.34L457.888 863.981L516.5 830.141L516.5 795.5L457.887 829.34Z" stroke="#DFDFDF" stroke-opacity="0.5"/>
<path d="M516.5 830.18L546.5 847.5V779.82L516.5 762.5V830.18Z" stroke="#DFDFDF" stroke-opacity="0.5"/>
<path d="M517.5 727.179L487.5 744.5L546.113 778.34L576.112 761.019L517.5 727.179Z" stroke="#DFDFDF" stroke-opacity="0.5"/>
<path d="M458.887 725.34L458.888 759.981L517.5 726.141L517.5 691.5L458.887 725.34Z" stroke="#DFDFDF" stroke-opacity="0.5"/>
<path d="M517.5 726.18L547.5 743.5V675.82L517.5 658.5V726.18Z" stroke="#DFDFDF" stroke-opacity="0.5"/>
<path d="M605.5 779.179L575.5 796.5L634.113 830.34L664.112 813.019L605.5 779.179Z" stroke="#DFDFDF" stroke-opacity="0.5"/>
<path d="M546.887 777.34L546.888 811.981L605.5 778.141L605.5 743.5L546.887 777.34Z" stroke="#DFDFDF" stroke-opacity="0.5"/>
<path d="M605.5 778.18L635.5 795.5V727.82L605.5 710.5V778.18Z" stroke="#DFDFDF" stroke-opacity="0.5"/>
<path d="M693.5 831.179L663.5 848.5L722.113 882.34L752.112 865.019L693.5 831.179Z" stroke="#DFDFDF" stroke-opacity="0.5"/>
<path d="M634.887 829.34L634.888 863.981L693.5 830.141L693.5 795.5L634.887 829.34Z" stroke="#DFDFDF" stroke-opacity="0.5"/>
<path d="M693.5 830.18L723.5 847.5V779.82L693.5 762.5V830.18Z" stroke="#DFDFDF" stroke-opacity="0.5"/>
<path d="M694.5 727.179L664.5 744.5L723.113 778.34L753.112 761.019L694.5 727.179Z" stroke="#DFDFDF" stroke-opacity="0.5"/>
<path d="M635.887 725.34L635.888 759.981L694.5 726.141L694.5 691.5L635.887 725.34Z" stroke="#DFDFDF" stroke-opacity="0.5"/>
<path d="M694.5 726.18L724.5 743.5V675.82L694.5 658.5V726.18Z" stroke="#DFDFDF" stroke-opacity="0.5"/>
<path d="M782.5 779.179L752.5 796.5L811.113 830.34L841.112 813.019L782.5 779.179Z" stroke="#DFDFDF" stroke-opacity="0.5"/>
<path d="M723.887 777.34L723.888 811.981L782.5 778.141L782.5 743.5L723.887 777.34Z" stroke="#DFDFDF" stroke-opacity="0.5"/>
<path d="M782.5 778.18L812.5 795.5V727.82L782.5 710.5V778.18Z" stroke="#DFDFDF" stroke-opacity="0.5"/>
<path d="M870.5 831.179L840.5 848.5L899.113 882.34L929.112 865.019L870.5 831.179Z" stroke="#DFDFDF" stroke-opacity="0.5"/>
<path d="M811.887 829.34L811.888 863.981L870.5 830.141L870.5 795.5L811.887 829.34Z" stroke="#DFDFDF" stroke-opacity="0.5"/>
<path d="M870.5 830.18L900.5 847.5V779.82L870.5 762.5V830.18Z" stroke="#DFDFDF" stroke-opacity="0.5"/>
<path d="M871.5 727.179L841.5 744.5L900.113 778.34L930.112 761.019L871.5 727.179Z" stroke="#DFDFDF" stroke-opacity="0.5"/>
<path d="M812.887 725.34L812.888 759.981L871.5 726.141L871.5 691.5L812.887 725.34Z" stroke="#DFDFDF" stroke-opacity="0.5"/>
<path d="M871.5 726.18L901.5 743.5V675.82L871.5 658.5V726.18Z" stroke="#DFDFDF" stroke-opacity="0.5"/>
<path d="M959.5 779.179L929.5 796.5L988.113 830.34L1018.11 813.019L959.5 779.179Z" stroke="#DFDFDF" stroke-opacity="0.5"/>
<path d="M900.887 777.34L900.888 811.981L959.5 778.141L959.5 743.5L900.887 777.34Z" stroke="#DFDFDF" stroke-opacity="0.5"/>
<path d="M959.5 778.18L989.5 795.5V727.82L959.5 710.5V778.18Z" stroke="#DFDFDF" stroke-opacity="0.5"/>
<path d="M1047.5 831.179L1017.5 848.5L1076.11 882.34L1106.11 865.019L1047.5 831.179Z" stroke="#DFDFDF" stroke-opacity="0.5"/>
<path d="M988.887 829.34L988.888 863.981L1047.5 830.141L1047.5 795.5L988.887 829.34Z" stroke="#DFDFDF" stroke-opacity="0.5"/>
<path d="M1047.5 830.18L1077.5 847.5V779.82L1047.5 762.5V830.18Z" stroke="#DFDFDF" stroke-opacity="0.5"/>
<path d="M1048.5 727.179L1018.5 744.5L1077.11 778.34L1107.11 761.019L1048.5 727.179Z" stroke="#DFDFDF" stroke-opacity="0.5"/>
<path d="M989.887 725.34L989.888 759.981L1048.5 726.141L1048.5 691.5L989.887 725.34Z" stroke="#DFDFDF" stroke-opacity="0.5"/>
<path d="M1048.5 726.18L1078.5 743.5V675.82L1048.5 658.5V726.18Z" stroke="#DFDFDF" stroke-opacity="0.5"/>
<path d="M1136.5 779.179L1106.5 796.5L1165.11 830.34L1195.11 813.019L1136.5 779.179Z" stroke="#DFDFDF" stroke-opacity="0.5"/>
<path d="M1077.89 777.34L1077.89 811.981L1136.5 778.141L1136.5 743.5L1077.89 777.34Z" stroke="#DFDFDF" stroke-opacity="0.5"/>
<path d="M1136.5 778.18L1166.5 795.5V727.82L1136.5 710.5V778.18Z" stroke="#DFDFDF" stroke-opacity="0.5"/>
<path d="M1224.5 831.179L1194.5 848.5L1253.11 882.34L1283.11 865.019L1224.5 831.179Z" stroke="#DFDFDF" stroke-opacity="0.5"/>
<path d="M1165.89 829.34L1165.89 863.981L1224.5 830.141L1224.5 795.5L1165.89 829.34Z" stroke="#DFDFDF" stroke-opacity="0.5"/>
<path d="M1224.5 830.18L1254.5 847.5V779.82L1224.5 762.5V830.18Z" stroke="#DFDFDF" stroke-opacity="0.5"/>
<path d="M1225.5 727.179L1195.5 744.5L1254.11 778.34L1284.11 761.019L1225.5 727.179Z" stroke="#DFDFDF" stroke-opacity="0.5"/>
<path d="M1166.89 725.34L1166.89 759.981L1225.5 726.141L1225.5 691.5L1166.89 725.34Z" stroke="#DFDFDF" stroke-opacity="0.5"/>
<path d="M1225.5 726.18L1255.5 743.5V675.82L1225.5 658.5V726.18Z" stroke="#DFDFDF" stroke-opacity="0.5"/>
<path d="M1313.5 779.179L1283.5 796.5L1342.11 830.34L1372.11 813.019L1313.5 779.179Z" stroke="#DFDFDF" stroke-opacity="0.5"/>
<path d="M1254.89 777.34L1254.89 811.981L1313.5 778.141L1313.5 743.5L1254.89 777.34Z" stroke="#DFDFDF" stroke-opacity="0.5"/>
<path d="M1313.5 778.18L1343.5 795.5V727.82L1313.5 710.5V778.18Z" stroke="#DFDFDF" stroke-opacity="0.5"/>
<path d="M1401.5 831.179L1371.5 848.5L1430.11 882.34L1460.11 865.019L1401.5 831.179Z" stroke="#DFDFDF" stroke-opacity="0.5"/>
<path d="M1342.89 829.34L1342.89 863.981L1401.5 830.141L1401.5 795.5L1342.89 829.34Z" stroke="#DFDFDF" stroke-opacity="0.5"/>
<path d="M1401.5 830.18L1431.5 847.5V779.82L1401.5 762.5V830.18Z" stroke="#DFDFDF" stroke-opacity="0.5"/>
<path d="M1402.5 727.179L1372.5 744.5L1431.11 778.34L1461.11 761.019L1402.5 727.179Z" stroke="#DFDFDF" stroke-opacity="0.5"/>
<path d="M1343.89 725.34L1343.89 759.981L1402.5 726.141L1402.5 691.5L1343.89 725.34Z" stroke="#DFDFDF" stroke-opacity="0.5"/>
<path d="M1402.5 726.18L1432.5 743.5V675.82L1402.5 658.5V726.18Z" stroke="#DFDFDF" stroke-opacity="0.5"/>
<path d="M1431.89 777.34L1431.89 811.981L1490.5 778.141L1490.5 743.5L1431.89 777.34Z" stroke="#DFDFDF" stroke-opacity="0.5"/>
<path d="M-13.5004 831.179L-43.5 848.5L15.1126 882.34L45.1122 865.019L-13.5004 831.179Z" stroke="#DFDFDF" stroke-opacity="0.5"/>
<path d="M-72.1126 829.34L-72.1122 863.981L-13.4996 830.141L-13.5 795.5L-72.1126 829.34Z" stroke="#DFDFDF" stroke-opacity="0.5"/>
<path d="M-13.5 830.18L16.5 847.5L16.5 779.82L-13.5 762.5L-13.5 830.18Z" stroke="#DFDFDF" stroke-opacity="0.5"/>
<path d="M74.4996 883.179L44.5 900.5L103.113 934.34L133.112 917.019L74.4996 883.179Z" stroke="#DFDFDF" stroke-opacity="0.5"/>
<path d="M15.8874 881.34L15.8878 915.981L74.5004 882.141L74.5 847.5L15.8874 881.34Z" stroke="#DFDFDF" stroke-opacity="0.5"/>
<path d="M74.5 882.18L104.5 899.5V831.82L74.5 814.5V882.18Z" stroke="#DFDFDF" stroke-opacity="0.5"/>
<path d="M162.5 935.179L132.5 952.5L191.113 986.34L221.112 969.019L162.5 935.179Z" stroke="#DFDFDF" stroke-opacity="0.5"/>
<path d="M103.887 933.34L103.888 967.981L162.5 934.141L162.5 899.5L103.887 933.34Z" stroke="#DFDFDF" stroke-opacity="0.5"/>
<path d="M162.5 934.18L192.5 951.5V883.82L162.5 866.5V934.18Z" stroke="#DFDFDF" stroke-opacity="0.5"/>
<path d="M163.5 831.179L133.5 848.5L192.113 882.34L222.112 865.019L163.5 831.179Z" stroke="#DFDFDF" stroke-opacity="0.5"/>
<path d="M104.887 829.34L104.888 863.981L163.5 830.141L163.5 795.5L104.887 829.34Z" stroke="#DFDFDF" stroke-opacity="0.5"/>
<path d="M163.5 830.18L193.5 847.5V779.82L163.5 762.5V830.18Z" stroke="#DFDFDF" stroke-opacity="0.5"/>
<path d="M251.5 883.179L221.5 900.5L280.113 934.34L310.112 917.019L251.5 883.179Z" stroke="#DFDFDF" stroke-opacity="0.5"/>
<path d="M192.887 881.34L192.888 915.981L251.5 882.141L251.5 847.5L192.887 881.34Z" stroke="#DFDFDF" stroke-opacity="0.5"/>
<path d="M251.5 882.18L281.5 899.5V831.82L251.5 814.5V882.18Z" stroke="#DFDFDF" stroke-opacity="0.5"/>
<path d="M339.5 935.179L309.5 952.5L368.113 986.34L398.112 969.019L339.5 935.179Z" stroke="#DFDFDF" stroke-opacity="0.5"/>
<path d="M280.887 933.34L280.888 967.981L339.5 934.141L339.5 899.5L280.887 933.34Z" stroke="#DFDFDF" stroke-opacity="0.5"/>
<path d="M339.5 934.18L369.5 951.5V883.82L339.5 866.5V934.18Z" stroke="#DFDFDF" stroke-opacity="0.5"/>
<path d="M340.5 831.179L310.5 848.5L369.113 882.34L399.112 865.019L340.5 831.179Z" stroke="#DFDFDF" stroke-opacity="0.5"/>
<path d="M281.887 829.34L281.888 863.981L340.5 830.141L340.5 795.5L281.887 829.34Z" stroke="#DFDFDF" stroke-opacity="0.5"/>
<path d="M340.5 830.18L370.5 847.5V779.82L340.5 762.5V830.18Z" stroke="#DFDFDF" stroke-opacity="0.5"/>
<path d="M428.5 883.179L398.5 900.5L457.113 934.34L487.112 917.019L428.5 883.179Z" stroke="#DFDFDF" stroke-opacity="0.5"/>
<path d="M369.887 881.34L369.888 915.981L428.5 882.141L428.5 847.5L369.887 881.34Z" stroke="#DFDFDF" stroke-opacity="0.5"/>
<path d="M428.5 882.18L458.5 899.5V831.82L428.5 814.5V882.18Z" stroke="#DFDFDF" stroke-opacity="0.5"/>
<path d="M516.5 935.179L486.5 952.5L545.113 986.34L575.112 969.019L516.5 935.179Z" stroke="#DFDFDF" stroke-opacity="0.5"/>
<path d="M457.887 933.34L457.888 967.981L516.5 934.141L516.5 899.5L457.887 933.34Z" stroke="#DFDFDF" stroke-opacity="0.5"/>
<path d="M516.5 934.18L546.5 951.5V883.82L516.5 866.5V934.18Z" stroke="#DFDFDF" stroke-opacity="0.5"/>
<path d="M517.5 831.179L487.5 848.5L546.113 882.34L576.112 865.019L517.5 831.179Z" stroke="#DFDFDF" stroke-opacity="0.5"/>
<path d="M458.887 829.34L458.888 863.981L517.5 830.141L517.5 795.5L458.887 829.34Z" stroke="#DFDFDF" stroke-opacity="0.5"/>
<path d="M517.5 830.18L547.5 847.5V779.82L517.5 762.5V830.18Z" stroke="#DFDFDF" stroke-opacity="0.5"/>
<path d="M605.5 883.179L575.5 900.5L634.113 934.34L664.112 917.019L605.5 883.179Z" stroke="#DFDFDF" stroke-opacity="0.5"/>
<path d="M546.887 881.34L546.888 915.981L605.5 882.141L605.5 847.5L546.887 881.34Z" stroke="#DFDFDF" stroke-opacity="0.5"/>
<path d="M605.5 882.18L635.5 899.5V831.82L605.5 814.5V882.18Z" stroke="#DFDFDF" stroke-opacity="0.5"/>
<path d="M693.5 935.179L663.5 952.5L722.113 986.34L752.112 969.019L693.5 935.179Z" stroke="#DFDFDF" stroke-opacity="0.5"/>
<path d="M634.887 933.34L634.888 967.981L693.5 934.141L693.5 899.5L634.887 933.34Z" stroke="#DFDFDF" stroke-opacity="0.5"/>
<path d="M693.5 934.18L723.5 951.5V883.82L693.5 866.5V934.18Z" stroke="#DFDFDF" stroke-opacity="0.5"/>
<path d="M694.5 831.179L664.5 848.5L723.113 882.34L753.112 865.019L694.5 831.179Z" stroke="#DFDFDF" stroke-opacity="0.5"/>
<path d="M635.887 829.34L635.888 863.981L694.5 830.141L694.5 795.5L635.887 829.34Z" stroke="#DFDFDF" stroke-opacity="0.5"/>
<path d="M694.5 830.18L724.5 847.5V779.82L694.5 762.5V830.18Z" stroke="#DFDFDF" stroke-opacity="0.5"/>
<path d="M782.5 883.179L752.5 900.5L811.113 934.34L841.112 917.019L782.5 883.179Z" stroke="#DFDFDF" stroke-opacity="0.5"/>
<path d="M723.887 881.34L723.888 915.981L782.5 882.141L782.5 847.5L723.887 881.34Z" stroke="#DFDFDF" stroke-opacity="0.5"/>
<path d="M782.5 882.18L812.5 899.5V831.82L782.5 814.5V882.18Z" stroke="#DFDFDF" stroke-opacity="0.5"/>
<path d="M870.5 935.179L840.5 952.5L899.113 986.34L929.112 969.019L870.5 935.179Z" stroke="#DFDFDF" stroke-opacity="0.5"/>
<path d="M811.887 933.34L811.888 967.981L870.5 934.141L870.5 899.5L811.887 933.34Z" stroke="#DFDFDF" stroke-opacity="0.5"/>
<path d="M870.5 934.18L900.5 951.5V883.82L870.5 866.5V934.18Z" stroke="#DFDFDF" stroke-opacity="0.5"/>
<path d="M871.5 831.179L841.5 848.5L900.113 882.34L930.112 865.019L871.5 831.179Z" stroke="#DFDFDF" stroke-opacity="0.5"/>
<path d="M812.887 829.34L812.888 863.981L871.5 830.141L871.5 795.5L812.887 829.34Z" stroke="#DFDFDF" stroke-opacity="0.5"/>
<path d="M871.5 830.18L901.5 847.5V779.82L871.5 762.5V830.18Z" stroke="#DFDFDF" stroke-opacity="0.5"/>
<path d="M959.5 883.179L929.5 900.5L988.113 934.34L1018.11 917.019L959.5 883.179Z" stroke="#DFDFDF" stroke-opacity="0.5"/>
<path d="M900.887 881.34L900.888 915.981L959.5 882.141L959.5 847.5L900.887 881.34Z" stroke="#DFDFDF" stroke-opacity="0.5"/>
<path d="M959.5 882.18L989.5 899.5V831.82L959.5 814.5V882.18Z" stroke="#DFDFDF" stroke-opacity="0.5"/>
<path d="M1047.5 935.179L1017.5 952.5L1076.11 986.34L1106.11 969.019L1047.5 935.179Z" stroke="#DFDFDF" stroke-opacity="0.5"/>
<path d="M988.887 933.34L988.888 967.981L1047.5 934.141L1047.5 899.5L988.887 933.34Z" stroke="#DFDFDF" stroke-opacity="0.5"/>
<path d="M1047.5 934.18L1077.5 951.5V883.82L1047.5 866.5V934.18Z" stroke="#DFDFDF" stroke-opacity="0.5"/>
<path d="M1048.5 831.179L1018.5 848.5L1077.11 882.34L1107.11 865.019L1048.5 831.179Z" stroke="#DFDFDF" stroke-opacity="0.5"/>
<path d="M989.887 829.34L989.888 863.981L1048.5 830.141L1048.5 795.5L989.887 829.34Z" stroke="#DFDFDF" stroke-opacity="0.5"/>
<path d="M1048.5 830.18L1078.5 847.5V779.82L1048.5 762.5V830.18Z" stroke="#DFDFDF" stroke-opacity="0.5"/>
<path d="M1136.5 883.179L1106.5 900.5L1165.11 934.34L1195.11 917.019L1136.5 883.179Z" stroke="#DFDFDF" stroke-opacity="0.5"/>
<path d="M1077.89 881.34L1077.89 915.981L1136.5 882.141L1136.5 847.5L1077.89 881.34Z" stroke="#DFDFDF" stroke-opacity="0.5"/>
<path d="M1136.5 882.18L1166.5 899.5V831.82L1136.5 814.5V882.18Z" stroke="#DFDFDF" stroke-opacity="0.5"/>
<path d="M1224.5 935.179L1194.5 952.5L1253.11 986.34L1283.11 969.019L1224.5 935.179Z" stroke="#DFDFDF" stroke-opacity="0.5"/>
<path d="M1165.89 933.34L1165.89 967.981L1224.5 934.141L1224.5 899.5L1165.89 933.34Z" stroke="#DFDFDF" stroke-opacity="0.5"/>
<path d="M1224.5 934.18L1254.5 951.5V883.82L1224.5 866.5V934.18Z" stroke="#DFDFDF" stroke-opacity="0.5"/>
<path d="M1225.5 831.179L1195.5 848.5L1254.11 882.34L1284.11 865.019L1225.5 831.179Z" stroke="#DFDFDF" stroke-opacity="0.5"/>
<path d="M1166.89 829.34L1166.89 863.981L1225.5 830.141L1225.5 795.5L1166.89 829.34Z" stroke="#DFDFDF" stroke-opacity="0.5"/>
<path d="M1225.5 830.18L1255.5 847.5V779.82L1225.5 762.5V830.18Z" stroke="#DFDFDF" stroke-opacity="0.5"/>
<path d="M1313.5 883.179L1283.5 900.5L1342.11 934.34L1372.11 917.019L1313.5 883.179Z" stroke="#DFDFDF" stroke-opacity="0.5"/>
<path d="M1254.89 881.34L1254.89 915.981L1313.5 882.141L1313.5 847.5L1254.89 881.34Z" stroke="#DFDFDF" stroke-opacity="0.5"/>
<path d="M1313.5 882.18L1343.5 899.5V831.82L1313.5 814.5V882.18Z" stroke="#DFDFDF" stroke-opacity="0.5"/>
<path d="M1401.5 935.179L1371.5 952.5L1430.11 986.34L1460.11 969.019L1401.5 935.179Z" stroke="#DFDFDF" stroke-opacity="0.5"/>
<path d="M1342.89 933.34L1342.89 967.981L1401.5 934.141L1401.5 899.5L1342.89 933.34Z" stroke="#DFDFDF" stroke-opacity="0.5"/>
<path d="M1401.5 934.18L1431.5 951.5V883.82L1401.5 866.5V934.18Z" stroke="#DFDFDF" stroke-opacity="0.5"/>
<path d="M1402.5 831.179L1372.5 848.5L1431.11 882.34L1461.11 865.019L1402.5 831.179Z" stroke="#DFDFDF" stroke-opacity="0.5"/>
<path d="M1343.89 829.34L1343.89 863.981L1402.5 830.141L1402.5 795.5L1343.89 829.34Z" stroke="#DFDFDF" stroke-opacity="0.5"/>
<path d="M1402.5 830.18L1432.5 847.5V779.82L1402.5 762.5V830.18Z" stroke="#DFDFDF" stroke-opacity="0.5"/>
<path d="M1431.89 881.34L1431.89 915.981L1490.5 882.141L1490.5 847.5L1431.89 881.34Z" stroke="#DFDFDF" stroke-opacity="0.5"/>
<path d="M-13.5004 935.179L-43.5 952.5L15.1126 986.34L45.1122 969.019L-13.5004 935.179Z" stroke="#DFDFDF" stroke-opacity="0.5"/>
<path d="M-72.1126 933.34L-72.1122 967.981L-13.4996 934.141L-13.5 899.5L-72.1126 933.34Z" stroke="#DFDFDF" stroke-opacity="0.5"/>
<path d="M-13.5 934.18L16.5 951.5L16.5 883.82L-13.5 866.5L-13.5 934.18Z" stroke="#DFDFDF" stroke-opacity="0.5"/>
<path d="M74.4996 987.179L44.5 1004.5L103.113 1038.34L133.112 1021.02L74.4996 987.179Z" stroke="#DFDFDF" stroke-opacity="0.5"/>
<path d="M15.8874 985.34L15.8878 1019.98L74.5004 986.141L74.5 951.5L15.8874 985.34Z" stroke="#DFDFDF" stroke-opacity="0.5"/>
<path d="M74.5 986.18L104.5 1003.5V935.82L74.5 918.5V986.18Z" stroke="#DFDFDF" stroke-opacity="0.5"/>
<path d="M103.887 1037.34L103.888 1071.98L162.5 1038.14L162.5 1003.5L103.887 1037.34Z" stroke="#DFDFDF" stroke-opacity="0.5"/>
<path d="M162.5 1038.18L192.5 1055.5V987.82L162.5 970.5V1038.18Z" stroke="#DFDFDF" stroke-opacity="0.5"/>
<path d="M163.5 935.179L133.5 952.5L192.113 986.34L222.112 969.019L163.5 935.179Z" stroke="#DFDFDF" stroke-opacity="0.5"/>
<path d="M104.887 933.34L104.888 967.981L163.5 934.141L163.5 899.5L104.887 933.34Z" stroke="#DFDFDF" stroke-opacity="0.5"/>
<path d="M163.5 934.18L193.5 951.5V883.82L163.5 866.5V934.18Z" stroke="#DFDFDF" stroke-opacity="0.5"/>
<path d="M251.5 987.179L221.5 1004.5L280.113 1038.34L310.112 1021.02L251.5 987.179Z" stroke="#DFDFDF" stroke-opacity="0.5"/>
<path d="M192.887 985.34L192.888 1019.98L251.5 986.141L251.5 951.5L192.887 985.34Z" stroke="#DFDFDF" stroke-opacity="0.5"/>
<path d="M251.5 986.18L281.5 1003.5V935.82L251.5 918.5V986.18Z" stroke="#DFDFDF" stroke-opacity="0.5"/>
<path d="M280.887 1037.34L280.888 1071.98L339.5 1038.14L339.5 1003.5L280.887 1037.34Z" stroke="#DFDFDF" stroke-opacity="0.5"/>
<path d="M339.5 1038.18L369.5 1055.5V987.82L339.5 970.5V1038.18Z" stroke="#DFDFDF" stroke-opacity="0.5"/>
<path d="M340.5 935.179L310.5 952.5L369.113 986.34L399.112 969.019L340.5 935.179Z" stroke="#DFDFDF" stroke-opacity="0.5"/>
<path d="M281.887 933.34L281.888 967.981L340.5 934.141L340.5 899.5L281.887 933.34Z" stroke="#DFDFDF" stroke-opacity="0.5"/>
<path d="M340.5 934.18L370.5 951.5V883.82L340.5 866.5V934.18Z" stroke="#DFDFDF" stroke-opacity="0.5"/>
<path d="M428.5 987.179L398.5 1004.5L457.113 1038.34L487.112 1021.02L428.5 987.179Z" stroke="#DFDFDF" stroke-opacity="0.5"/>
<path d="M369.887 985.34L369.888 1019.98L428.5 986.141L428.5 951.5L369.887 985.34Z" stroke="#DFDFDF" stroke-opacity="0.5"/>
<path d="M428.5 986.18L458.5 1003.5V935.82L428.5 918.5V986.18Z" stroke="#DFDFDF" stroke-opacity="0.5"/>
<path d="M457.887 1037.34L457.888 1071.98L516.5 1038.14L516.5 1003.5L457.887 1037.34Z" stroke="#DFDFDF" stroke-opacity="0.5"/>
<path d="M516.5 1038.18L546.5 1055.5V987.82L516.5 970.5V1038.18Z" stroke="#DFDFDF" stroke-opacity="0.5"/>
<path d="M517.5 935.179L487.5 952.5L546.113 986.34L576.112 969.019L517.5 935.179Z" stroke="#DFDFDF" stroke-opacity="0.5"/>
<path d="M458.887 933.34L458.888 967.981L517.5 934.141L517.5 899.5L458.887 933.34Z" stroke="#DFDFDF" stroke-opacity="0.5"/>
<path d="M517.5 934.18L547.5 951.5V883.82L517.5 866.5V934.18Z" stroke="#DFDFDF" stroke-opacity="0.5"/>
<path d="M605.5 987.179L575.5 1004.5L634.113 1038.34L664.112 1021.02L605.5 987.179Z" stroke="#DFDFDF" stroke-opacity="0.5"/>
<path d="M546.887 985.34L546.888 1019.98L605.5 986.141L605.5 951.5L546.887 985.34Z" stroke="#DFDFDF" stroke-opacity="0.5"/>
<path d="M605.5 986.18L635.5 1003.5V935.82L605.5 918.5V986.18Z" stroke="#DFDFDF" stroke-opacity="0.5"/>
<path d="M634.887 1037.34L634.888 1071.98L693.5 1038.14L693.5 1003.5L634.887 1037.34Z" stroke="#DFDFDF" stroke-opacity="0.5"/>
<path d="M693.5 1038.18L723.5 1055.5V987.82L693.5 970.5V1038.18Z" stroke="#DFDFDF" stroke-opacity="0.5"/>
<path d="M694.5 935.179L664.5 952.5L723.113 986.34L753.112 969.019L694.5 935.179Z" stroke="#DFDFDF" stroke-opacity="0.5"/>
<path d="M635.887 933.34L635.888 967.981L694.5 934.141L694.5 899.5L635.887 933.34Z" stroke="#DFDFDF" stroke-opacity="0.5"/>
<path d="M694.5 934.18L724.5 951.5V883.82L694.5 866.5V934.18Z" stroke="#DFDFDF" stroke-opacity="0.5"/>
<path d="M782.5 987.179L752.5 1004.5L811.113 1038.34L841.112 1021.02L782.5 987.179Z" stroke="#DFDFDF" stroke-opacity="0.5"/>
<path d="M723.887 985.34L723.888 1019.98L782.5 986.141L782.5 951.5L723.887 985.34Z" stroke="#DFDFDF" stroke-opacity="0.5"/>
<path d="M782.5 986.18L812.5 1003.5V935.82L782.5 918.5V986.18Z" stroke="#DFDFDF" stroke-opacity="0.5"/>
<path d="M811.887 1037.34L811.888 1071.98L870.5 1038.14L870.5 1003.5L811.887 1037.34Z" stroke="#DFDFDF" stroke-opacity="0.5"/>
<path d="M870.5 1038.18L900.5 1055.5V987.82L870.5 970.5V1038.18Z" stroke="#DFDFDF" stroke-opacity="0.5"/>
<path d="M871.5 935.179L841.5 952.5L900.113 986.34L930.112 969.019L871.5 935.179Z" stroke="#DFDFDF" stroke-opacity="0.5"/>
<path d="M812.887 933.34L812.888 967.981L871.5 934.141L871.5 899.5L812.887 933.34Z" stroke="#DFDFDF" stroke-opacity="0.5"/>
<path d="M871.5 934.18L901.5 951.5V883.82L871.5 866.5V934.18Z" stroke="#DFDFDF" stroke-opacity="0.5"/>
<path d="M959.5 987.179L929.5 1004.5L988.113 1038.34L1018.11 1021.02L959.5 987.179Z" stroke="#DFDFDF" stroke-opacity="0.5"/>
<path d="M900.887 985.34L900.888 1019.98L959.5 986.141L959.5 951.5L900.887 985.34Z" stroke="#DFDFDF" stroke-opacity="0.5"/>
<path d="M959.5 986.18L989.5 1003.5V935.82L959.5 918.5V986.18Z" stroke="#DFDFDF" stroke-opacity="0.5"/>
<path d="M988.887 1037.34L988.888 1071.98L1047.5 1038.14L1047.5 1003.5L988.887 1037.34Z" stroke="#DFDFDF" stroke-opacity="0.5"/>
<path d="M1047.5 1038.18L1077.5 1055.5V987.82L1047.5 970.5V1038.18Z" stroke="#DFDFDF" stroke-opacity="0.5"/>
<path d="M1048.5 935.179L1018.5 952.5L1077.11 986.34L1107.11 969.019L1048.5 935.179Z" stroke="#DFDFDF" stroke-opacity="0.5"/>
<path d="M989.887 933.34L989.888 967.981L1048.5 934.141L1048.5 899.5L989.887 933.34Z" stroke="#DFDFDF" stroke-opacity="0.5"/>
<path d="M1048.5 934.18L1078.5 951.5V883.82L1048.5 866.5V934.18Z" stroke="#DFDFDF" stroke-opacity="0.5"/>
<path d="M1136.5 987.179L1106.5 1004.5L1165.11 1038.34L1195.11 1021.02L1136.5 987.179Z" stroke="#DFDFDF" stroke-opacity="0.5"/>
<path d="M1077.89 985.34L1077.89 1019.98L1136.5 986.141L1136.5 951.5L1077.89 985.34Z" stroke="#DFDFDF" stroke-opacity="0.5"/>
<path d="M1136.5 986.18L1166.5 1003.5V935.82L1136.5 918.5V986.18Z" stroke="#DFDFDF" stroke-opacity="0.5"/>
<path d="M1165.89 1037.34L1165.89 1071.98L1224.5 1038.14L1224.5 1003.5L1165.89 1037.34Z" stroke="#DFDFDF" stroke-opacity="0.5"/>
<path d="M1224.5 1038.18L1254.5 1055.5V987.82L1224.5 970.5V1038.18Z" stroke="#DFDFDF" stroke-opacity="0.5"/>
<path d="M1225.5 935.179L1195.5 952.5L1254.11 986.34L1284.11 969.019L1225.5 935.179Z" stroke="#DFDFDF" stroke-opacity="0.5"/>
<path d="M1166.89 933.34L1166.89 967.981L1225.5 934.141L1225.5 899.5L1166.89 933.34Z" stroke="#DFDFDF" stroke-opacity="0.5"/>
<path d="M1225.5 934.18L1255.5 951.5V883.82L1225.5 866.5V934.18Z" stroke="#DFDFDF" stroke-opacity="0.5"/>
<path d="M1313.5 987.179L1283.5 1004.5L1342.11 1038.34L1372.11 1021.02L1313.5 987.179Z" stroke="#DFDFDF" stroke-opacity="0.5"/>
<path d="M1254.89 985.34L1254.89 1019.98L1313.5 986.141L1313.5 951.5L1254.89 985.34Z" stroke="#DFDFDF" stroke-opacity="0.5"/>
<path d="M1313.5 986.18L1343.5 1003.5V935.82L1313.5 918.5V986.18Z" stroke="#DFDFDF" stroke-opacity="0.5"/>
<path d="M1342.89 1037.34L1342.89 1071.98L1401.5 1038.14L1401.5 1003.5L1342.89 1037.34Z" stroke="#DFDFDF" stroke-opacity="0.5"/>
<path d="M1401.5 1038.18L1431.5 1055.5V987.82L1401.5 970.5V1038.18Z" stroke="#DFDFDF" stroke-opacity="0.5"/>
<path d="M1402.5 935.179L1372.5 952.5L1431.11 986.34L1461.11 969.019L1402.5 935.179Z" stroke="#DFDFDF" stroke-opacity="0.5"/>
<path d="M1343.89 933.34L1343.89 967.981L1402.5 934.141L1402.5 899.5L1343.89 933.34Z" stroke="#DFDFDF" stroke-opacity="0.5"/>
<path d="M1402.5 934.18L1432.5 951.5V883.82L1402.5 866.5V934.18Z" stroke="#DFDFDF" stroke-opacity="0.5"/>
<path d="M1431.89 985.34L1431.89 1019.98L1490.5 986.141L1490.5 951.5L1431.89 985.34Z" stroke="#DFDFDF" stroke-opacity="0.5"/>
</g>
<defs>
<clipPath id="clip0_430_16919">
<rect width="1416" height="1020" fill="white"/>
</clipPath>
</defs>
</svg>
